%TF.GenerationSoftware,KiCad,Pcbnew,7.0.2*%
%TF.CreationDate,2023-05-17T08:13:23+02:00*%
%TF.ProjectId,5V DC Smart Socket,35562044-4320-4536-9d61-727420536f63,rev?*%
%TF.SameCoordinates,Original*%
%TF.FileFunction,Copper,L2,Bot*%
%TF.FilePolarity,Positive*%
%FSLAX46Y46*%
G04 Gerber Fmt 4.6, Leading zero omitted, Abs format (unit mm)*
G04 Created by KiCad (PCBNEW 7.0.2) date 2023-05-17 08:13:23*
%MOMM*%
%LPD*%
G01*
G04 APERTURE LIST*
G04 Aperture macros list*
%AMRoundRect*
0 Rectangle with rounded corners*
0 $1 Rounding radius*
0 $2 $3 $4 $5 $6 $7 $8 $9 X,Y pos of 4 corners*
0 Add a 4 corners polygon primitive as box body*
4,1,4,$2,$3,$4,$5,$6,$7,$8,$9,$2,$3,0*
0 Add four circle primitives for the rounded corners*
1,1,$1+$1,$2,$3*
1,1,$1+$1,$4,$5*
1,1,$1+$1,$6,$7*
1,1,$1+$1,$8,$9*
0 Add four rect primitives between the rounded corners*
20,1,$1+$1,$2,$3,$4,$5,0*
20,1,$1+$1,$4,$5,$6,$7,0*
20,1,$1+$1,$6,$7,$8,$9,0*
20,1,$1+$1,$8,$9,$2,$3,0*%
G04 Aperture macros list end*
%TA.AperFunction,SMDPad,CuDef*%
%ADD10RoundRect,0.250000X-0.450000X0.350000X-0.450000X-0.350000X0.450000X-0.350000X0.450000X0.350000X0*%
%TD*%
%TA.AperFunction,SMDPad,CuDef*%
%ADD11RoundRect,0.150000X-0.150000X-0.625000X0.150000X-0.625000X0.150000X0.625000X-0.150000X0.625000X0*%
%TD*%
%TA.AperFunction,SMDPad,CuDef*%
%ADD12RoundRect,0.250000X-0.350000X-0.650000X0.350000X-0.650000X0.350000X0.650000X-0.350000X0.650000X0*%
%TD*%
%TA.AperFunction,ComponentPad*%
%ADD13R,1.524000X1.524000*%
%TD*%
%TA.AperFunction,ComponentPad*%
%ADD14C,1.524000*%
%TD*%
%TA.AperFunction,ComponentPad*%
%ADD15C,3.500000*%
%TD*%
%TA.AperFunction,SMDPad,CuDef*%
%ADD16RoundRect,0.250000X0.337500X0.475000X-0.337500X0.475000X-0.337500X-0.475000X0.337500X-0.475000X0*%
%TD*%
%TA.AperFunction,SMDPad,CuDef*%
%ADD17RoundRect,0.250001X0.462499X0.624999X-0.462499X0.624999X-0.462499X-0.624999X0.462499X-0.624999X0*%
%TD*%
%TA.AperFunction,SMDPad,CuDef*%
%ADD18RoundRect,0.250000X-0.337500X-0.475000X0.337500X-0.475000X0.337500X0.475000X-0.337500X0.475000X0*%
%TD*%
%TA.AperFunction,SMDPad,CuDef*%
%ADD19R,0.420000X1.100000*%
%TD*%
%TA.AperFunction,SMDPad,CuDef*%
%ADD20R,2.500000X1.600000*%
%TD*%
%TA.AperFunction,SMDPad,CuDef*%
%ADD21RoundRect,0.250000X-1.075000X0.375000X-1.075000X-0.375000X1.075000X-0.375000X1.075000X0.375000X0*%
%TD*%
%TA.AperFunction,ComponentPad*%
%ADD22R,1.800000X1.800000*%
%TD*%
%TA.AperFunction,ComponentPad*%
%ADD23C,1.800000*%
%TD*%
%TA.AperFunction,ComponentPad*%
%ADD24R,2.600000X2.600000*%
%TD*%
%TA.AperFunction,ComponentPad*%
%ADD25C,2.600000*%
%TD*%
%TA.AperFunction,ViaPad*%
%ADD26C,0.600000*%
%TD*%
%TA.AperFunction,ViaPad*%
%ADD27C,0.800000*%
%TD*%
%TA.AperFunction,Conductor*%
%ADD28C,0.150000*%
%TD*%
%TA.AperFunction,Conductor*%
%ADD29C,0.400000*%
%TD*%
%TA.AperFunction,Conductor*%
%ADD30C,0.510000*%
%TD*%
G04 APERTURE END LIST*
D10*
%TO.P,AR1,1*%
%TO.N,N/C*%
X181652500Y-73650000D03*
%TO.P,AR1,2*%
X181652500Y-75650000D03*
%TD*%
D11*
%TO.P,SHJ1,1,Pin_1*%
%TO.N,N/C*%
X173930000Y-64135000D03*
%TO.P,SHJ1,2,Pin_2*%
X174930000Y-64135000D03*
D12*
%TO.P,SHJ1,MP*%
X172630000Y-60260000D03*
X176230000Y-60260000D03*
%TD*%
D13*
%TO.P,REF\u002A\u002A,1*%
%TO.N,N/C*%
X161490000Y-85300000D03*
D14*
%TO.P,REF\u002A\u002A,2*%
X158990000Y-85300000D03*
%TO.P,REF\u002A\u002A,3*%
X156990000Y-85300000D03*
%TO.P,REF\u002A\u002A,4*%
X154490000Y-85300000D03*
D15*
%TO.P,REF\u002A\u002A,5*%
X164560000Y-88010000D03*
X151420000Y-88010000D03*
%TD*%
D11*
%TO.P,SHJ1,1,Pin_1*%
%TO.N,N/C*%
X158460000Y-64135000D03*
%TO.P,SHJ1,2,Pin_2*%
X159460000Y-64135000D03*
D12*
%TO.P,SHJ1,MP*%
X157160000Y-60260000D03*
X160760000Y-60260000D03*
%TD*%
D10*
%TO.P,AR2,1*%
%TO.N,N/C*%
X181592500Y-77630000D03*
%TO.P,AR2,2*%
X181592500Y-79630000D03*
%TD*%
D16*
%TO.P,AC2,1*%
%TO.N,N/C*%
X185030000Y-82070000D03*
%TO.P,AC2,2*%
X182955000Y-82070000D03*
%TD*%
D17*
%TO.P,F1,1*%
%TO.N,N/C*%
X160075000Y-66910000D03*
%TO.P,F1,2*%
X157100000Y-66910000D03*
%TD*%
D11*
%TO.P,SHJ1,1,Pin_1*%
%TO.N,N/C*%
X179940000Y-64140000D03*
%TO.P,SHJ1,2,Pin_2*%
X180940000Y-64140000D03*
D12*
%TO.P,SHJ1,MP*%
X178640000Y-60265000D03*
X182240000Y-60265000D03*
%TD*%
D18*
%TO.P,AC1,1*%
%TO.N,N/C*%
X179705000Y-71510000D03*
%TO.P,AC1,2*%
X181780000Y-71510000D03*
%TD*%
D13*
%TO.P,REF\u002A\u002A,1*%
%TO.N,N/C*%
X181280000Y-85280000D03*
D14*
%TO.P,REF\u002A\u002A,2*%
X178780000Y-85280000D03*
%TO.P,REF\u002A\u002A,3*%
X176780000Y-85280000D03*
%TO.P,REF\u002A\u002A,4*%
X174280000Y-85280000D03*
D15*
%TO.P,REF\u002A\u002A,5*%
X184350000Y-87990000D03*
X171210000Y-87990000D03*
%TD*%
D17*
%TO.P,F1,1*%
%TO.N,N/C*%
X182337500Y-66730000D03*
%TO.P,F1,2*%
X179362500Y-66730000D03*
%TD*%
D11*
%TO.P,SHJ1,1,Pin_1*%
%TO.N,N/C*%
X152400000Y-64125000D03*
%TO.P,SHJ1,2,Pin_2*%
X153400000Y-64125000D03*
D12*
%TO.P,SHJ1,MP*%
X151100000Y-60250000D03*
X154700000Y-60250000D03*
%TD*%
D19*
%TO.P,AU1,1,FB*%
%TO.N,N/C*%
X183932500Y-76870000D03*
%TO.P,AU1,2,GND*%
X184882500Y-76870000D03*
%TO.P,AU1,3,SW*%
X185832500Y-76880000D03*
%TO.P,AU1,4,VIN_SW*%
X185832500Y-80020000D03*
%TO.P,AU1,5,VIN_A*%
X184882500Y-80010000D03*
%TO.P,AU1,6,EN*%
X183932500Y-80020000D03*
D20*
%TO.P,AU1,7,GND*%
X184882500Y-78440000D03*
%TD*%
D21*
%TO.P,AL1,1,1*%
%TO.N,N/C*%
X184830000Y-71400000D03*
%TO.P,AL1,2,2*%
X184830000Y-74200000D03*
%TD*%
D17*
%TO.P,F1,1*%
%TO.N,N/C*%
X154037500Y-66880000D03*
%TO.P,F1,2*%
X151062500Y-66880000D03*
%TD*%
D22*
%TO.P,REF\u002A\u002A,1*%
%TO.N,N/C*%
X167910000Y-89460000D03*
D23*
%TO.P,REF\u002A\u002A,2*%
X167910000Y-91619000D03*
%TO.P,REF\u002A\u002A,3*%
X167910000Y-93778000D03*
%TO.P,REF\u002A\u002A,4*%
X167910000Y-95937000D03*
%TD*%
D17*
%TO.P,F1,1*%
%TO.N,N/C*%
X175887500Y-66720000D03*
%TO.P,F1,2*%
X172912500Y-66720000D03*
%TD*%
D24*
%TO.P,TEMPMX1,1,Pin_1*%
%TO.N,N/C*%
X164870000Y-62130000D03*
D25*
%TO.P,TEMPMX1,2,Pin_2*%
X168370000Y-62130000D03*
%TD*%
D26*
%TO.N,*%
X159485485Y-76375792D03*
X159678750Y-75600000D03*
X159838750Y-74025500D03*
X170268750Y-81760000D03*
X161574983Y-76056233D03*
D27*
X159588750Y-78140000D03*
D26*
X165133250Y-67860000D03*
D27*
X156278750Y-68730000D03*
D26*
X171874479Y-79398306D03*
X162523738Y-77913328D03*
X165614416Y-69429128D03*
X167878750Y-82040000D03*
D27*
X164588750Y-72030000D03*
D26*
X170348750Y-80010000D03*
X161520809Y-76922874D03*
X160728750Y-73220000D03*
D27*
X156148750Y-77880000D03*
D26*
X166278750Y-82960000D03*
X169408750Y-68520000D03*
X165068750Y-80800000D03*
X168118750Y-82890000D03*
X163878750Y-78860000D03*
X166619763Y-67881013D03*
X171053750Y-79475000D03*
X169168750Y-78360000D03*
X167528750Y-67990000D03*
X165268750Y-79420500D03*
D27*
X156188750Y-71530000D03*
D26*
X159168750Y-74770000D03*
X164694250Y-78716020D03*
X162307347Y-77129250D03*
X169438750Y-65240000D03*
X160249250Y-76842767D03*
X172298750Y-82630000D03*
X165555833Y-82587083D03*
D27*
X162228783Y-70555466D03*
D26*
X157575302Y-79958339D03*
X163247301Y-78264500D03*
X165899106Y-68540745D03*
X166928750Y-82190000D03*
X167778750Y-68790000D03*
%TD*%
D28*
%TO.N,*%
X172298750Y-82360000D02*
X171948750Y-82010000D01*
X161868750Y-79020000D02*
X161868750Y-84030000D01*
X160823750Y-76806760D02*
X160823750Y-77398173D01*
X163268750Y-81244974D02*
X163268750Y-83960000D01*
X166928750Y-82190000D02*
X166928750Y-84510000D01*
D29*
X163114216Y-70555466D02*
X164588750Y-72030000D01*
D28*
X161574277Y-76056233D02*
X160823750Y-76806760D01*
X160818750Y-77403173D02*
X160818750Y-84390000D01*
X158938750Y-75600000D02*
X158478750Y-75140000D01*
X162523738Y-77913328D02*
X162523738Y-78365012D01*
X160244560Y-76935713D02*
X158884463Y-76935713D01*
X163247301Y-79276475D02*
X162218750Y-80305026D01*
X161574983Y-76056233D02*
X161574277Y-76056233D01*
X162218750Y-80305026D02*
X162218750Y-84100000D01*
X172268750Y-82660000D02*
X168348750Y-82660000D01*
X163878750Y-79140000D02*
X162568750Y-80450000D01*
X168253750Y-66980000D02*
X168568750Y-66665000D01*
D30*
X165133250Y-67860000D02*
X164263250Y-68730000D01*
D28*
X169638750Y-78830000D02*
X169168750Y-78360000D01*
X161173750Y-77269933D02*
X161173750Y-77543148D01*
X166278750Y-82960000D02*
X166278750Y-84530000D01*
X169638750Y-81130000D02*
X169638750Y-78830000D01*
X169083724Y-76760000D02*
X162978750Y-76760000D01*
X168288750Y-67370000D02*
X169408750Y-68490000D01*
X160728750Y-73220000D02*
X160728750Y-70800000D01*
X162326597Y-77110000D02*
X162307347Y-77129250D01*
X159485485Y-76375792D02*
X159219568Y-76375792D01*
X167130776Y-67370000D02*
X168288750Y-67370000D01*
D30*
X159498236Y-78190000D02*
X156548750Y-78190000D01*
D28*
X168348750Y-82660000D02*
X168118750Y-82890000D01*
X164694250Y-79324500D02*
X162918750Y-81100000D01*
X166619763Y-67881013D02*
X167130776Y-67370000D01*
X164694250Y-78716020D02*
X164694250Y-79324500D01*
X162523738Y-78365012D02*
X161868750Y-79020000D01*
X159219568Y-76375792D02*
X158333776Y-75490000D01*
X158418750Y-74450000D02*
X153668750Y-74450000D01*
X170247233Y-78418483D02*
X168938750Y-77110000D01*
X158478750Y-75140000D02*
X154318750Y-75140000D01*
X165555833Y-84442917D02*
X165538750Y-84460000D01*
X171053750Y-79475000D02*
X170998750Y-79420000D01*
X168938750Y-77110000D02*
X162326597Y-77110000D01*
X159148750Y-74790000D02*
X153988750Y-74790000D01*
X157858750Y-75910000D02*
X154898750Y-75910000D01*
X160728750Y-70800000D02*
X161979920Y-69548830D01*
X163878750Y-78860000D02*
X163878750Y-79140000D01*
X165899106Y-68540745D02*
X165899106Y-67788497D01*
X163247301Y-78264500D02*
X163247301Y-79276475D01*
X168568750Y-66665000D02*
X168568750Y-65260000D01*
D30*
X164263250Y-68730000D02*
X156278750Y-68730000D01*
D28*
X158333776Y-75490000D02*
X154698750Y-75490000D01*
D30*
X156188750Y-68820000D02*
X156278750Y-68730000D01*
D28*
X166707603Y-66980000D02*
X168253750Y-66980000D01*
X162568750Y-80450000D02*
X162568750Y-84140000D01*
D30*
X159506276Y-78181960D02*
X159498236Y-78190000D01*
D28*
X158843250Y-74025500D02*
X158418750Y-74450000D01*
X172298750Y-82630000D02*
X172298750Y-82360000D01*
X165268750Y-79420500D02*
X165093224Y-79420500D01*
X166278750Y-84530000D02*
X166288750Y-84540000D01*
X158884463Y-76935713D02*
X157858750Y-75910000D01*
X161979920Y-69548830D02*
X165650333Y-69548830D01*
X171948750Y-82010000D02*
X171948750Y-79472577D01*
X167468750Y-82463173D02*
X167468750Y-84480000D01*
D30*
X156548750Y-78190000D02*
X156238750Y-77880000D01*
D28*
X162978750Y-76760000D02*
X162728750Y-76510000D01*
X167878750Y-82053173D02*
X167468750Y-82463173D01*
X159678750Y-75600000D02*
X158938750Y-75600000D01*
X161168750Y-77548148D02*
X161168750Y-84400000D01*
X162028750Y-76510000D02*
X161615876Y-76922874D01*
X159838750Y-74025500D02*
X158843250Y-74025500D01*
X171948750Y-79472577D02*
X171874479Y-79398306D01*
X165555833Y-82587083D02*
X165555833Y-84442917D01*
X162728750Y-76510000D02*
X162028750Y-76510000D01*
X161173750Y-77543148D02*
X161168750Y-77548148D01*
D30*
X156188750Y-71530000D02*
X156188750Y-68820000D01*
D28*
X169408750Y-68490000D02*
X169408750Y-68520000D01*
X170998750Y-78675026D02*
X169083724Y-76760000D01*
X161518750Y-77917847D02*
X161518750Y-84255026D01*
X172298750Y-82630000D02*
X172268750Y-82660000D01*
X170998750Y-79420000D02*
X170998750Y-78675026D01*
D29*
X162228783Y-70555466D02*
X163114216Y-70555466D01*
D28*
X170268750Y-81760000D02*
X169638750Y-81130000D01*
X162918750Y-81100000D02*
X162918750Y-84150000D01*
X160823750Y-77398173D02*
X160818750Y-77403173D01*
X162307347Y-77129250D02*
X161518750Y-77917847D01*
X170247233Y-79923983D02*
X170247233Y-78418483D01*
X167878750Y-82040000D02*
X167878750Y-82053173D01*
X161615876Y-76922874D02*
X161520809Y-76922874D01*
X159168750Y-74770000D02*
X159148750Y-74790000D01*
X165899106Y-67788497D02*
X166707603Y-66980000D01*
X161520809Y-76922874D02*
X161173750Y-77269933D01*
X165093224Y-79420500D02*
X163268750Y-81244974D01*
%TD*%
M02*
