%TF.GenerationSoftware,KiCad,Pcbnew,7.0.2*%
%TF.CreationDate,2023-05-21T15:20:29+02:00*%
%TF.ProjectId,5V DC Smart Socket,35562044-4320-4536-9d61-727420536f63,rev?*%
%TF.SameCoordinates,Original*%
%TF.FileFunction,Paste,Bot*%
%TF.FilePolarity,Positive*%
%FSLAX46Y46*%
G04 Gerber Fmt 4.6, Leading zero omitted, Abs format (unit mm)*
G04 Created by KiCad (PCBNEW 7.0.2) date 2023-05-21 15:20:29*
%MOMM*%
%LPD*%
G01*
G04 APERTURE LIST*
G04 Aperture macros list*
%AMRoundRect*
0 Rectangle with rounded corners*
0 $1 Rounding radius*
0 $2 $3 $4 $5 $6 $7 $8 $9 X,Y pos of 4 corners*
0 Add a 4 corners polygon primitive as box body*
4,1,4,$2,$3,$4,$5,$6,$7,$8,$9,$2,$3,0*
0 Add four circle primitives for the rounded corners*
1,1,$1+$1,$2,$3*
1,1,$1+$1,$4,$5*
1,1,$1+$1,$6,$7*
1,1,$1+$1,$8,$9*
0 Add four rect primitives between the rounded corners*
20,1,$1+$1,$2,$3,$4,$5,0*
20,1,$1+$1,$4,$5,$6,$7,0*
20,1,$1+$1,$6,$7,$8,$9,0*
20,1,$1+$1,$8,$9,$2,$3,0*%
G04 Aperture macros list end*
%ADD10RoundRect,0.250000X-0.262500X-0.450000X0.262500X-0.450000X0.262500X0.450000X-0.262500X0.450000X0*%
%ADD11RoundRect,0.250000X0.262500X0.450000X-0.262500X0.450000X-0.262500X-0.450000X0.262500X-0.450000X0*%
%ADD12RoundRect,0.225000X0.250000X-0.225000X0.250000X0.225000X-0.250000X0.225000X-0.250000X-0.225000X0*%
%ADD13RoundRect,0.218750X0.381250X-0.218750X0.381250X0.218750X-0.381250X0.218750X-0.381250X-0.218750X0*%
%ADD14RoundRect,0.225000X0.225000X0.250000X-0.225000X0.250000X-0.225000X-0.250000X0.225000X-0.250000X0*%
%ADD15RoundRect,0.150000X0.587500X0.150000X-0.587500X0.150000X-0.587500X-0.150000X0.587500X-0.150000X0*%
%ADD16RoundRect,0.225000X-0.250000X0.225000X-0.250000X-0.225000X0.250000X-0.225000X0.250000X0.225000X0*%
%ADD17RoundRect,0.225000X-0.225000X-0.250000X0.225000X-0.250000X0.225000X0.250000X-0.225000X0.250000X0*%
%ADD18RoundRect,0.150000X-0.587500X-0.150000X0.587500X-0.150000X0.587500X0.150000X-0.587500X0.150000X0*%
%ADD19RoundRect,0.250000X0.450000X-0.262500X0.450000X0.262500X-0.450000X0.262500X-0.450000X-0.262500X0*%
%ADD20RoundRect,0.250000X0.315000X-0.315000X0.315000X0.315000X-0.315000X0.315000X-0.315000X-0.315000X0*%
%ADD21RoundRect,0.050000X0.050000X-0.387500X0.050000X0.387500X-0.050000X0.387500X-0.050000X-0.387500X0*%
%ADD22RoundRect,0.050000X0.387500X-0.050000X0.387500X0.050000X-0.387500X0.050000X-0.387500X-0.050000X0*%
%ADD23R,1.400000X2.100000*%
%ADD24R,1.000000X1.300000*%
G04 APERTURE END LIST*
D10*
%TO.C,MR4*%
X238387500Y-63520000D03*
X240212500Y-63520000D03*
%TD*%
D11*
%TO.C,MR3*%
X242072500Y-65470000D03*
X240247500Y-65470000D03*
%TD*%
%TO.C,MR2*%
X221622500Y-66370000D03*
X219797500Y-66370000D03*
%TD*%
D10*
%TO.C,MR1*%
X219867500Y-64290000D03*
X221692500Y-64290000D03*
%TD*%
D12*
%TO.C,EC10*%
X235230000Y-88575000D03*
X235230000Y-87025000D03*
%TD*%
D13*
%TO.C,EL1*%
X237810000Y-89192500D03*
X237810000Y-87067500D03*
%TD*%
D14*
%TO.C,EC13*%
X237565000Y-85150000D03*
X236015000Y-85150000D03*
%TD*%
D15*
%TO.C,MTRT2*%
X220960000Y-77810000D03*
X220960000Y-79710000D03*
X219085000Y-78760000D03*
%TD*%
D14*
%TO.C,EC17*%
X226205000Y-73160000D03*
X224655000Y-73160000D03*
%TD*%
D16*
%TO.C,EC21*%
X248330000Y-71265000D03*
X248330000Y-72815000D03*
%TD*%
D17*
%TO.C,EC19*%
X246545000Y-74410000D03*
X248095000Y-74410000D03*
%TD*%
D18*
%TO.C,MTRT1*%
X251160000Y-77440000D03*
X251160000Y-75540000D03*
X253035000Y-76490000D03*
%TD*%
D19*
%TO.C,MTRR1*%
X251290000Y-80980000D03*
X251290000Y-79155000D03*
%TD*%
D20*
%TO.C,ESP32S1*%
X233120000Y-72160000D03*
X234520000Y-72160000D03*
X235920000Y-72160000D03*
X237320000Y-72160000D03*
X233120000Y-70760000D03*
X234520000Y-70760000D03*
X235920000Y-70760000D03*
X237320000Y-70760000D03*
X233120000Y-69360000D03*
X234520000Y-69360000D03*
X235920000Y-69360000D03*
X237320000Y-69360000D03*
X233120000Y-67960000D03*
X234520000Y-67960000D03*
X235920000Y-67960000D03*
X237320000Y-67960000D03*
D21*
X237820000Y-73497500D03*
X237420000Y-73497500D03*
X237020000Y-73497500D03*
X236620000Y-73497500D03*
X236220000Y-73497500D03*
X235820000Y-73497500D03*
X235420000Y-73497500D03*
X235020000Y-73497500D03*
X234620000Y-73497500D03*
X234220000Y-73497500D03*
X233820000Y-73497500D03*
X233420000Y-73497500D03*
X233020000Y-73497500D03*
X232620000Y-73497500D03*
D22*
X231782500Y-72660000D03*
X231782500Y-72260000D03*
X231782500Y-71860000D03*
X231782500Y-71460000D03*
X231782500Y-71060000D03*
X231782500Y-70660000D03*
X231782500Y-70260000D03*
X231782500Y-69860000D03*
X231782500Y-69460000D03*
X231782500Y-69060000D03*
X231782500Y-68660000D03*
X231782500Y-68260000D03*
X231782500Y-67860000D03*
X231782500Y-67460000D03*
D21*
X232620000Y-66622500D03*
X233020000Y-66622500D03*
X233420000Y-66622500D03*
X233820000Y-66622500D03*
X234220000Y-66622500D03*
X234620000Y-66622500D03*
X235020000Y-66622500D03*
X235420000Y-66622500D03*
X235820000Y-66622500D03*
X236220000Y-66622500D03*
X236620000Y-66622500D03*
X237020000Y-66622500D03*
X237420000Y-66622500D03*
X237820000Y-66622500D03*
D22*
X238657500Y-67460000D03*
X238657500Y-67860000D03*
X238657500Y-68260000D03*
X238657500Y-68660000D03*
X238657500Y-69060000D03*
X238657500Y-69460000D03*
X238657500Y-69860000D03*
X238657500Y-70260000D03*
X238657500Y-70660000D03*
X238657500Y-71060000D03*
X238657500Y-71460000D03*
X238657500Y-71860000D03*
X238657500Y-72260000D03*
X238657500Y-72660000D03*
%TD*%
D14*
%TO.C,EC18*%
X226315000Y-67380000D03*
X224765000Y-67380000D03*
%TD*%
D23*
%TO.C,ANT1*%
X241080000Y-93110000D03*
X231580000Y-93110000D03*
%TD*%
D24*
%TO.C,ECY1*%
X224740000Y-71350000D03*
X224740000Y-69150000D03*
X226540000Y-69150000D03*
X226540000Y-71350000D03*
%TD*%
D10*
%TO.C,MTRR2*%
X218207500Y-75320000D03*
X220032500Y-75320000D03*
%TD*%
D24*
%TO.C,ECY2*%
X244810000Y-72580000D03*
X244810000Y-70380000D03*
X246610000Y-70380000D03*
X246610000Y-72580000D03*
%TD*%
M02*
