M48
; DRILL file {KiCad 7.0.2} date Wed May 17 08:13:26 2023
; FORMAT={-:-/ absolute / inch / decimal}
; #@! TF.CreationDate,2023-05-17T08:13:26+02:00
; #@! TF.GenerationSoftware,Kicad,Pcbnew,7.0.2
; #@! TF.FileFunction,Plated,1,2,PTH
FMAT,2
INCH
; #@! TA.AperFunction,Plated,PTH,ViaDrill
T1C0.0157
; #@! TA.AperFunction,Plated,PTH,ComponentDrill
T2C0.0354
; #@! TA.AperFunction,Plated,PTH,ComponentDrill
T3C0.0362
; #@! TA.AperFunction,Plated,PTH,ComponentDrill
T4C0.0512
; #@! TA.AperFunction,Plated,PTH,ComponentDrill
T5C0.0906
%
G90
G05
T1
X6.1476Y-3.0661
X6.1492Y-2.8161
X6.1527Y-2.7059
X6.2038Y-3.148
X6.2665Y-2.9437
X6.279Y-3.0069
X6.283Y-3.0764
X6.2866Y-2.9764
X6.2929Y-2.9144
X6.309Y-3.0253
X6.3279Y-2.8827
X6.3591Y-3.0285
X6.3612Y-2.9943
X6.387Y-2.7778
X6.3901Y-3.0366
X6.3986Y-3.0675
X6.4271Y-3.0813
X6.4519Y-3.1047
X6.4799Y-2.8358
X6.484Y-3.0991
X6.4988Y-3.1811
X6.5013Y-2.6717
X6.5066Y-3.1268
X6.5179Y-3.2515
X6.5203Y-2.7334
X6.5315Y-2.6985
X6.5464Y-3.2661
X6.5598Y-2.6725
X6.572Y-3.2358
X6.5956Y-2.6768
X6.6055Y-2.7083
X6.6094Y-3.2299
X6.6188Y-3.2634
X6.6602Y-3.085
X6.6696Y-2.6976
X6.6708Y-2.5685
X6.7035Y-3.2189
X6.7066Y-3.15
X6.7344Y-3.1289
X6.7667Y-3.1259
X6.7834Y-3.2531
T2
X6.6106Y-3.522
X6.6106Y-3.607
X6.6106Y-3.692
X6.6106Y-3.777
T3
X6.0823Y-3.3583
X6.1807Y-3.3583
X6.2594Y-3.3583
X6.3579Y-3.3583
X6.8614Y-3.3575
X6.9598Y-3.3575
X7.0386Y-3.3575
X7.137Y-3.3575
T4
X6.4909Y-2.4461
X6.6287Y-2.4461
T5
X5.9614Y-3.465
X6.4787Y-3.465
X6.7406Y-3.4642
X7.2579Y-3.4642
T0
M30
