%TF.GenerationSoftware,KiCad,Pcbnew,7.0.2*%
%TF.CreationDate,2023-05-21T15:20:31+02:00*%
%TF.ProjectId,5V DC Smart Socket,35562044-4320-4536-9d61-727420536f63,rev?*%
%TF.SameCoordinates,Original*%
%TF.FileFunction,Drillmap*%
%TF.FilePolarity,Positive*%
%FSLAX45Y45*%
G04 Gerber Fmt 4.5, Leading zero omitted, Abs format (unit mm)*
G04 Created by KiCad (PCBNEW 7.0.2) date 2023-05-21 15:20:31*
%MOMM*%
%LPD*%
G01*
G04 APERTURE LIST*
%ADD10C,0.100000*%
%ADD11C,0.200000*%
%ADD12C,0.040000*%
%ADD13C,0.090000*%
%ADD14C,0.092000*%
%ADD15C,0.130000*%
%ADD16C,0.230000*%
G04 APERTURE END LIST*
D10*
X21586900Y-5625000D02*
X25686900Y-5625000D01*
X25686900Y-9436000D01*
X21586900Y-9436000D01*
X21586900Y-5625000D01*
D11*
D12*
X21837000Y-6975000D02*
X21877000Y-7015000D01*
X21877000Y-6975000D02*
X21837000Y-7015000D01*
X21858000Y-7718000D02*
X21898000Y-7758000D01*
X21898000Y-7718000D02*
X21858000Y-7758000D01*
X22021000Y-6230000D02*
X22061000Y-6270000D01*
X22061000Y-6230000D02*
X22021000Y-6270000D01*
X22091000Y-7630000D02*
X22131000Y-7670000D01*
X22131000Y-7630000D02*
X22091000Y-7670000D01*
X22193000Y-6974000D02*
X22233000Y-7014000D01*
X22233000Y-6974000D02*
X22193000Y-7014000D01*
X22194000Y-6867000D02*
X22234000Y-6907000D01*
X22234000Y-6867000D02*
X22194000Y-6907000D01*
X22306000Y-7190000D02*
X22346000Y-7230000D01*
X22346000Y-7190000D02*
X22306000Y-7230000D01*
X22394000Y-6284000D02*
X22434000Y-6324000D01*
X22434000Y-6284000D02*
X22394000Y-6324000D01*
X22444000Y-7618000D02*
X22484000Y-7658000D01*
X22484000Y-7618000D02*
X22444000Y-7658000D01*
X22837000Y-7073450D02*
X22877000Y-7113450D01*
X22877000Y-7073450D02*
X22837000Y-7113450D01*
X22875000Y-7634000D02*
X22915000Y-7674000D01*
X22915000Y-7634000D02*
X22875000Y-7674000D01*
X22877000Y-6899000D02*
X22917000Y-6939000D01*
X22917000Y-6899000D02*
X22877000Y-6939000D01*
X22945000Y-7128000D02*
X22985000Y-7168000D01*
X22985000Y-7128000D02*
X22945000Y-7168000D01*
X22971000Y-7826000D02*
X23011000Y-7866000D01*
X23011000Y-7826000D02*
X22971000Y-7866000D01*
X23037000Y-6687000D02*
X23077000Y-6727000D01*
X23077000Y-6687000D02*
X23037000Y-6727000D01*
X23082000Y-8194000D02*
X23122000Y-8234000D01*
X23122000Y-8194000D02*
X23082000Y-8234000D01*
X23113000Y-7787000D02*
X23153000Y-7827000D01*
X23153000Y-7787000D02*
X23113000Y-7827000D01*
X23358000Y-7503000D02*
X23398000Y-7543000D01*
X23398000Y-7503000D02*
X23358000Y-7543000D01*
X23368000Y-8295000D02*
X23408000Y-8335000D01*
X23408000Y-8295000D02*
X23368000Y-8335000D01*
X23381000Y-8507000D02*
X23421000Y-8547000D01*
X23421000Y-8507000D02*
X23381000Y-8547000D01*
X23427000Y-7924000D02*
X23467000Y-7964000D01*
X23467000Y-7924000D02*
X23427000Y-7964000D01*
X23440000Y-8363000D02*
X23480000Y-8403000D01*
X23480000Y-8363000D02*
X23440000Y-8403000D01*
X23458000Y-7483000D02*
X23498000Y-7523000D01*
X23498000Y-7483000D02*
X23458000Y-7523000D01*
X23533000Y-7909550D02*
X23573000Y-7949550D01*
X23573000Y-7909550D02*
X23533000Y-7949550D01*
X23557000Y-7500000D02*
X23597000Y-7540000D01*
X23597000Y-7500000D02*
X23557000Y-7540000D01*
X23661000Y-7523000D02*
X23701000Y-7563000D01*
X23701000Y-7523000D02*
X23661000Y-7563000D01*
X23684000Y-7788000D02*
X23724000Y-7828000D01*
X23724000Y-7788000D02*
X23684000Y-7828000D01*
X23908000Y-7723000D02*
X23948000Y-7763000D01*
X23948000Y-7723000D02*
X23908000Y-7763000D01*
X23917000Y-8353000D02*
X23957000Y-8393000D01*
X23957000Y-8353000D02*
X23917000Y-8393000D01*
X23928000Y-8204000D02*
X23968000Y-8244000D01*
X23968000Y-8204000D02*
X23928000Y-8244000D01*
X23971000Y-6850000D02*
X24011000Y-6890000D01*
X24011000Y-6850000D02*
X23971000Y-6890000D01*
X24018000Y-8028000D02*
X24058000Y-8068000D01*
X24058000Y-8028000D02*
X24018000Y-8068000D01*
X24057000Y-7254000D02*
X24097000Y-7294000D01*
X24097000Y-7254000D02*
X24057000Y-7294000D01*
X24084000Y-7013000D02*
X24124000Y-7053000D01*
X24124000Y-7013000D02*
X24084000Y-7053000D01*
X24186000Y-7783000D02*
X24226000Y-7823000D01*
X24226000Y-7783000D02*
X24186000Y-7823000D01*
X24186000Y-8013450D02*
X24226000Y-8053450D01*
X24226000Y-8013450D02*
X24186000Y-8053450D01*
X24189000Y-7026000D02*
X24229000Y-7066000D01*
X24229000Y-7026000D02*
X24189000Y-7066000D01*
X24197000Y-6306000D02*
X24237000Y-6346000D01*
X24237000Y-6306000D02*
X24197000Y-6346000D01*
X24219000Y-6778000D02*
X24259000Y-6818000D01*
X24259000Y-6778000D02*
X24219000Y-6818000D01*
X24283000Y-7362000D02*
X24323000Y-7402000D01*
X24323000Y-7362000D02*
X24283000Y-7402000D01*
X24283497Y-6965497D02*
X24323497Y-7005497D01*
X24323497Y-6965497D02*
X24283497Y-7005497D01*
X24476000Y-6863000D02*
X24516000Y-6903000D01*
X24516000Y-6863000D02*
X24476000Y-6903000D01*
X24507000Y-6540000D02*
X24547000Y-6580000D01*
X24547000Y-6540000D02*
X24507000Y-6580000D01*
X24836000Y-5676000D02*
X24876000Y-5716000D01*
X24876000Y-5676000D02*
X24836000Y-5716000D01*
X24880000Y-6659000D02*
X24920000Y-6699000D01*
X24920000Y-6659000D02*
X24880000Y-6699000D01*
X24908000Y-7911000D02*
X24948000Y-7951000D01*
X24948000Y-7911000D02*
X24908000Y-7951000D01*
X24914000Y-7432000D02*
X24954000Y-7472000D01*
X24954000Y-7432000D02*
X24914000Y-7472000D01*
X25015000Y-6659000D02*
X25055000Y-6699000D01*
X25055000Y-6659000D02*
X25015000Y-6699000D01*
X25041000Y-7625000D02*
X25081000Y-7665000D01*
X25081000Y-7625000D02*
X25041000Y-7665000D01*
X25047000Y-7261000D02*
X25087000Y-7301000D01*
X25087000Y-7261000D02*
X25047000Y-7301000D01*
X25060000Y-6019000D02*
X25100000Y-6059000D01*
X25100000Y-6019000D02*
X25060000Y-6059000D01*
X25455000Y-5993000D02*
X25495000Y-6033000D01*
X25495000Y-5993000D02*
X25455000Y-6033000D01*
D13*
X23441000Y-8118000D02*
G75*
G03*
X23441000Y-8118000I-45000J0D01*
G01*
X23695000Y-8118000D02*
G75*
G03*
X23695000Y-8118000I-45000J0D01*
G01*
D14*
X22125000Y-8319000D02*
X22125000Y-8411000D01*
X22079000Y-8365000D02*
X22171000Y-8365000D01*
X22375000Y-8319000D02*
X22375000Y-8411000D01*
X22329000Y-8365000D02*
X22421000Y-8365000D01*
X22575000Y-8319000D02*
X22575000Y-8411000D01*
X22529000Y-8365000D02*
X22621000Y-8365000D01*
X22825000Y-8319000D02*
X22825000Y-8411000D01*
X22779000Y-8365000D02*
X22871000Y-8365000D01*
X24441000Y-8310250D02*
X24441000Y-8402250D01*
X24395000Y-8356250D02*
X24487000Y-8356250D01*
X24691000Y-8310250D02*
X24691000Y-8402250D01*
X24645000Y-8356250D02*
X24737000Y-8356250D01*
X24891000Y-8310250D02*
X24891000Y-8402250D01*
X24845000Y-8356250D02*
X24937000Y-8356250D01*
X25141000Y-8310250D02*
X25141000Y-8402250D01*
X25095000Y-8356250D02*
X25187000Y-8356250D01*
D15*
X23182962Y-6043962D02*
X23182962Y-5952038D01*
X23091038Y-5952038D01*
X23091038Y-6043962D01*
X23182962Y-6043962D01*
X23532962Y-6043962D02*
X23532962Y-5952038D01*
X23441038Y-5952038D01*
X23441038Y-6043962D01*
X23532962Y-6043962D01*
X24087962Y-6042962D02*
X24087962Y-5951038D01*
X23996038Y-5951038D01*
X23996038Y-6042962D01*
X24087962Y-6042962D01*
X24437962Y-6042962D02*
X24437962Y-5951038D01*
X24346038Y-5951038D01*
X24346038Y-6042962D01*
X24437962Y-6042962D01*
D16*
X21818000Y-8751000D02*
X21933000Y-8636000D01*
X21818000Y-8521000D01*
X21703000Y-8636000D01*
X21818000Y-8751000D01*
X23132000Y-8751000D02*
X23247000Y-8636000D01*
X23132000Y-8521000D01*
X23017000Y-8636000D01*
X23132000Y-8751000D01*
X24134000Y-8742250D02*
X24249000Y-8627250D01*
X24134000Y-8512250D01*
X24019000Y-8627250D01*
X24134000Y-8742250D01*
X25448000Y-8742250D02*
X25563000Y-8627250D01*
X25448000Y-8512250D01*
X25333000Y-8627250D01*
X25448000Y-8742250D01*
D11*
X21829519Y-9753524D02*
X21829519Y-9553524D01*
X21829519Y-9553524D02*
X21877138Y-9553524D01*
X21877138Y-9553524D02*
X21905710Y-9563048D01*
X21905710Y-9563048D02*
X21924757Y-9582095D01*
X21924757Y-9582095D02*
X21934281Y-9601143D01*
X21934281Y-9601143D02*
X21943805Y-9639238D01*
X21943805Y-9639238D02*
X21943805Y-9667810D01*
X21943805Y-9667810D02*
X21934281Y-9705905D01*
X21934281Y-9705905D02*
X21924757Y-9724952D01*
X21924757Y-9724952D02*
X21905710Y-9744000D01*
X21905710Y-9744000D02*
X21877138Y-9753524D01*
X21877138Y-9753524D02*
X21829519Y-9753524D01*
X22029519Y-9753524D02*
X22029519Y-9620190D01*
X22029519Y-9658286D02*
X22039043Y-9639238D01*
X22039043Y-9639238D02*
X22048567Y-9629714D01*
X22048567Y-9629714D02*
X22067614Y-9620190D01*
X22067614Y-9620190D02*
X22086662Y-9620190D01*
X22153329Y-9753524D02*
X22153329Y-9620190D01*
X22153329Y-9553524D02*
X22143805Y-9563048D01*
X22143805Y-9563048D02*
X22153329Y-9572571D01*
X22153329Y-9572571D02*
X22162852Y-9563048D01*
X22162852Y-9563048D02*
X22153329Y-9553524D01*
X22153329Y-9553524D02*
X22153329Y-9572571D01*
X22277138Y-9753524D02*
X22258090Y-9744000D01*
X22258090Y-9744000D02*
X22248567Y-9724952D01*
X22248567Y-9724952D02*
X22248567Y-9553524D01*
X22381900Y-9753524D02*
X22362852Y-9744000D01*
X22362852Y-9744000D02*
X22353329Y-9724952D01*
X22353329Y-9724952D02*
X22353329Y-9553524D01*
X22610471Y-9753524D02*
X22610471Y-9553524D01*
X22610471Y-9553524D02*
X22677138Y-9696381D01*
X22677138Y-9696381D02*
X22743805Y-9553524D01*
X22743805Y-9553524D02*
X22743805Y-9753524D01*
X22924757Y-9753524D02*
X22924757Y-9648762D01*
X22924757Y-9648762D02*
X22915233Y-9629714D01*
X22915233Y-9629714D02*
X22896186Y-9620190D01*
X22896186Y-9620190D02*
X22858090Y-9620190D01*
X22858090Y-9620190D02*
X22839043Y-9629714D01*
X22924757Y-9744000D02*
X22905709Y-9753524D01*
X22905709Y-9753524D02*
X22858090Y-9753524D01*
X22858090Y-9753524D02*
X22839043Y-9744000D01*
X22839043Y-9744000D02*
X22829519Y-9724952D01*
X22829519Y-9724952D02*
X22829519Y-9705905D01*
X22829519Y-9705905D02*
X22839043Y-9686857D01*
X22839043Y-9686857D02*
X22858090Y-9677333D01*
X22858090Y-9677333D02*
X22905709Y-9677333D01*
X22905709Y-9677333D02*
X22924757Y-9667810D01*
X23019995Y-9620190D02*
X23019995Y-9820190D01*
X23019995Y-9629714D02*
X23039043Y-9620190D01*
X23039043Y-9620190D02*
X23077138Y-9620190D01*
X23077138Y-9620190D02*
X23096186Y-9629714D01*
X23096186Y-9629714D02*
X23105709Y-9639238D01*
X23105709Y-9639238D02*
X23115233Y-9658286D01*
X23115233Y-9658286D02*
X23115233Y-9715429D01*
X23115233Y-9715429D02*
X23105709Y-9734476D01*
X23105709Y-9734476D02*
X23096186Y-9744000D01*
X23096186Y-9744000D02*
X23077138Y-9753524D01*
X23077138Y-9753524D02*
X23039043Y-9753524D01*
X23039043Y-9753524D02*
X23019995Y-9744000D01*
X23200948Y-9734476D02*
X23210471Y-9744000D01*
X23210471Y-9744000D02*
X23200948Y-9753524D01*
X23200948Y-9753524D02*
X23191424Y-9744000D01*
X23191424Y-9744000D02*
X23200948Y-9734476D01*
X23200948Y-9734476D02*
X23200948Y-9753524D01*
X23200948Y-9629714D02*
X23210471Y-9639238D01*
X23210471Y-9639238D02*
X23200948Y-9648762D01*
X23200948Y-9648762D02*
X23191424Y-9639238D01*
X23191424Y-9639238D02*
X23200948Y-9629714D01*
X23200948Y-9629714D02*
X23200948Y-9648762D01*
D12*
X21541900Y-10061000D02*
X21581900Y-10101000D01*
X21581900Y-10061000D02*
X21541900Y-10101000D01*
D11*
X21867614Y-9973524D02*
X21886662Y-9973524D01*
X21886662Y-9973524D02*
X21905710Y-9983048D01*
X21905710Y-9983048D02*
X21915233Y-9992571D01*
X21915233Y-9992571D02*
X21924757Y-10011619D01*
X21924757Y-10011619D02*
X21934281Y-10049714D01*
X21934281Y-10049714D02*
X21934281Y-10097333D01*
X21934281Y-10097333D02*
X21924757Y-10135429D01*
X21924757Y-10135429D02*
X21915233Y-10154476D01*
X21915233Y-10154476D02*
X21905710Y-10164000D01*
X21905710Y-10164000D02*
X21886662Y-10173524D01*
X21886662Y-10173524D02*
X21867614Y-10173524D01*
X21867614Y-10173524D02*
X21848567Y-10164000D01*
X21848567Y-10164000D02*
X21839043Y-10154476D01*
X21839043Y-10154476D02*
X21829519Y-10135429D01*
X21829519Y-10135429D02*
X21819995Y-10097333D01*
X21819995Y-10097333D02*
X21819995Y-10049714D01*
X21819995Y-10049714D02*
X21829519Y-10011619D01*
X21829519Y-10011619D02*
X21839043Y-9992571D01*
X21839043Y-9992571D02*
X21848567Y-9983048D01*
X21848567Y-9983048D02*
X21867614Y-9973524D01*
X22019995Y-10154476D02*
X22029519Y-10164000D01*
X22029519Y-10164000D02*
X22019995Y-10173524D01*
X22019995Y-10173524D02*
X22010471Y-10164000D01*
X22010471Y-10164000D02*
X22019995Y-10154476D01*
X22019995Y-10154476D02*
X22019995Y-10173524D01*
X22200948Y-10040190D02*
X22200948Y-10173524D01*
X22153329Y-9964000D02*
X22105710Y-10106857D01*
X22105710Y-10106857D02*
X22229519Y-10106857D01*
X22343805Y-9973524D02*
X22362852Y-9973524D01*
X22362852Y-9973524D02*
X22381900Y-9983048D01*
X22381900Y-9983048D02*
X22391424Y-9992571D01*
X22391424Y-9992571D02*
X22400948Y-10011619D01*
X22400948Y-10011619D02*
X22410471Y-10049714D01*
X22410471Y-10049714D02*
X22410471Y-10097333D01*
X22410471Y-10097333D02*
X22400948Y-10135429D01*
X22400948Y-10135429D02*
X22391424Y-10154476D01*
X22391424Y-10154476D02*
X22381900Y-10164000D01*
X22381900Y-10164000D02*
X22362852Y-10173524D01*
X22362852Y-10173524D02*
X22343805Y-10173524D01*
X22343805Y-10173524D02*
X22324757Y-10164000D01*
X22324757Y-10164000D02*
X22315233Y-10154476D01*
X22315233Y-10154476D02*
X22305710Y-10135429D01*
X22305710Y-10135429D02*
X22296186Y-10097333D01*
X22296186Y-10097333D02*
X22296186Y-10049714D01*
X22296186Y-10049714D02*
X22305710Y-10011619D01*
X22305710Y-10011619D02*
X22315233Y-9992571D01*
X22315233Y-9992571D02*
X22324757Y-9983048D01*
X22324757Y-9983048D02*
X22343805Y-9973524D01*
X22534281Y-9973524D02*
X22553329Y-9973524D01*
X22553329Y-9973524D02*
X22572376Y-9983048D01*
X22572376Y-9983048D02*
X22581900Y-9992571D01*
X22581900Y-9992571D02*
X22591424Y-10011619D01*
X22591424Y-10011619D02*
X22600948Y-10049714D01*
X22600948Y-10049714D02*
X22600948Y-10097333D01*
X22600948Y-10097333D02*
X22591424Y-10135429D01*
X22591424Y-10135429D02*
X22581900Y-10154476D01*
X22581900Y-10154476D02*
X22572376Y-10164000D01*
X22572376Y-10164000D02*
X22553329Y-10173524D01*
X22553329Y-10173524D02*
X22534281Y-10173524D01*
X22534281Y-10173524D02*
X22515233Y-10164000D01*
X22515233Y-10164000D02*
X22505709Y-10154476D01*
X22505709Y-10154476D02*
X22496186Y-10135429D01*
X22496186Y-10135429D02*
X22486662Y-10097333D01*
X22486662Y-10097333D02*
X22486662Y-10049714D01*
X22486662Y-10049714D02*
X22496186Y-10011619D01*
X22496186Y-10011619D02*
X22505709Y-9992571D01*
X22505709Y-9992571D02*
X22515233Y-9983048D01*
X22515233Y-9983048D02*
X22534281Y-9973524D01*
X22686662Y-10173524D02*
X22686662Y-10040190D01*
X22686662Y-10059238D02*
X22696186Y-10049714D01*
X22696186Y-10049714D02*
X22715233Y-10040190D01*
X22715233Y-10040190D02*
X22743805Y-10040190D01*
X22743805Y-10040190D02*
X22762852Y-10049714D01*
X22762852Y-10049714D02*
X22772376Y-10068762D01*
X22772376Y-10068762D02*
X22772376Y-10173524D01*
X22772376Y-10068762D02*
X22781900Y-10049714D01*
X22781900Y-10049714D02*
X22800948Y-10040190D01*
X22800948Y-10040190D02*
X22829519Y-10040190D01*
X22829519Y-10040190D02*
X22848567Y-10049714D01*
X22848567Y-10049714D02*
X22858090Y-10068762D01*
X22858090Y-10068762D02*
X22858090Y-10173524D01*
X22953329Y-10173524D02*
X22953329Y-10040190D01*
X22953329Y-10059238D02*
X22962852Y-10049714D01*
X22962852Y-10049714D02*
X22981900Y-10040190D01*
X22981900Y-10040190D02*
X23010471Y-10040190D01*
X23010471Y-10040190D02*
X23029519Y-10049714D01*
X23029519Y-10049714D02*
X23039043Y-10068762D01*
X23039043Y-10068762D02*
X23039043Y-10173524D01*
X23039043Y-10068762D02*
X23048567Y-10049714D01*
X23048567Y-10049714D02*
X23067614Y-10040190D01*
X23067614Y-10040190D02*
X23096186Y-10040190D01*
X23096186Y-10040190D02*
X23115233Y-10049714D01*
X23115233Y-10049714D02*
X23124757Y-10068762D01*
X23124757Y-10068762D02*
X23124757Y-10173524D01*
X23515233Y-9964000D02*
X23343805Y-10221143D01*
X23772376Y-9973524D02*
X23791424Y-9973524D01*
X23791424Y-9973524D02*
X23810472Y-9983048D01*
X23810472Y-9983048D02*
X23819995Y-9992571D01*
X23819995Y-9992571D02*
X23829519Y-10011619D01*
X23829519Y-10011619D02*
X23839043Y-10049714D01*
X23839043Y-10049714D02*
X23839043Y-10097333D01*
X23839043Y-10097333D02*
X23829519Y-10135429D01*
X23829519Y-10135429D02*
X23819995Y-10154476D01*
X23819995Y-10154476D02*
X23810472Y-10164000D01*
X23810472Y-10164000D02*
X23791424Y-10173524D01*
X23791424Y-10173524D02*
X23772376Y-10173524D01*
X23772376Y-10173524D02*
X23753329Y-10164000D01*
X23753329Y-10164000D02*
X23743805Y-10154476D01*
X23743805Y-10154476D02*
X23734281Y-10135429D01*
X23734281Y-10135429D02*
X23724757Y-10097333D01*
X23724757Y-10097333D02*
X23724757Y-10049714D01*
X23724757Y-10049714D02*
X23734281Y-10011619D01*
X23734281Y-10011619D02*
X23743805Y-9992571D01*
X23743805Y-9992571D02*
X23753329Y-9983048D01*
X23753329Y-9983048D02*
X23772376Y-9973524D01*
X23924757Y-10154476D02*
X23934281Y-10164000D01*
X23934281Y-10164000D02*
X23924757Y-10173524D01*
X23924757Y-10173524D02*
X23915233Y-10164000D01*
X23915233Y-10164000D02*
X23924757Y-10154476D01*
X23924757Y-10154476D02*
X23924757Y-10173524D01*
X24058091Y-9973524D02*
X24077138Y-9973524D01*
X24077138Y-9973524D02*
X24096186Y-9983048D01*
X24096186Y-9983048D02*
X24105710Y-9992571D01*
X24105710Y-9992571D02*
X24115233Y-10011619D01*
X24115233Y-10011619D02*
X24124757Y-10049714D01*
X24124757Y-10049714D02*
X24124757Y-10097333D01*
X24124757Y-10097333D02*
X24115233Y-10135429D01*
X24115233Y-10135429D02*
X24105710Y-10154476D01*
X24105710Y-10154476D02*
X24096186Y-10164000D01*
X24096186Y-10164000D02*
X24077138Y-10173524D01*
X24077138Y-10173524D02*
X24058091Y-10173524D01*
X24058091Y-10173524D02*
X24039043Y-10164000D01*
X24039043Y-10164000D02*
X24029519Y-10154476D01*
X24029519Y-10154476D02*
X24019995Y-10135429D01*
X24019995Y-10135429D02*
X24010472Y-10097333D01*
X24010472Y-10097333D02*
X24010472Y-10049714D01*
X24010472Y-10049714D02*
X24019995Y-10011619D01*
X24019995Y-10011619D02*
X24029519Y-9992571D01*
X24029519Y-9992571D02*
X24039043Y-9983048D01*
X24039043Y-9983048D02*
X24058091Y-9973524D01*
X24315233Y-10173524D02*
X24200948Y-10173524D01*
X24258091Y-10173524D02*
X24258091Y-9973524D01*
X24258091Y-9973524D02*
X24239043Y-10002095D01*
X24239043Y-10002095D02*
X24219995Y-10021143D01*
X24219995Y-10021143D02*
X24200948Y-10030667D01*
X24496186Y-9973524D02*
X24400948Y-9973524D01*
X24400948Y-9973524D02*
X24391424Y-10068762D01*
X24391424Y-10068762D02*
X24400948Y-10059238D01*
X24400948Y-10059238D02*
X24419995Y-10049714D01*
X24419995Y-10049714D02*
X24467614Y-10049714D01*
X24467614Y-10049714D02*
X24486662Y-10059238D01*
X24486662Y-10059238D02*
X24496186Y-10068762D01*
X24496186Y-10068762D02*
X24505710Y-10087810D01*
X24505710Y-10087810D02*
X24505710Y-10135429D01*
X24505710Y-10135429D02*
X24496186Y-10154476D01*
X24496186Y-10154476D02*
X24486662Y-10164000D01*
X24486662Y-10164000D02*
X24467614Y-10173524D01*
X24467614Y-10173524D02*
X24419995Y-10173524D01*
X24419995Y-10173524D02*
X24400948Y-10164000D01*
X24400948Y-10164000D02*
X24391424Y-10154476D01*
X24572376Y-9973524D02*
X24705710Y-9973524D01*
X24705710Y-9973524D02*
X24619995Y-10173524D01*
X24772376Y-9973524D02*
X24772376Y-10011619D01*
X24848567Y-9973524D02*
X24848567Y-10011619D01*
X25143805Y-10249714D02*
X25134281Y-10240190D01*
X25134281Y-10240190D02*
X25115234Y-10211619D01*
X25115234Y-10211619D02*
X25105710Y-10192571D01*
X25105710Y-10192571D02*
X25096186Y-10164000D01*
X25096186Y-10164000D02*
X25086662Y-10116381D01*
X25086662Y-10116381D02*
X25086662Y-10078286D01*
X25086662Y-10078286D02*
X25096186Y-10030667D01*
X25096186Y-10030667D02*
X25105710Y-10002095D01*
X25105710Y-10002095D02*
X25115234Y-9983048D01*
X25115234Y-9983048D02*
X25134281Y-9954476D01*
X25134281Y-9954476D02*
X25143805Y-9944952D01*
X25315234Y-9973524D02*
X25219995Y-9973524D01*
X25219995Y-9973524D02*
X25210472Y-10068762D01*
X25210472Y-10068762D02*
X25219995Y-10059238D01*
X25219995Y-10059238D02*
X25239043Y-10049714D01*
X25239043Y-10049714D02*
X25286662Y-10049714D01*
X25286662Y-10049714D02*
X25305710Y-10059238D01*
X25305710Y-10059238D02*
X25315234Y-10068762D01*
X25315234Y-10068762D02*
X25324757Y-10087810D01*
X25324757Y-10087810D02*
X25324757Y-10135429D01*
X25324757Y-10135429D02*
X25315234Y-10154476D01*
X25315234Y-10154476D02*
X25305710Y-10164000D01*
X25305710Y-10164000D02*
X25286662Y-10173524D01*
X25286662Y-10173524D02*
X25239043Y-10173524D01*
X25239043Y-10173524D02*
X25219995Y-10164000D01*
X25219995Y-10164000D02*
X25210472Y-10154476D01*
X25400948Y-9992571D02*
X25410472Y-9983048D01*
X25410472Y-9983048D02*
X25429519Y-9973524D01*
X25429519Y-9973524D02*
X25477138Y-9973524D01*
X25477138Y-9973524D02*
X25496186Y-9983048D01*
X25496186Y-9983048D02*
X25505710Y-9992571D01*
X25505710Y-9992571D02*
X25515234Y-10011619D01*
X25515234Y-10011619D02*
X25515234Y-10030667D01*
X25515234Y-10030667D02*
X25505710Y-10059238D01*
X25505710Y-10059238D02*
X25391424Y-10173524D01*
X25391424Y-10173524D02*
X25515234Y-10173524D01*
X25753329Y-10173524D02*
X25753329Y-9973524D01*
X25839043Y-10173524D02*
X25839043Y-10068762D01*
X25839043Y-10068762D02*
X25829519Y-10049714D01*
X25829519Y-10049714D02*
X25810472Y-10040190D01*
X25810472Y-10040190D02*
X25781900Y-10040190D01*
X25781900Y-10040190D02*
X25762853Y-10049714D01*
X25762853Y-10049714D02*
X25753329Y-10059238D01*
X25962853Y-10173524D02*
X25943805Y-10164000D01*
X25943805Y-10164000D02*
X25934281Y-10154476D01*
X25934281Y-10154476D02*
X25924757Y-10135429D01*
X25924757Y-10135429D02*
X25924757Y-10078286D01*
X25924757Y-10078286D02*
X25934281Y-10059238D01*
X25934281Y-10059238D02*
X25943805Y-10049714D01*
X25943805Y-10049714D02*
X25962853Y-10040190D01*
X25962853Y-10040190D02*
X25991424Y-10040190D01*
X25991424Y-10040190D02*
X26010472Y-10049714D01*
X26010472Y-10049714D02*
X26019996Y-10059238D01*
X26019996Y-10059238D02*
X26029519Y-10078286D01*
X26029519Y-10078286D02*
X26029519Y-10135429D01*
X26029519Y-10135429D02*
X26019996Y-10154476D01*
X26019996Y-10154476D02*
X26010472Y-10164000D01*
X26010472Y-10164000D02*
X25991424Y-10173524D01*
X25991424Y-10173524D02*
X25962853Y-10173524D01*
X26143805Y-10173524D02*
X26124757Y-10164000D01*
X26124757Y-10164000D02*
X26115234Y-10144952D01*
X26115234Y-10144952D02*
X26115234Y-9973524D01*
X26296186Y-10164000D02*
X26277138Y-10173524D01*
X26277138Y-10173524D02*
X26239043Y-10173524D01*
X26239043Y-10173524D02*
X26219996Y-10164000D01*
X26219996Y-10164000D02*
X26210472Y-10144952D01*
X26210472Y-10144952D02*
X26210472Y-10068762D01*
X26210472Y-10068762D02*
X26219996Y-10049714D01*
X26219996Y-10049714D02*
X26239043Y-10040190D01*
X26239043Y-10040190D02*
X26277138Y-10040190D01*
X26277138Y-10040190D02*
X26296186Y-10049714D01*
X26296186Y-10049714D02*
X26305710Y-10068762D01*
X26305710Y-10068762D02*
X26305710Y-10087810D01*
X26305710Y-10087810D02*
X26210472Y-10106857D01*
X26381900Y-10164000D02*
X26400948Y-10173524D01*
X26400948Y-10173524D02*
X26439043Y-10173524D01*
X26439043Y-10173524D02*
X26458091Y-10164000D01*
X26458091Y-10164000D02*
X26467615Y-10144952D01*
X26467615Y-10144952D02*
X26467615Y-10135429D01*
X26467615Y-10135429D02*
X26458091Y-10116381D01*
X26458091Y-10116381D02*
X26439043Y-10106857D01*
X26439043Y-10106857D02*
X26410472Y-10106857D01*
X26410472Y-10106857D02*
X26391424Y-10097333D01*
X26391424Y-10097333D02*
X26381900Y-10078286D01*
X26381900Y-10078286D02*
X26381900Y-10068762D01*
X26381900Y-10068762D02*
X26391424Y-10049714D01*
X26391424Y-10049714D02*
X26410472Y-10040190D01*
X26410472Y-10040190D02*
X26439043Y-10040190D01*
X26439043Y-10040190D02*
X26458091Y-10049714D01*
X26534281Y-10249714D02*
X26543805Y-10240190D01*
X26543805Y-10240190D02*
X26562853Y-10211619D01*
X26562853Y-10211619D02*
X26572377Y-10192571D01*
X26572377Y-10192571D02*
X26581900Y-10164000D01*
X26581900Y-10164000D02*
X26591424Y-10116381D01*
X26591424Y-10116381D02*
X26591424Y-10078286D01*
X26591424Y-10078286D02*
X26581900Y-10030667D01*
X26581900Y-10030667D02*
X26572377Y-10002095D01*
X26572377Y-10002095D02*
X26562853Y-9983048D01*
X26562853Y-9983048D02*
X26543805Y-9954476D01*
X26543805Y-9954476D02*
X26534281Y-9944952D01*
D13*
X21581900Y-10345000D02*
G75*
G03*
X21581900Y-10345000I-45000J0D01*
G01*
D11*
X21867614Y-10237524D02*
X21886662Y-10237524D01*
X21886662Y-10237524D02*
X21905710Y-10247048D01*
X21905710Y-10247048D02*
X21915233Y-10256571D01*
X21915233Y-10256571D02*
X21924757Y-10275619D01*
X21924757Y-10275619D02*
X21934281Y-10313714D01*
X21934281Y-10313714D02*
X21934281Y-10361333D01*
X21934281Y-10361333D02*
X21924757Y-10399429D01*
X21924757Y-10399429D02*
X21915233Y-10418476D01*
X21915233Y-10418476D02*
X21905710Y-10428000D01*
X21905710Y-10428000D02*
X21886662Y-10437524D01*
X21886662Y-10437524D02*
X21867614Y-10437524D01*
X21867614Y-10437524D02*
X21848567Y-10428000D01*
X21848567Y-10428000D02*
X21839043Y-10418476D01*
X21839043Y-10418476D02*
X21829519Y-10399429D01*
X21829519Y-10399429D02*
X21819995Y-10361333D01*
X21819995Y-10361333D02*
X21819995Y-10313714D01*
X21819995Y-10313714D02*
X21829519Y-10275619D01*
X21829519Y-10275619D02*
X21839043Y-10256571D01*
X21839043Y-10256571D02*
X21848567Y-10247048D01*
X21848567Y-10247048D02*
X21867614Y-10237524D01*
X22019995Y-10418476D02*
X22029519Y-10428000D01*
X22029519Y-10428000D02*
X22019995Y-10437524D01*
X22019995Y-10437524D02*
X22010471Y-10428000D01*
X22010471Y-10428000D02*
X22019995Y-10418476D01*
X22019995Y-10418476D02*
X22019995Y-10437524D01*
X22124757Y-10437524D02*
X22162852Y-10437524D01*
X22162852Y-10437524D02*
X22181900Y-10428000D01*
X22181900Y-10428000D02*
X22191424Y-10418476D01*
X22191424Y-10418476D02*
X22210471Y-10389905D01*
X22210471Y-10389905D02*
X22219995Y-10351810D01*
X22219995Y-10351810D02*
X22219995Y-10275619D01*
X22219995Y-10275619D02*
X22210471Y-10256571D01*
X22210471Y-10256571D02*
X22200948Y-10247048D01*
X22200948Y-10247048D02*
X22181900Y-10237524D01*
X22181900Y-10237524D02*
X22143805Y-10237524D01*
X22143805Y-10237524D02*
X22124757Y-10247048D01*
X22124757Y-10247048D02*
X22115233Y-10256571D01*
X22115233Y-10256571D02*
X22105710Y-10275619D01*
X22105710Y-10275619D02*
X22105710Y-10323238D01*
X22105710Y-10323238D02*
X22115233Y-10342286D01*
X22115233Y-10342286D02*
X22124757Y-10351810D01*
X22124757Y-10351810D02*
X22143805Y-10361333D01*
X22143805Y-10361333D02*
X22181900Y-10361333D01*
X22181900Y-10361333D02*
X22200948Y-10351810D01*
X22200948Y-10351810D02*
X22210471Y-10342286D01*
X22210471Y-10342286D02*
X22219995Y-10323238D01*
X22343805Y-10237524D02*
X22362852Y-10237524D01*
X22362852Y-10237524D02*
X22381900Y-10247048D01*
X22381900Y-10247048D02*
X22391424Y-10256571D01*
X22391424Y-10256571D02*
X22400948Y-10275619D01*
X22400948Y-10275619D02*
X22410471Y-10313714D01*
X22410471Y-10313714D02*
X22410471Y-10361333D01*
X22410471Y-10361333D02*
X22400948Y-10399429D01*
X22400948Y-10399429D02*
X22391424Y-10418476D01*
X22391424Y-10418476D02*
X22381900Y-10428000D01*
X22381900Y-10428000D02*
X22362852Y-10437524D01*
X22362852Y-10437524D02*
X22343805Y-10437524D01*
X22343805Y-10437524D02*
X22324757Y-10428000D01*
X22324757Y-10428000D02*
X22315233Y-10418476D01*
X22315233Y-10418476D02*
X22305710Y-10399429D01*
X22305710Y-10399429D02*
X22296186Y-10361333D01*
X22296186Y-10361333D02*
X22296186Y-10313714D01*
X22296186Y-10313714D02*
X22305710Y-10275619D01*
X22305710Y-10275619D02*
X22315233Y-10256571D01*
X22315233Y-10256571D02*
X22324757Y-10247048D01*
X22324757Y-10247048D02*
X22343805Y-10237524D01*
X22534281Y-10237524D02*
X22553329Y-10237524D01*
X22553329Y-10237524D02*
X22572376Y-10247048D01*
X22572376Y-10247048D02*
X22581900Y-10256571D01*
X22581900Y-10256571D02*
X22591424Y-10275619D01*
X22591424Y-10275619D02*
X22600948Y-10313714D01*
X22600948Y-10313714D02*
X22600948Y-10361333D01*
X22600948Y-10361333D02*
X22591424Y-10399429D01*
X22591424Y-10399429D02*
X22581900Y-10418476D01*
X22581900Y-10418476D02*
X22572376Y-10428000D01*
X22572376Y-10428000D02*
X22553329Y-10437524D01*
X22553329Y-10437524D02*
X22534281Y-10437524D01*
X22534281Y-10437524D02*
X22515233Y-10428000D01*
X22515233Y-10428000D02*
X22505709Y-10418476D01*
X22505709Y-10418476D02*
X22496186Y-10399429D01*
X22496186Y-10399429D02*
X22486662Y-10361333D01*
X22486662Y-10361333D02*
X22486662Y-10313714D01*
X22486662Y-10313714D02*
X22496186Y-10275619D01*
X22496186Y-10275619D02*
X22505709Y-10256571D01*
X22505709Y-10256571D02*
X22515233Y-10247048D01*
X22515233Y-10247048D02*
X22534281Y-10237524D01*
X22686662Y-10437524D02*
X22686662Y-10304190D01*
X22686662Y-10323238D02*
X22696186Y-10313714D01*
X22696186Y-10313714D02*
X22715233Y-10304190D01*
X22715233Y-10304190D02*
X22743805Y-10304190D01*
X22743805Y-10304190D02*
X22762852Y-10313714D01*
X22762852Y-10313714D02*
X22772376Y-10332762D01*
X22772376Y-10332762D02*
X22772376Y-10437524D01*
X22772376Y-10332762D02*
X22781900Y-10313714D01*
X22781900Y-10313714D02*
X22800948Y-10304190D01*
X22800948Y-10304190D02*
X22829519Y-10304190D01*
X22829519Y-10304190D02*
X22848567Y-10313714D01*
X22848567Y-10313714D02*
X22858090Y-10332762D01*
X22858090Y-10332762D02*
X22858090Y-10437524D01*
X22953329Y-10437524D02*
X22953329Y-10304190D01*
X22953329Y-10323238D02*
X22962852Y-10313714D01*
X22962852Y-10313714D02*
X22981900Y-10304190D01*
X22981900Y-10304190D02*
X23010471Y-10304190D01*
X23010471Y-10304190D02*
X23029519Y-10313714D01*
X23029519Y-10313714D02*
X23039043Y-10332762D01*
X23039043Y-10332762D02*
X23039043Y-10437524D01*
X23039043Y-10332762D02*
X23048567Y-10313714D01*
X23048567Y-10313714D02*
X23067614Y-10304190D01*
X23067614Y-10304190D02*
X23096186Y-10304190D01*
X23096186Y-10304190D02*
X23115233Y-10313714D01*
X23115233Y-10313714D02*
X23124757Y-10332762D01*
X23124757Y-10332762D02*
X23124757Y-10437524D01*
X23515233Y-10228000D02*
X23343805Y-10485143D01*
X23772376Y-10237524D02*
X23791424Y-10237524D01*
X23791424Y-10237524D02*
X23810472Y-10247048D01*
X23810472Y-10247048D02*
X23819995Y-10256571D01*
X23819995Y-10256571D02*
X23829519Y-10275619D01*
X23829519Y-10275619D02*
X23839043Y-10313714D01*
X23839043Y-10313714D02*
X23839043Y-10361333D01*
X23839043Y-10361333D02*
X23829519Y-10399429D01*
X23829519Y-10399429D02*
X23819995Y-10418476D01*
X23819995Y-10418476D02*
X23810472Y-10428000D01*
X23810472Y-10428000D02*
X23791424Y-10437524D01*
X23791424Y-10437524D02*
X23772376Y-10437524D01*
X23772376Y-10437524D02*
X23753329Y-10428000D01*
X23753329Y-10428000D02*
X23743805Y-10418476D01*
X23743805Y-10418476D02*
X23734281Y-10399429D01*
X23734281Y-10399429D02*
X23724757Y-10361333D01*
X23724757Y-10361333D02*
X23724757Y-10313714D01*
X23724757Y-10313714D02*
X23734281Y-10275619D01*
X23734281Y-10275619D02*
X23743805Y-10256571D01*
X23743805Y-10256571D02*
X23753329Y-10247048D01*
X23753329Y-10247048D02*
X23772376Y-10237524D01*
X23924757Y-10418476D02*
X23934281Y-10428000D01*
X23934281Y-10428000D02*
X23924757Y-10437524D01*
X23924757Y-10437524D02*
X23915233Y-10428000D01*
X23915233Y-10428000D02*
X23924757Y-10418476D01*
X23924757Y-10418476D02*
X23924757Y-10437524D01*
X24058091Y-10237524D02*
X24077138Y-10237524D01*
X24077138Y-10237524D02*
X24096186Y-10247048D01*
X24096186Y-10247048D02*
X24105710Y-10256571D01*
X24105710Y-10256571D02*
X24115233Y-10275619D01*
X24115233Y-10275619D02*
X24124757Y-10313714D01*
X24124757Y-10313714D02*
X24124757Y-10361333D01*
X24124757Y-10361333D02*
X24115233Y-10399429D01*
X24115233Y-10399429D02*
X24105710Y-10418476D01*
X24105710Y-10418476D02*
X24096186Y-10428000D01*
X24096186Y-10428000D02*
X24077138Y-10437524D01*
X24077138Y-10437524D02*
X24058091Y-10437524D01*
X24058091Y-10437524D02*
X24039043Y-10428000D01*
X24039043Y-10428000D02*
X24029519Y-10418476D01*
X24029519Y-10418476D02*
X24019995Y-10399429D01*
X24019995Y-10399429D02*
X24010472Y-10361333D01*
X24010472Y-10361333D02*
X24010472Y-10313714D01*
X24010472Y-10313714D02*
X24019995Y-10275619D01*
X24019995Y-10275619D02*
X24029519Y-10256571D01*
X24029519Y-10256571D02*
X24039043Y-10247048D01*
X24039043Y-10247048D02*
X24058091Y-10237524D01*
X24191424Y-10237524D02*
X24315233Y-10237524D01*
X24315233Y-10237524D02*
X24248567Y-10313714D01*
X24248567Y-10313714D02*
X24277138Y-10313714D01*
X24277138Y-10313714D02*
X24296186Y-10323238D01*
X24296186Y-10323238D02*
X24305710Y-10332762D01*
X24305710Y-10332762D02*
X24315233Y-10351810D01*
X24315233Y-10351810D02*
X24315233Y-10399429D01*
X24315233Y-10399429D02*
X24305710Y-10418476D01*
X24305710Y-10418476D02*
X24296186Y-10428000D01*
X24296186Y-10428000D02*
X24277138Y-10437524D01*
X24277138Y-10437524D02*
X24219995Y-10437524D01*
X24219995Y-10437524D02*
X24200948Y-10428000D01*
X24200948Y-10428000D02*
X24191424Y-10418476D01*
X24496186Y-10237524D02*
X24400948Y-10237524D01*
X24400948Y-10237524D02*
X24391424Y-10332762D01*
X24391424Y-10332762D02*
X24400948Y-10323238D01*
X24400948Y-10323238D02*
X24419995Y-10313714D01*
X24419995Y-10313714D02*
X24467614Y-10313714D01*
X24467614Y-10313714D02*
X24486662Y-10323238D01*
X24486662Y-10323238D02*
X24496186Y-10332762D01*
X24496186Y-10332762D02*
X24505710Y-10351810D01*
X24505710Y-10351810D02*
X24505710Y-10399429D01*
X24505710Y-10399429D02*
X24496186Y-10418476D01*
X24496186Y-10418476D02*
X24486662Y-10428000D01*
X24486662Y-10428000D02*
X24467614Y-10437524D01*
X24467614Y-10437524D02*
X24419995Y-10437524D01*
X24419995Y-10437524D02*
X24400948Y-10428000D01*
X24400948Y-10428000D02*
X24391424Y-10418476D01*
X24677138Y-10304190D02*
X24677138Y-10437524D01*
X24629519Y-10228000D02*
X24581900Y-10370857D01*
X24581900Y-10370857D02*
X24705710Y-10370857D01*
X24772376Y-10237524D02*
X24772376Y-10275619D01*
X24848567Y-10237524D02*
X24848567Y-10275619D01*
X25143805Y-10513714D02*
X25134281Y-10504190D01*
X25134281Y-10504190D02*
X25115234Y-10475619D01*
X25115234Y-10475619D02*
X25105710Y-10456571D01*
X25105710Y-10456571D02*
X25096186Y-10428000D01*
X25096186Y-10428000D02*
X25086662Y-10380381D01*
X25086662Y-10380381D02*
X25086662Y-10342286D01*
X25086662Y-10342286D02*
X25096186Y-10294667D01*
X25096186Y-10294667D02*
X25105710Y-10266095D01*
X25105710Y-10266095D02*
X25115234Y-10247048D01*
X25115234Y-10247048D02*
X25134281Y-10218476D01*
X25134281Y-10218476D02*
X25143805Y-10208952D01*
X25210472Y-10256571D02*
X25219995Y-10247048D01*
X25219995Y-10247048D02*
X25239043Y-10237524D01*
X25239043Y-10237524D02*
X25286662Y-10237524D01*
X25286662Y-10237524D02*
X25305710Y-10247048D01*
X25305710Y-10247048D02*
X25315234Y-10256571D01*
X25315234Y-10256571D02*
X25324757Y-10275619D01*
X25324757Y-10275619D02*
X25324757Y-10294667D01*
X25324757Y-10294667D02*
X25315234Y-10323238D01*
X25315234Y-10323238D02*
X25200948Y-10437524D01*
X25200948Y-10437524D02*
X25324757Y-10437524D01*
X25562853Y-10437524D02*
X25562853Y-10237524D01*
X25648567Y-10437524D02*
X25648567Y-10332762D01*
X25648567Y-10332762D02*
X25639043Y-10313714D01*
X25639043Y-10313714D02*
X25619996Y-10304190D01*
X25619996Y-10304190D02*
X25591424Y-10304190D01*
X25591424Y-10304190D02*
X25572376Y-10313714D01*
X25572376Y-10313714D02*
X25562853Y-10323238D01*
X25772376Y-10437524D02*
X25753329Y-10428000D01*
X25753329Y-10428000D02*
X25743805Y-10418476D01*
X25743805Y-10418476D02*
X25734281Y-10399429D01*
X25734281Y-10399429D02*
X25734281Y-10342286D01*
X25734281Y-10342286D02*
X25743805Y-10323238D01*
X25743805Y-10323238D02*
X25753329Y-10313714D01*
X25753329Y-10313714D02*
X25772376Y-10304190D01*
X25772376Y-10304190D02*
X25800948Y-10304190D01*
X25800948Y-10304190D02*
X25819996Y-10313714D01*
X25819996Y-10313714D02*
X25829519Y-10323238D01*
X25829519Y-10323238D02*
X25839043Y-10342286D01*
X25839043Y-10342286D02*
X25839043Y-10399429D01*
X25839043Y-10399429D02*
X25829519Y-10418476D01*
X25829519Y-10418476D02*
X25819996Y-10428000D01*
X25819996Y-10428000D02*
X25800948Y-10437524D01*
X25800948Y-10437524D02*
X25772376Y-10437524D01*
X25953329Y-10437524D02*
X25934281Y-10428000D01*
X25934281Y-10428000D02*
X25924757Y-10408952D01*
X25924757Y-10408952D02*
X25924757Y-10237524D01*
X26105710Y-10428000D02*
X26086662Y-10437524D01*
X26086662Y-10437524D02*
X26048567Y-10437524D01*
X26048567Y-10437524D02*
X26029519Y-10428000D01*
X26029519Y-10428000D02*
X26019996Y-10408952D01*
X26019996Y-10408952D02*
X26019996Y-10332762D01*
X26019996Y-10332762D02*
X26029519Y-10313714D01*
X26029519Y-10313714D02*
X26048567Y-10304190D01*
X26048567Y-10304190D02*
X26086662Y-10304190D01*
X26086662Y-10304190D02*
X26105710Y-10313714D01*
X26105710Y-10313714D02*
X26115234Y-10332762D01*
X26115234Y-10332762D02*
X26115234Y-10351810D01*
X26115234Y-10351810D02*
X26019996Y-10370857D01*
X26191424Y-10428000D02*
X26210472Y-10437524D01*
X26210472Y-10437524D02*
X26248567Y-10437524D01*
X26248567Y-10437524D02*
X26267615Y-10428000D01*
X26267615Y-10428000D02*
X26277138Y-10408952D01*
X26277138Y-10408952D02*
X26277138Y-10399429D01*
X26277138Y-10399429D02*
X26267615Y-10380381D01*
X26267615Y-10380381D02*
X26248567Y-10370857D01*
X26248567Y-10370857D02*
X26219996Y-10370857D01*
X26219996Y-10370857D02*
X26200948Y-10361333D01*
X26200948Y-10361333D02*
X26191424Y-10342286D01*
X26191424Y-10342286D02*
X26191424Y-10332762D01*
X26191424Y-10332762D02*
X26200948Y-10313714D01*
X26200948Y-10313714D02*
X26219996Y-10304190D01*
X26219996Y-10304190D02*
X26248567Y-10304190D01*
X26248567Y-10304190D02*
X26267615Y-10313714D01*
X26343805Y-10513714D02*
X26353329Y-10504190D01*
X26353329Y-10504190D02*
X26372377Y-10475619D01*
X26372377Y-10475619D02*
X26381900Y-10456571D01*
X26381900Y-10456571D02*
X26391424Y-10428000D01*
X26391424Y-10428000D02*
X26400948Y-10380381D01*
X26400948Y-10380381D02*
X26400948Y-10342286D01*
X26400948Y-10342286D02*
X26391424Y-10294667D01*
X26391424Y-10294667D02*
X26381900Y-10266095D01*
X26381900Y-10266095D02*
X26372377Y-10247048D01*
X26372377Y-10247048D02*
X26353329Y-10218476D01*
X26353329Y-10218476D02*
X26343805Y-10208952D01*
D14*
X21535900Y-10563000D02*
X21535900Y-10655000D01*
X21489900Y-10609000D02*
X21581900Y-10609000D01*
D11*
X21867614Y-10501524D02*
X21886662Y-10501524D01*
X21886662Y-10501524D02*
X21905710Y-10511048D01*
X21905710Y-10511048D02*
X21915233Y-10520571D01*
X21915233Y-10520571D02*
X21924757Y-10539619D01*
X21924757Y-10539619D02*
X21934281Y-10577714D01*
X21934281Y-10577714D02*
X21934281Y-10625333D01*
X21934281Y-10625333D02*
X21924757Y-10663429D01*
X21924757Y-10663429D02*
X21915233Y-10682476D01*
X21915233Y-10682476D02*
X21905710Y-10692000D01*
X21905710Y-10692000D02*
X21886662Y-10701524D01*
X21886662Y-10701524D02*
X21867614Y-10701524D01*
X21867614Y-10701524D02*
X21848567Y-10692000D01*
X21848567Y-10692000D02*
X21839043Y-10682476D01*
X21839043Y-10682476D02*
X21829519Y-10663429D01*
X21829519Y-10663429D02*
X21819995Y-10625333D01*
X21819995Y-10625333D02*
X21819995Y-10577714D01*
X21819995Y-10577714D02*
X21829519Y-10539619D01*
X21829519Y-10539619D02*
X21839043Y-10520571D01*
X21839043Y-10520571D02*
X21848567Y-10511048D01*
X21848567Y-10511048D02*
X21867614Y-10501524D01*
X22019995Y-10682476D02*
X22029519Y-10692000D01*
X22029519Y-10692000D02*
X22019995Y-10701524D01*
X22019995Y-10701524D02*
X22010471Y-10692000D01*
X22010471Y-10692000D02*
X22019995Y-10682476D01*
X22019995Y-10682476D02*
X22019995Y-10701524D01*
X22124757Y-10701524D02*
X22162852Y-10701524D01*
X22162852Y-10701524D02*
X22181900Y-10692000D01*
X22181900Y-10692000D02*
X22191424Y-10682476D01*
X22191424Y-10682476D02*
X22210471Y-10653905D01*
X22210471Y-10653905D02*
X22219995Y-10615810D01*
X22219995Y-10615810D02*
X22219995Y-10539619D01*
X22219995Y-10539619D02*
X22210471Y-10520571D01*
X22210471Y-10520571D02*
X22200948Y-10511048D01*
X22200948Y-10511048D02*
X22181900Y-10501524D01*
X22181900Y-10501524D02*
X22143805Y-10501524D01*
X22143805Y-10501524D02*
X22124757Y-10511048D01*
X22124757Y-10511048D02*
X22115233Y-10520571D01*
X22115233Y-10520571D02*
X22105710Y-10539619D01*
X22105710Y-10539619D02*
X22105710Y-10587238D01*
X22105710Y-10587238D02*
X22115233Y-10606286D01*
X22115233Y-10606286D02*
X22124757Y-10615810D01*
X22124757Y-10615810D02*
X22143805Y-10625333D01*
X22143805Y-10625333D02*
X22181900Y-10625333D01*
X22181900Y-10625333D02*
X22200948Y-10615810D01*
X22200948Y-10615810D02*
X22210471Y-10606286D01*
X22210471Y-10606286D02*
X22219995Y-10587238D01*
X22296186Y-10520571D02*
X22305710Y-10511048D01*
X22305710Y-10511048D02*
X22324757Y-10501524D01*
X22324757Y-10501524D02*
X22372376Y-10501524D01*
X22372376Y-10501524D02*
X22391424Y-10511048D01*
X22391424Y-10511048D02*
X22400948Y-10520571D01*
X22400948Y-10520571D02*
X22410471Y-10539619D01*
X22410471Y-10539619D02*
X22410471Y-10558667D01*
X22410471Y-10558667D02*
X22400948Y-10587238D01*
X22400948Y-10587238D02*
X22286662Y-10701524D01*
X22286662Y-10701524D02*
X22410471Y-10701524D01*
X22534281Y-10501524D02*
X22553329Y-10501524D01*
X22553329Y-10501524D02*
X22572376Y-10511048D01*
X22572376Y-10511048D02*
X22581900Y-10520571D01*
X22581900Y-10520571D02*
X22591424Y-10539619D01*
X22591424Y-10539619D02*
X22600948Y-10577714D01*
X22600948Y-10577714D02*
X22600948Y-10625333D01*
X22600948Y-10625333D02*
X22591424Y-10663429D01*
X22591424Y-10663429D02*
X22581900Y-10682476D01*
X22581900Y-10682476D02*
X22572376Y-10692000D01*
X22572376Y-10692000D02*
X22553329Y-10701524D01*
X22553329Y-10701524D02*
X22534281Y-10701524D01*
X22534281Y-10701524D02*
X22515233Y-10692000D01*
X22515233Y-10692000D02*
X22505709Y-10682476D01*
X22505709Y-10682476D02*
X22496186Y-10663429D01*
X22496186Y-10663429D02*
X22486662Y-10625333D01*
X22486662Y-10625333D02*
X22486662Y-10577714D01*
X22486662Y-10577714D02*
X22496186Y-10539619D01*
X22496186Y-10539619D02*
X22505709Y-10520571D01*
X22505709Y-10520571D02*
X22515233Y-10511048D01*
X22515233Y-10511048D02*
X22534281Y-10501524D01*
X22686662Y-10701524D02*
X22686662Y-10568190D01*
X22686662Y-10587238D02*
X22696186Y-10577714D01*
X22696186Y-10577714D02*
X22715233Y-10568190D01*
X22715233Y-10568190D02*
X22743805Y-10568190D01*
X22743805Y-10568190D02*
X22762852Y-10577714D01*
X22762852Y-10577714D02*
X22772376Y-10596762D01*
X22772376Y-10596762D02*
X22772376Y-10701524D01*
X22772376Y-10596762D02*
X22781900Y-10577714D01*
X22781900Y-10577714D02*
X22800948Y-10568190D01*
X22800948Y-10568190D02*
X22829519Y-10568190D01*
X22829519Y-10568190D02*
X22848567Y-10577714D01*
X22848567Y-10577714D02*
X22858090Y-10596762D01*
X22858090Y-10596762D02*
X22858090Y-10701524D01*
X22953329Y-10701524D02*
X22953329Y-10568190D01*
X22953329Y-10587238D02*
X22962852Y-10577714D01*
X22962852Y-10577714D02*
X22981900Y-10568190D01*
X22981900Y-10568190D02*
X23010471Y-10568190D01*
X23010471Y-10568190D02*
X23029519Y-10577714D01*
X23029519Y-10577714D02*
X23039043Y-10596762D01*
X23039043Y-10596762D02*
X23039043Y-10701524D01*
X23039043Y-10596762D02*
X23048567Y-10577714D01*
X23048567Y-10577714D02*
X23067614Y-10568190D01*
X23067614Y-10568190D02*
X23096186Y-10568190D01*
X23096186Y-10568190D02*
X23115233Y-10577714D01*
X23115233Y-10577714D02*
X23124757Y-10596762D01*
X23124757Y-10596762D02*
X23124757Y-10701524D01*
X23515233Y-10492000D02*
X23343805Y-10749143D01*
X23772376Y-10501524D02*
X23791424Y-10501524D01*
X23791424Y-10501524D02*
X23810472Y-10511048D01*
X23810472Y-10511048D02*
X23819995Y-10520571D01*
X23819995Y-10520571D02*
X23829519Y-10539619D01*
X23829519Y-10539619D02*
X23839043Y-10577714D01*
X23839043Y-10577714D02*
X23839043Y-10625333D01*
X23839043Y-10625333D02*
X23829519Y-10663429D01*
X23829519Y-10663429D02*
X23819995Y-10682476D01*
X23819995Y-10682476D02*
X23810472Y-10692000D01*
X23810472Y-10692000D02*
X23791424Y-10701524D01*
X23791424Y-10701524D02*
X23772376Y-10701524D01*
X23772376Y-10701524D02*
X23753329Y-10692000D01*
X23753329Y-10692000D02*
X23743805Y-10682476D01*
X23743805Y-10682476D02*
X23734281Y-10663429D01*
X23734281Y-10663429D02*
X23724757Y-10625333D01*
X23724757Y-10625333D02*
X23724757Y-10577714D01*
X23724757Y-10577714D02*
X23734281Y-10539619D01*
X23734281Y-10539619D02*
X23743805Y-10520571D01*
X23743805Y-10520571D02*
X23753329Y-10511048D01*
X23753329Y-10511048D02*
X23772376Y-10501524D01*
X23924757Y-10682476D02*
X23934281Y-10692000D01*
X23934281Y-10692000D02*
X23924757Y-10701524D01*
X23924757Y-10701524D02*
X23915233Y-10692000D01*
X23915233Y-10692000D02*
X23924757Y-10682476D01*
X23924757Y-10682476D02*
X23924757Y-10701524D01*
X24058091Y-10501524D02*
X24077138Y-10501524D01*
X24077138Y-10501524D02*
X24096186Y-10511048D01*
X24096186Y-10511048D02*
X24105710Y-10520571D01*
X24105710Y-10520571D02*
X24115233Y-10539619D01*
X24115233Y-10539619D02*
X24124757Y-10577714D01*
X24124757Y-10577714D02*
X24124757Y-10625333D01*
X24124757Y-10625333D02*
X24115233Y-10663429D01*
X24115233Y-10663429D02*
X24105710Y-10682476D01*
X24105710Y-10682476D02*
X24096186Y-10692000D01*
X24096186Y-10692000D02*
X24077138Y-10701524D01*
X24077138Y-10701524D02*
X24058091Y-10701524D01*
X24058091Y-10701524D02*
X24039043Y-10692000D01*
X24039043Y-10692000D02*
X24029519Y-10682476D01*
X24029519Y-10682476D02*
X24019995Y-10663429D01*
X24019995Y-10663429D02*
X24010472Y-10625333D01*
X24010472Y-10625333D02*
X24010472Y-10577714D01*
X24010472Y-10577714D02*
X24019995Y-10539619D01*
X24019995Y-10539619D02*
X24029519Y-10520571D01*
X24029519Y-10520571D02*
X24039043Y-10511048D01*
X24039043Y-10511048D02*
X24058091Y-10501524D01*
X24191424Y-10501524D02*
X24315233Y-10501524D01*
X24315233Y-10501524D02*
X24248567Y-10577714D01*
X24248567Y-10577714D02*
X24277138Y-10577714D01*
X24277138Y-10577714D02*
X24296186Y-10587238D01*
X24296186Y-10587238D02*
X24305710Y-10596762D01*
X24305710Y-10596762D02*
X24315233Y-10615810D01*
X24315233Y-10615810D02*
X24315233Y-10663429D01*
X24315233Y-10663429D02*
X24305710Y-10682476D01*
X24305710Y-10682476D02*
X24296186Y-10692000D01*
X24296186Y-10692000D02*
X24277138Y-10701524D01*
X24277138Y-10701524D02*
X24219995Y-10701524D01*
X24219995Y-10701524D02*
X24200948Y-10692000D01*
X24200948Y-10692000D02*
X24191424Y-10682476D01*
X24486662Y-10501524D02*
X24448567Y-10501524D01*
X24448567Y-10501524D02*
X24429519Y-10511048D01*
X24429519Y-10511048D02*
X24419995Y-10520571D01*
X24419995Y-10520571D02*
X24400948Y-10549143D01*
X24400948Y-10549143D02*
X24391424Y-10587238D01*
X24391424Y-10587238D02*
X24391424Y-10663429D01*
X24391424Y-10663429D02*
X24400948Y-10682476D01*
X24400948Y-10682476D02*
X24410472Y-10692000D01*
X24410472Y-10692000D02*
X24429519Y-10701524D01*
X24429519Y-10701524D02*
X24467614Y-10701524D01*
X24467614Y-10701524D02*
X24486662Y-10692000D01*
X24486662Y-10692000D02*
X24496186Y-10682476D01*
X24496186Y-10682476D02*
X24505710Y-10663429D01*
X24505710Y-10663429D02*
X24505710Y-10615810D01*
X24505710Y-10615810D02*
X24496186Y-10596762D01*
X24496186Y-10596762D02*
X24486662Y-10587238D01*
X24486662Y-10587238D02*
X24467614Y-10577714D01*
X24467614Y-10577714D02*
X24429519Y-10577714D01*
X24429519Y-10577714D02*
X24410472Y-10587238D01*
X24410472Y-10587238D02*
X24400948Y-10596762D01*
X24400948Y-10596762D02*
X24391424Y-10615810D01*
X24581900Y-10520571D02*
X24591424Y-10511048D01*
X24591424Y-10511048D02*
X24610472Y-10501524D01*
X24610472Y-10501524D02*
X24658091Y-10501524D01*
X24658091Y-10501524D02*
X24677138Y-10511048D01*
X24677138Y-10511048D02*
X24686662Y-10520571D01*
X24686662Y-10520571D02*
X24696186Y-10539619D01*
X24696186Y-10539619D02*
X24696186Y-10558667D01*
X24696186Y-10558667D02*
X24686662Y-10587238D01*
X24686662Y-10587238D02*
X24572376Y-10701524D01*
X24572376Y-10701524D02*
X24696186Y-10701524D01*
X24772376Y-10501524D02*
X24772376Y-10539619D01*
X24848567Y-10501524D02*
X24848567Y-10539619D01*
X25143805Y-10777714D02*
X25134281Y-10768190D01*
X25134281Y-10768190D02*
X25115234Y-10739619D01*
X25115234Y-10739619D02*
X25105710Y-10720571D01*
X25105710Y-10720571D02*
X25096186Y-10692000D01*
X25096186Y-10692000D02*
X25086662Y-10644381D01*
X25086662Y-10644381D02*
X25086662Y-10606286D01*
X25086662Y-10606286D02*
X25096186Y-10558667D01*
X25096186Y-10558667D02*
X25105710Y-10530095D01*
X25105710Y-10530095D02*
X25115234Y-10511048D01*
X25115234Y-10511048D02*
X25134281Y-10482476D01*
X25134281Y-10482476D02*
X25143805Y-10472952D01*
X25248567Y-10587238D02*
X25229519Y-10577714D01*
X25229519Y-10577714D02*
X25219995Y-10568190D01*
X25219995Y-10568190D02*
X25210472Y-10549143D01*
X25210472Y-10549143D02*
X25210472Y-10539619D01*
X25210472Y-10539619D02*
X25219995Y-10520571D01*
X25219995Y-10520571D02*
X25229519Y-10511048D01*
X25229519Y-10511048D02*
X25248567Y-10501524D01*
X25248567Y-10501524D02*
X25286662Y-10501524D01*
X25286662Y-10501524D02*
X25305710Y-10511048D01*
X25305710Y-10511048D02*
X25315234Y-10520571D01*
X25315234Y-10520571D02*
X25324757Y-10539619D01*
X25324757Y-10539619D02*
X25324757Y-10549143D01*
X25324757Y-10549143D02*
X25315234Y-10568190D01*
X25315234Y-10568190D02*
X25305710Y-10577714D01*
X25305710Y-10577714D02*
X25286662Y-10587238D01*
X25286662Y-10587238D02*
X25248567Y-10587238D01*
X25248567Y-10587238D02*
X25229519Y-10596762D01*
X25229519Y-10596762D02*
X25219995Y-10606286D01*
X25219995Y-10606286D02*
X25210472Y-10625333D01*
X25210472Y-10625333D02*
X25210472Y-10663429D01*
X25210472Y-10663429D02*
X25219995Y-10682476D01*
X25219995Y-10682476D02*
X25229519Y-10692000D01*
X25229519Y-10692000D02*
X25248567Y-10701524D01*
X25248567Y-10701524D02*
X25286662Y-10701524D01*
X25286662Y-10701524D02*
X25305710Y-10692000D01*
X25305710Y-10692000D02*
X25315234Y-10682476D01*
X25315234Y-10682476D02*
X25324757Y-10663429D01*
X25324757Y-10663429D02*
X25324757Y-10625333D01*
X25324757Y-10625333D02*
X25315234Y-10606286D01*
X25315234Y-10606286D02*
X25305710Y-10596762D01*
X25305710Y-10596762D02*
X25286662Y-10587238D01*
X25562853Y-10701524D02*
X25562853Y-10501524D01*
X25648567Y-10701524D02*
X25648567Y-10596762D01*
X25648567Y-10596762D02*
X25639043Y-10577714D01*
X25639043Y-10577714D02*
X25619996Y-10568190D01*
X25619996Y-10568190D02*
X25591424Y-10568190D01*
X25591424Y-10568190D02*
X25572376Y-10577714D01*
X25572376Y-10577714D02*
X25562853Y-10587238D01*
X25772376Y-10701524D02*
X25753329Y-10692000D01*
X25753329Y-10692000D02*
X25743805Y-10682476D01*
X25743805Y-10682476D02*
X25734281Y-10663429D01*
X25734281Y-10663429D02*
X25734281Y-10606286D01*
X25734281Y-10606286D02*
X25743805Y-10587238D01*
X25743805Y-10587238D02*
X25753329Y-10577714D01*
X25753329Y-10577714D02*
X25772376Y-10568190D01*
X25772376Y-10568190D02*
X25800948Y-10568190D01*
X25800948Y-10568190D02*
X25819996Y-10577714D01*
X25819996Y-10577714D02*
X25829519Y-10587238D01*
X25829519Y-10587238D02*
X25839043Y-10606286D01*
X25839043Y-10606286D02*
X25839043Y-10663429D01*
X25839043Y-10663429D02*
X25829519Y-10682476D01*
X25829519Y-10682476D02*
X25819996Y-10692000D01*
X25819996Y-10692000D02*
X25800948Y-10701524D01*
X25800948Y-10701524D02*
X25772376Y-10701524D01*
X25953329Y-10701524D02*
X25934281Y-10692000D01*
X25934281Y-10692000D02*
X25924757Y-10672952D01*
X25924757Y-10672952D02*
X25924757Y-10501524D01*
X26105710Y-10692000D02*
X26086662Y-10701524D01*
X26086662Y-10701524D02*
X26048567Y-10701524D01*
X26048567Y-10701524D02*
X26029519Y-10692000D01*
X26029519Y-10692000D02*
X26019996Y-10672952D01*
X26019996Y-10672952D02*
X26019996Y-10596762D01*
X26019996Y-10596762D02*
X26029519Y-10577714D01*
X26029519Y-10577714D02*
X26048567Y-10568190D01*
X26048567Y-10568190D02*
X26086662Y-10568190D01*
X26086662Y-10568190D02*
X26105710Y-10577714D01*
X26105710Y-10577714D02*
X26115234Y-10596762D01*
X26115234Y-10596762D02*
X26115234Y-10615810D01*
X26115234Y-10615810D02*
X26019996Y-10634857D01*
X26191424Y-10692000D02*
X26210472Y-10701524D01*
X26210472Y-10701524D02*
X26248567Y-10701524D01*
X26248567Y-10701524D02*
X26267615Y-10692000D01*
X26267615Y-10692000D02*
X26277138Y-10672952D01*
X26277138Y-10672952D02*
X26277138Y-10663429D01*
X26277138Y-10663429D02*
X26267615Y-10644381D01*
X26267615Y-10644381D02*
X26248567Y-10634857D01*
X26248567Y-10634857D02*
X26219996Y-10634857D01*
X26219996Y-10634857D02*
X26200948Y-10625333D01*
X26200948Y-10625333D02*
X26191424Y-10606286D01*
X26191424Y-10606286D02*
X26191424Y-10596762D01*
X26191424Y-10596762D02*
X26200948Y-10577714D01*
X26200948Y-10577714D02*
X26219996Y-10568190D01*
X26219996Y-10568190D02*
X26248567Y-10568190D01*
X26248567Y-10568190D02*
X26267615Y-10577714D01*
X26343805Y-10777714D02*
X26353329Y-10768190D01*
X26353329Y-10768190D02*
X26372377Y-10739619D01*
X26372377Y-10739619D02*
X26381900Y-10720571D01*
X26381900Y-10720571D02*
X26391424Y-10692000D01*
X26391424Y-10692000D02*
X26400948Y-10644381D01*
X26400948Y-10644381D02*
X26400948Y-10606286D01*
X26400948Y-10606286D02*
X26391424Y-10558667D01*
X26391424Y-10558667D02*
X26381900Y-10530095D01*
X26381900Y-10530095D02*
X26372377Y-10511048D01*
X26372377Y-10511048D02*
X26353329Y-10482476D01*
X26353329Y-10482476D02*
X26343805Y-10472952D01*
D15*
X21562862Y-10918962D02*
X21562862Y-10827038D01*
X21470938Y-10827038D01*
X21470938Y-10918962D01*
X21562862Y-10918962D01*
D11*
X21934281Y-10965524D02*
X21819995Y-10965524D01*
X21877138Y-10965524D02*
X21877138Y-10765524D01*
X21877138Y-10765524D02*
X21858090Y-10794095D01*
X21858090Y-10794095D02*
X21839043Y-10813143D01*
X21839043Y-10813143D02*
X21819995Y-10822667D01*
X22019995Y-10946476D02*
X22029519Y-10956000D01*
X22029519Y-10956000D02*
X22019995Y-10965524D01*
X22019995Y-10965524D02*
X22010471Y-10956000D01*
X22010471Y-10956000D02*
X22019995Y-10946476D01*
X22019995Y-10946476D02*
X22019995Y-10965524D01*
X22096186Y-10765524D02*
X22219995Y-10765524D01*
X22219995Y-10765524D02*
X22153329Y-10841714D01*
X22153329Y-10841714D02*
X22181900Y-10841714D01*
X22181900Y-10841714D02*
X22200948Y-10851238D01*
X22200948Y-10851238D02*
X22210471Y-10860762D01*
X22210471Y-10860762D02*
X22219995Y-10879810D01*
X22219995Y-10879810D02*
X22219995Y-10927429D01*
X22219995Y-10927429D02*
X22210471Y-10946476D01*
X22210471Y-10946476D02*
X22200948Y-10956000D01*
X22200948Y-10956000D02*
X22181900Y-10965524D01*
X22181900Y-10965524D02*
X22124757Y-10965524D01*
X22124757Y-10965524D02*
X22105710Y-10956000D01*
X22105710Y-10956000D02*
X22096186Y-10946476D01*
X22343805Y-10765524D02*
X22362852Y-10765524D01*
X22362852Y-10765524D02*
X22381900Y-10775048D01*
X22381900Y-10775048D02*
X22391424Y-10784571D01*
X22391424Y-10784571D02*
X22400948Y-10803619D01*
X22400948Y-10803619D02*
X22410471Y-10841714D01*
X22410471Y-10841714D02*
X22410471Y-10889333D01*
X22410471Y-10889333D02*
X22400948Y-10927429D01*
X22400948Y-10927429D02*
X22391424Y-10946476D01*
X22391424Y-10946476D02*
X22381900Y-10956000D01*
X22381900Y-10956000D02*
X22362852Y-10965524D01*
X22362852Y-10965524D02*
X22343805Y-10965524D01*
X22343805Y-10965524D02*
X22324757Y-10956000D01*
X22324757Y-10956000D02*
X22315233Y-10946476D01*
X22315233Y-10946476D02*
X22305710Y-10927429D01*
X22305710Y-10927429D02*
X22296186Y-10889333D01*
X22296186Y-10889333D02*
X22296186Y-10841714D01*
X22296186Y-10841714D02*
X22305710Y-10803619D01*
X22305710Y-10803619D02*
X22315233Y-10784571D01*
X22315233Y-10784571D02*
X22324757Y-10775048D01*
X22324757Y-10775048D02*
X22343805Y-10765524D01*
X22534281Y-10765524D02*
X22553329Y-10765524D01*
X22553329Y-10765524D02*
X22572376Y-10775048D01*
X22572376Y-10775048D02*
X22581900Y-10784571D01*
X22581900Y-10784571D02*
X22591424Y-10803619D01*
X22591424Y-10803619D02*
X22600948Y-10841714D01*
X22600948Y-10841714D02*
X22600948Y-10889333D01*
X22600948Y-10889333D02*
X22591424Y-10927429D01*
X22591424Y-10927429D02*
X22581900Y-10946476D01*
X22581900Y-10946476D02*
X22572376Y-10956000D01*
X22572376Y-10956000D02*
X22553329Y-10965524D01*
X22553329Y-10965524D02*
X22534281Y-10965524D01*
X22534281Y-10965524D02*
X22515233Y-10956000D01*
X22515233Y-10956000D02*
X22505709Y-10946476D01*
X22505709Y-10946476D02*
X22496186Y-10927429D01*
X22496186Y-10927429D02*
X22486662Y-10889333D01*
X22486662Y-10889333D02*
X22486662Y-10841714D01*
X22486662Y-10841714D02*
X22496186Y-10803619D01*
X22496186Y-10803619D02*
X22505709Y-10784571D01*
X22505709Y-10784571D02*
X22515233Y-10775048D01*
X22515233Y-10775048D02*
X22534281Y-10765524D01*
X22686662Y-10965524D02*
X22686662Y-10832190D01*
X22686662Y-10851238D02*
X22696186Y-10841714D01*
X22696186Y-10841714D02*
X22715233Y-10832190D01*
X22715233Y-10832190D02*
X22743805Y-10832190D01*
X22743805Y-10832190D02*
X22762852Y-10841714D01*
X22762852Y-10841714D02*
X22772376Y-10860762D01*
X22772376Y-10860762D02*
X22772376Y-10965524D01*
X22772376Y-10860762D02*
X22781900Y-10841714D01*
X22781900Y-10841714D02*
X22800948Y-10832190D01*
X22800948Y-10832190D02*
X22829519Y-10832190D01*
X22829519Y-10832190D02*
X22848567Y-10841714D01*
X22848567Y-10841714D02*
X22858090Y-10860762D01*
X22858090Y-10860762D02*
X22858090Y-10965524D01*
X22953329Y-10965524D02*
X22953329Y-10832190D01*
X22953329Y-10851238D02*
X22962852Y-10841714D01*
X22962852Y-10841714D02*
X22981900Y-10832190D01*
X22981900Y-10832190D02*
X23010471Y-10832190D01*
X23010471Y-10832190D02*
X23029519Y-10841714D01*
X23029519Y-10841714D02*
X23039043Y-10860762D01*
X23039043Y-10860762D02*
X23039043Y-10965524D01*
X23039043Y-10860762D02*
X23048567Y-10841714D01*
X23048567Y-10841714D02*
X23067614Y-10832190D01*
X23067614Y-10832190D02*
X23096186Y-10832190D01*
X23096186Y-10832190D02*
X23115233Y-10841714D01*
X23115233Y-10841714D02*
X23124757Y-10860762D01*
X23124757Y-10860762D02*
X23124757Y-10965524D01*
X23515233Y-10756000D02*
X23343805Y-11013143D01*
X23772376Y-10765524D02*
X23791424Y-10765524D01*
X23791424Y-10765524D02*
X23810472Y-10775048D01*
X23810472Y-10775048D02*
X23819995Y-10784571D01*
X23819995Y-10784571D02*
X23829519Y-10803619D01*
X23829519Y-10803619D02*
X23839043Y-10841714D01*
X23839043Y-10841714D02*
X23839043Y-10889333D01*
X23839043Y-10889333D02*
X23829519Y-10927429D01*
X23829519Y-10927429D02*
X23819995Y-10946476D01*
X23819995Y-10946476D02*
X23810472Y-10956000D01*
X23810472Y-10956000D02*
X23791424Y-10965524D01*
X23791424Y-10965524D02*
X23772376Y-10965524D01*
X23772376Y-10965524D02*
X23753329Y-10956000D01*
X23753329Y-10956000D02*
X23743805Y-10946476D01*
X23743805Y-10946476D02*
X23734281Y-10927429D01*
X23734281Y-10927429D02*
X23724757Y-10889333D01*
X23724757Y-10889333D02*
X23724757Y-10841714D01*
X23724757Y-10841714D02*
X23734281Y-10803619D01*
X23734281Y-10803619D02*
X23743805Y-10784571D01*
X23743805Y-10784571D02*
X23753329Y-10775048D01*
X23753329Y-10775048D02*
X23772376Y-10765524D01*
X23924757Y-10946476D02*
X23934281Y-10956000D01*
X23934281Y-10956000D02*
X23924757Y-10965524D01*
X23924757Y-10965524D02*
X23915233Y-10956000D01*
X23915233Y-10956000D02*
X23924757Y-10946476D01*
X23924757Y-10946476D02*
X23924757Y-10965524D01*
X24058091Y-10765524D02*
X24077138Y-10765524D01*
X24077138Y-10765524D02*
X24096186Y-10775048D01*
X24096186Y-10775048D02*
X24105710Y-10784571D01*
X24105710Y-10784571D02*
X24115233Y-10803619D01*
X24115233Y-10803619D02*
X24124757Y-10841714D01*
X24124757Y-10841714D02*
X24124757Y-10889333D01*
X24124757Y-10889333D02*
X24115233Y-10927429D01*
X24115233Y-10927429D02*
X24105710Y-10946476D01*
X24105710Y-10946476D02*
X24096186Y-10956000D01*
X24096186Y-10956000D02*
X24077138Y-10965524D01*
X24077138Y-10965524D02*
X24058091Y-10965524D01*
X24058091Y-10965524D02*
X24039043Y-10956000D01*
X24039043Y-10956000D02*
X24029519Y-10946476D01*
X24029519Y-10946476D02*
X24019995Y-10927429D01*
X24019995Y-10927429D02*
X24010472Y-10889333D01*
X24010472Y-10889333D02*
X24010472Y-10841714D01*
X24010472Y-10841714D02*
X24019995Y-10803619D01*
X24019995Y-10803619D02*
X24029519Y-10784571D01*
X24029519Y-10784571D02*
X24039043Y-10775048D01*
X24039043Y-10775048D02*
X24058091Y-10765524D01*
X24305710Y-10765524D02*
X24210472Y-10765524D01*
X24210472Y-10765524D02*
X24200948Y-10860762D01*
X24200948Y-10860762D02*
X24210472Y-10851238D01*
X24210472Y-10851238D02*
X24229519Y-10841714D01*
X24229519Y-10841714D02*
X24277138Y-10841714D01*
X24277138Y-10841714D02*
X24296186Y-10851238D01*
X24296186Y-10851238D02*
X24305710Y-10860762D01*
X24305710Y-10860762D02*
X24315233Y-10879810D01*
X24315233Y-10879810D02*
X24315233Y-10927429D01*
X24315233Y-10927429D02*
X24305710Y-10946476D01*
X24305710Y-10946476D02*
X24296186Y-10956000D01*
X24296186Y-10956000D02*
X24277138Y-10965524D01*
X24277138Y-10965524D02*
X24229519Y-10965524D01*
X24229519Y-10965524D02*
X24210472Y-10956000D01*
X24210472Y-10956000D02*
X24200948Y-10946476D01*
X24505710Y-10965524D02*
X24391424Y-10965524D01*
X24448567Y-10965524D02*
X24448567Y-10765524D01*
X24448567Y-10765524D02*
X24429519Y-10794095D01*
X24429519Y-10794095D02*
X24410472Y-10813143D01*
X24410472Y-10813143D02*
X24391424Y-10822667D01*
X24581900Y-10784571D02*
X24591424Y-10775048D01*
X24591424Y-10775048D02*
X24610472Y-10765524D01*
X24610472Y-10765524D02*
X24658091Y-10765524D01*
X24658091Y-10765524D02*
X24677138Y-10775048D01*
X24677138Y-10775048D02*
X24686662Y-10784571D01*
X24686662Y-10784571D02*
X24696186Y-10803619D01*
X24696186Y-10803619D02*
X24696186Y-10822667D01*
X24696186Y-10822667D02*
X24686662Y-10851238D01*
X24686662Y-10851238D02*
X24572376Y-10965524D01*
X24572376Y-10965524D02*
X24696186Y-10965524D01*
X24772376Y-10765524D02*
X24772376Y-10803619D01*
X24848567Y-10765524D02*
X24848567Y-10803619D01*
X25143805Y-11041714D02*
X25134281Y-11032190D01*
X25134281Y-11032190D02*
X25115234Y-11003619D01*
X25115234Y-11003619D02*
X25105710Y-10984571D01*
X25105710Y-10984571D02*
X25096186Y-10956000D01*
X25096186Y-10956000D02*
X25086662Y-10908381D01*
X25086662Y-10908381D02*
X25086662Y-10870286D01*
X25086662Y-10870286D02*
X25096186Y-10822667D01*
X25096186Y-10822667D02*
X25105710Y-10794095D01*
X25105710Y-10794095D02*
X25115234Y-10775048D01*
X25115234Y-10775048D02*
X25134281Y-10746476D01*
X25134281Y-10746476D02*
X25143805Y-10736952D01*
X25305710Y-10832190D02*
X25305710Y-10965524D01*
X25258091Y-10756000D02*
X25210472Y-10898857D01*
X25210472Y-10898857D02*
X25334281Y-10898857D01*
X25562853Y-10965524D02*
X25562853Y-10765524D01*
X25648567Y-10965524D02*
X25648567Y-10860762D01*
X25648567Y-10860762D02*
X25639043Y-10841714D01*
X25639043Y-10841714D02*
X25619996Y-10832190D01*
X25619996Y-10832190D02*
X25591424Y-10832190D01*
X25591424Y-10832190D02*
X25572376Y-10841714D01*
X25572376Y-10841714D02*
X25562853Y-10851238D01*
X25772376Y-10965524D02*
X25753329Y-10956000D01*
X25753329Y-10956000D02*
X25743805Y-10946476D01*
X25743805Y-10946476D02*
X25734281Y-10927429D01*
X25734281Y-10927429D02*
X25734281Y-10870286D01*
X25734281Y-10870286D02*
X25743805Y-10851238D01*
X25743805Y-10851238D02*
X25753329Y-10841714D01*
X25753329Y-10841714D02*
X25772376Y-10832190D01*
X25772376Y-10832190D02*
X25800948Y-10832190D01*
X25800948Y-10832190D02*
X25819996Y-10841714D01*
X25819996Y-10841714D02*
X25829519Y-10851238D01*
X25829519Y-10851238D02*
X25839043Y-10870286D01*
X25839043Y-10870286D02*
X25839043Y-10927429D01*
X25839043Y-10927429D02*
X25829519Y-10946476D01*
X25829519Y-10946476D02*
X25819996Y-10956000D01*
X25819996Y-10956000D02*
X25800948Y-10965524D01*
X25800948Y-10965524D02*
X25772376Y-10965524D01*
X25953329Y-10965524D02*
X25934281Y-10956000D01*
X25934281Y-10956000D02*
X25924757Y-10936952D01*
X25924757Y-10936952D02*
X25924757Y-10765524D01*
X26105710Y-10956000D02*
X26086662Y-10965524D01*
X26086662Y-10965524D02*
X26048567Y-10965524D01*
X26048567Y-10965524D02*
X26029519Y-10956000D01*
X26029519Y-10956000D02*
X26019996Y-10936952D01*
X26019996Y-10936952D02*
X26019996Y-10860762D01*
X26019996Y-10860762D02*
X26029519Y-10841714D01*
X26029519Y-10841714D02*
X26048567Y-10832190D01*
X26048567Y-10832190D02*
X26086662Y-10832190D01*
X26086662Y-10832190D02*
X26105710Y-10841714D01*
X26105710Y-10841714D02*
X26115234Y-10860762D01*
X26115234Y-10860762D02*
X26115234Y-10879810D01*
X26115234Y-10879810D02*
X26019996Y-10898857D01*
X26191424Y-10956000D02*
X26210472Y-10965524D01*
X26210472Y-10965524D02*
X26248567Y-10965524D01*
X26248567Y-10965524D02*
X26267615Y-10956000D01*
X26267615Y-10956000D02*
X26277138Y-10936952D01*
X26277138Y-10936952D02*
X26277138Y-10927429D01*
X26277138Y-10927429D02*
X26267615Y-10908381D01*
X26267615Y-10908381D02*
X26248567Y-10898857D01*
X26248567Y-10898857D02*
X26219996Y-10898857D01*
X26219996Y-10898857D02*
X26200948Y-10889333D01*
X26200948Y-10889333D02*
X26191424Y-10870286D01*
X26191424Y-10870286D02*
X26191424Y-10860762D01*
X26191424Y-10860762D02*
X26200948Y-10841714D01*
X26200948Y-10841714D02*
X26219996Y-10832190D01*
X26219996Y-10832190D02*
X26248567Y-10832190D01*
X26248567Y-10832190D02*
X26267615Y-10841714D01*
X26343805Y-11041714D02*
X26353329Y-11032190D01*
X26353329Y-11032190D02*
X26372377Y-11003619D01*
X26372377Y-11003619D02*
X26381900Y-10984571D01*
X26381900Y-10984571D02*
X26391424Y-10956000D01*
X26391424Y-10956000D02*
X26400948Y-10908381D01*
X26400948Y-10908381D02*
X26400948Y-10870286D01*
X26400948Y-10870286D02*
X26391424Y-10822667D01*
X26391424Y-10822667D02*
X26381900Y-10794095D01*
X26381900Y-10794095D02*
X26372377Y-10775048D01*
X26372377Y-10775048D02*
X26353329Y-10746476D01*
X26353329Y-10746476D02*
X26343805Y-10736952D01*
X21481900Y-11237000D02*
X21581900Y-11137000D01*
X21481900Y-11037000D01*
X21381900Y-11137000D01*
X21481900Y-11237000D01*
X21819995Y-11048571D02*
X21829519Y-11039048D01*
X21829519Y-11039048D02*
X21848567Y-11029524D01*
X21848567Y-11029524D02*
X21896186Y-11029524D01*
X21896186Y-11029524D02*
X21915233Y-11039048D01*
X21915233Y-11039048D02*
X21924757Y-11048571D01*
X21924757Y-11048571D02*
X21934281Y-11067619D01*
X21934281Y-11067619D02*
X21934281Y-11086667D01*
X21934281Y-11086667D02*
X21924757Y-11115238D01*
X21924757Y-11115238D02*
X21810471Y-11229524D01*
X21810471Y-11229524D02*
X21934281Y-11229524D01*
X22019995Y-11210476D02*
X22029519Y-11220000D01*
X22029519Y-11220000D02*
X22019995Y-11229524D01*
X22019995Y-11229524D02*
X22010471Y-11220000D01*
X22010471Y-11220000D02*
X22019995Y-11210476D01*
X22019995Y-11210476D02*
X22019995Y-11229524D01*
X22096186Y-11029524D02*
X22219995Y-11029524D01*
X22219995Y-11029524D02*
X22153329Y-11105714D01*
X22153329Y-11105714D02*
X22181900Y-11105714D01*
X22181900Y-11105714D02*
X22200948Y-11115238D01*
X22200948Y-11115238D02*
X22210471Y-11124762D01*
X22210471Y-11124762D02*
X22219995Y-11143810D01*
X22219995Y-11143810D02*
X22219995Y-11191428D01*
X22219995Y-11191428D02*
X22210471Y-11210476D01*
X22210471Y-11210476D02*
X22200948Y-11220000D01*
X22200948Y-11220000D02*
X22181900Y-11229524D01*
X22181900Y-11229524D02*
X22124757Y-11229524D01*
X22124757Y-11229524D02*
X22105710Y-11220000D01*
X22105710Y-11220000D02*
X22096186Y-11210476D01*
X22343805Y-11029524D02*
X22362852Y-11029524D01*
X22362852Y-11029524D02*
X22381900Y-11039048D01*
X22381900Y-11039048D02*
X22391424Y-11048571D01*
X22391424Y-11048571D02*
X22400948Y-11067619D01*
X22400948Y-11067619D02*
X22410471Y-11105714D01*
X22410471Y-11105714D02*
X22410471Y-11153333D01*
X22410471Y-11153333D02*
X22400948Y-11191428D01*
X22400948Y-11191428D02*
X22391424Y-11210476D01*
X22391424Y-11210476D02*
X22381900Y-11220000D01*
X22381900Y-11220000D02*
X22362852Y-11229524D01*
X22362852Y-11229524D02*
X22343805Y-11229524D01*
X22343805Y-11229524D02*
X22324757Y-11220000D01*
X22324757Y-11220000D02*
X22315233Y-11210476D01*
X22315233Y-11210476D02*
X22305710Y-11191428D01*
X22305710Y-11191428D02*
X22296186Y-11153333D01*
X22296186Y-11153333D02*
X22296186Y-11105714D01*
X22296186Y-11105714D02*
X22305710Y-11067619D01*
X22305710Y-11067619D02*
X22315233Y-11048571D01*
X22315233Y-11048571D02*
X22324757Y-11039048D01*
X22324757Y-11039048D02*
X22343805Y-11029524D01*
X22534281Y-11029524D02*
X22553329Y-11029524D01*
X22553329Y-11029524D02*
X22572376Y-11039048D01*
X22572376Y-11039048D02*
X22581900Y-11048571D01*
X22581900Y-11048571D02*
X22591424Y-11067619D01*
X22591424Y-11067619D02*
X22600948Y-11105714D01*
X22600948Y-11105714D02*
X22600948Y-11153333D01*
X22600948Y-11153333D02*
X22591424Y-11191428D01*
X22591424Y-11191428D02*
X22581900Y-11210476D01*
X22581900Y-11210476D02*
X22572376Y-11220000D01*
X22572376Y-11220000D02*
X22553329Y-11229524D01*
X22553329Y-11229524D02*
X22534281Y-11229524D01*
X22534281Y-11229524D02*
X22515233Y-11220000D01*
X22515233Y-11220000D02*
X22505709Y-11210476D01*
X22505709Y-11210476D02*
X22496186Y-11191428D01*
X22496186Y-11191428D02*
X22486662Y-11153333D01*
X22486662Y-11153333D02*
X22486662Y-11105714D01*
X22486662Y-11105714D02*
X22496186Y-11067619D01*
X22496186Y-11067619D02*
X22505709Y-11048571D01*
X22505709Y-11048571D02*
X22515233Y-11039048D01*
X22515233Y-11039048D02*
X22534281Y-11029524D01*
X22686662Y-11229524D02*
X22686662Y-11096190D01*
X22686662Y-11115238D02*
X22696186Y-11105714D01*
X22696186Y-11105714D02*
X22715233Y-11096190D01*
X22715233Y-11096190D02*
X22743805Y-11096190D01*
X22743805Y-11096190D02*
X22762852Y-11105714D01*
X22762852Y-11105714D02*
X22772376Y-11124762D01*
X22772376Y-11124762D02*
X22772376Y-11229524D01*
X22772376Y-11124762D02*
X22781900Y-11105714D01*
X22781900Y-11105714D02*
X22800948Y-11096190D01*
X22800948Y-11096190D02*
X22829519Y-11096190D01*
X22829519Y-11096190D02*
X22848567Y-11105714D01*
X22848567Y-11105714D02*
X22858090Y-11124762D01*
X22858090Y-11124762D02*
X22858090Y-11229524D01*
X22953329Y-11229524D02*
X22953329Y-11096190D01*
X22953329Y-11115238D02*
X22962852Y-11105714D01*
X22962852Y-11105714D02*
X22981900Y-11096190D01*
X22981900Y-11096190D02*
X23010471Y-11096190D01*
X23010471Y-11096190D02*
X23029519Y-11105714D01*
X23029519Y-11105714D02*
X23039043Y-11124762D01*
X23039043Y-11124762D02*
X23039043Y-11229524D01*
X23039043Y-11124762D02*
X23048567Y-11105714D01*
X23048567Y-11105714D02*
X23067614Y-11096190D01*
X23067614Y-11096190D02*
X23096186Y-11096190D01*
X23096186Y-11096190D02*
X23115233Y-11105714D01*
X23115233Y-11105714D02*
X23124757Y-11124762D01*
X23124757Y-11124762D02*
X23124757Y-11229524D01*
X23515233Y-11020000D02*
X23343805Y-11277143D01*
X23772376Y-11029524D02*
X23791424Y-11029524D01*
X23791424Y-11029524D02*
X23810472Y-11039048D01*
X23810472Y-11039048D02*
X23819995Y-11048571D01*
X23819995Y-11048571D02*
X23829519Y-11067619D01*
X23829519Y-11067619D02*
X23839043Y-11105714D01*
X23839043Y-11105714D02*
X23839043Y-11153333D01*
X23839043Y-11153333D02*
X23829519Y-11191428D01*
X23829519Y-11191428D02*
X23819995Y-11210476D01*
X23819995Y-11210476D02*
X23810472Y-11220000D01*
X23810472Y-11220000D02*
X23791424Y-11229524D01*
X23791424Y-11229524D02*
X23772376Y-11229524D01*
X23772376Y-11229524D02*
X23753329Y-11220000D01*
X23753329Y-11220000D02*
X23743805Y-11210476D01*
X23743805Y-11210476D02*
X23734281Y-11191428D01*
X23734281Y-11191428D02*
X23724757Y-11153333D01*
X23724757Y-11153333D02*
X23724757Y-11105714D01*
X23724757Y-11105714D02*
X23734281Y-11067619D01*
X23734281Y-11067619D02*
X23743805Y-11048571D01*
X23743805Y-11048571D02*
X23753329Y-11039048D01*
X23753329Y-11039048D02*
X23772376Y-11029524D01*
X23924757Y-11210476D02*
X23934281Y-11220000D01*
X23934281Y-11220000D02*
X23924757Y-11229524D01*
X23924757Y-11229524D02*
X23915233Y-11220000D01*
X23915233Y-11220000D02*
X23924757Y-11210476D01*
X23924757Y-11210476D02*
X23924757Y-11229524D01*
X24058091Y-11029524D02*
X24077138Y-11029524D01*
X24077138Y-11029524D02*
X24096186Y-11039048D01*
X24096186Y-11039048D02*
X24105710Y-11048571D01*
X24105710Y-11048571D02*
X24115233Y-11067619D01*
X24115233Y-11067619D02*
X24124757Y-11105714D01*
X24124757Y-11105714D02*
X24124757Y-11153333D01*
X24124757Y-11153333D02*
X24115233Y-11191428D01*
X24115233Y-11191428D02*
X24105710Y-11210476D01*
X24105710Y-11210476D02*
X24096186Y-11220000D01*
X24096186Y-11220000D02*
X24077138Y-11229524D01*
X24077138Y-11229524D02*
X24058091Y-11229524D01*
X24058091Y-11229524D02*
X24039043Y-11220000D01*
X24039043Y-11220000D02*
X24029519Y-11210476D01*
X24029519Y-11210476D02*
X24019995Y-11191428D01*
X24019995Y-11191428D02*
X24010472Y-11153333D01*
X24010472Y-11153333D02*
X24010472Y-11105714D01*
X24010472Y-11105714D02*
X24019995Y-11067619D01*
X24019995Y-11067619D02*
X24029519Y-11048571D01*
X24029519Y-11048571D02*
X24039043Y-11039048D01*
X24039043Y-11039048D02*
X24058091Y-11029524D01*
X24219995Y-11229524D02*
X24258091Y-11229524D01*
X24258091Y-11229524D02*
X24277138Y-11220000D01*
X24277138Y-11220000D02*
X24286662Y-11210476D01*
X24286662Y-11210476D02*
X24305710Y-11181905D01*
X24305710Y-11181905D02*
X24315233Y-11143810D01*
X24315233Y-11143810D02*
X24315233Y-11067619D01*
X24315233Y-11067619D02*
X24305710Y-11048571D01*
X24305710Y-11048571D02*
X24296186Y-11039048D01*
X24296186Y-11039048D02*
X24277138Y-11029524D01*
X24277138Y-11029524D02*
X24239043Y-11029524D01*
X24239043Y-11029524D02*
X24219995Y-11039048D01*
X24219995Y-11039048D02*
X24210472Y-11048571D01*
X24210472Y-11048571D02*
X24200948Y-11067619D01*
X24200948Y-11067619D02*
X24200948Y-11115238D01*
X24200948Y-11115238D02*
X24210472Y-11134286D01*
X24210472Y-11134286D02*
X24219995Y-11143810D01*
X24219995Y-11143810D02*
X24239043Y-11153333D01*
X24239043Y-11153333D02*
X24277138Y-11153333D01*
X24277138Y-11153333D02*
X24296186Y-11143810D01*
X24296186Y-11143810D02*
X24305710Y-11134286D01*
X24305710Y-11134286D02*
X24315233Y-11115238D01*
X24439043Y-11029524D02*
X24458091Y-11029524D01*
X24458091Y-11029524D02*
X24477138Y-11039048D01*
X24477138Y-11039048D02*
X24486662Y-11048571D01*
X24486662Y-11048571D02*
X24496186Y-11067619D01*
X24496186Y-11067619D02*
X24505710Y-11105714D01*
X24505710Y-11105714D02*
X24505710Y-11153333D01*
X24505710Y-11153333D02*
X24496186Y-11191428D01*
X24496186Y-11191428D02*
X24486662Y-11210476D01*
X24486662Y-11210476D02*
X24477138Y-11220000D01*
X24477138Y-11220000D02*
X24458091Y-11229524D01*
X24458091Y-11229524D02*
X24439043Y-11229524D01*
X24439043Y-11229524D02*
X24419995Y-11220000D01*
X24419995Y-11220000D02*
X24410472Y-11210476D01*
X24410472Y-11210476D02*
X24400948Y-11191428D01*
X24400948Y-11191428D02*
X24391424Y-11153333D01*
X24391424Y-11153333D02*
X24391424Y-11105714D01*
X24391424Y-11105714D02*
X24400948Y-11067619D01*
X24400948Y-11067619D02*
X24410472Y-11048571D01*
X24410472Y-11048571D02*
X24419995Y-11039048D01*
X24419995Y-11039048D02*
X24439043Y-11029524D01*
X24677138Y-11029524D02*
X24639043Y-11029524D01*
X24639043Y-11029524D02*
X24619995Y-11039048D01*
X24619995Y-11039048D02*
X24610472Y-11048571D01*
X24610472Y-11048571D02*
X24591424Y-11077143D01*
X24591424Y-11077143D02*
X24581900Y-11115238D01*
X24581900Y-11115238D02*
X24581900Y-11191428D01*
X24581900Y-11191428D02*
X24591424Y-11210476D01*
X24591424Y-11210476D02*
X24600948Y-11220000D01*
X24600948Y-11220000D02*
X24619995Y-11229524D01*
X24619995Y-11229524D02*
X24658091Y-11229524D01*
X24658091Y-11229524D02*
X24677138Y-11220000D01*
X24677138Y-11220000D02*
X24686662Y-11210476D01*
X24686662Y-11210476D02*
X24696186Y-11191428D01*
X24696186Y-11191428D02*
X24696186Y-11143810D01*
X24696186Y-11143810D02*
X24686662Y-11124762D01*
X24686662Y-11124762D02*
X24677138Y-11115238D01*
X24677138Y-11115238D02*
X24658091Y-11105714D01*
X24658091Y-11105714D02*
X24619995Y-11105714D01*
X24619995Y-11105714D02*
X24600948Y-11115238D01*
X24600948Y-11115238D02*
X24591424Y-11124762D01*
X24591424Y-11124762D02*
X24581900Y-11143810D01*
X24772376Y-11029524D02*
X24772376Y-11067619D01*
X24848567Y-11029524D02*
X24848567Y-11067619D01*
X25143805Y-11305714D02*
X25134281Y-11296190D01*
X25134281Y-11296190D02*
X25115234Y-11267619D01*
X25115234Y-11267619D02*
X25105710Y-11248571D01*
X25105710Y-11248571D02*
X25096186Y-11220000D01*
X25096186Y-11220000D02*
X25086662Y-11172381D01*
X25086662Y-11172381D02*
X25086662Y-11134286D01*
X25086662Y-11134286D02*
X25096186Y-11086667D01*
X25096186Y-11086667D02*
X25105710Y-11058095D01*
X25105710Y-11058095D02*
X25115234Y-11039048D01*
X25115234Y-11039048D02*
X25134281Y-11010476D01*
X25134281Y-11010476D02*
X25143805Y-11000952D01*
X25305710Y-11096190D02*
X25305710Y-11229524D01*
X25258091Y-11020000D02*
X25210472Y-11162857D01*
X25210472Y-11162857D02*
X25334281Y-11162857D01*
X25562853Y-11229524D02*
X25562853Y-11029524D01*
X25648567Y-11229524D02*
X25648567Y-11124762D01*
X25648567Y-11124762D02*
X25639043Y-11105714D01*
X25639043Y-11105714D02*
X25619996Y-11096190D01*
X25619996Y-11096190D02*
X25591424Y-11096190D01*
X25591424Y-11096190D02*
X25572376Y-11105714D01*
X25572376Y-11105714D02*
X25562853Y-11115238D01*
X25772376Y-11229524D02*
X25753329Y-11220000D01*
X25753329Y-11220000D02*
X25743805Y-11210476D01*
X25743805Y-11210476D02*
X25734281Y-11191428D01*
X25734281Y-11191428D02*
X25734281Y-11134286D01*
X25734281Y-11134286D02*
X25743805Y-11115238D01*
X25743805Y-11115238D02*
X25753329Y-11105714D01*
X25753329Y-11105714D02*
X25772376Y-11096190D01*
X25772376Y-11096190D02*
X25800948Y-11096190D01*
X25800948Y-11096190D02*
X25819996Y-11105714D01*
X25819996Y-11105714D02*
X25829519Y-11115238D01*
X25829519Y-11115238D02*
X25839043Y-11134286D01*
X25839043Y-11134286D02*
X25839043Y-11191428D01*
X25839043Y-11191428D02*
X25829519Y-11210476D01*
X25829519Y-11210476D02*
X25819996Y-11220000D01*
X25819996Y-11220000D02*
X25800948Y-11229524D01*
X25800948Y-11229524D02*
X25772376Y-11229524D01*
X25953329Y-11229524D02*
X25934281Y-11220000D01*
X25934281Y-11220000D02*
X25924757Y-11200952D01*
X25924757Y-11200952D02*
X25924757Y-11029524D01*
X26105710Y-11220000D02*
X26086662Y-11229524D01*
X26086662Y-11229524D02*
X26048567Y-11229524D01*
X26048567Y-11229524D02*
X26029519Y-11220000D01*
X26029519Y-11220000D02*
X26019996Y-11200952D01*
X26019996Y-11200952D02*
X26019996Y-11124762D01*
X26019996Y-11124762D02*
X26029519Y-11105714D01*
X26029519Y-11105714D02*
X26048567Y-11096190D01*
X26048567Y-11096190D02*
X26086662Y-11096190D01*
X26086662Y-11096190D02*
X26105710Y-11105714D01*
X26105710Y-11105714D02*
X26115234Y-11124762D01*
X26115234Y-11124762D02*
X26115234Y-11143810D01*
X26115234Y-11143810D02*
X26019996Y-11162857D01*
X26191424Y-11220000D02*
X26210472Y-11229524D01*
X26210472Y-11229524D02*
X26248567Y-11229524D01*
X26248567Y-11229524D02*
X26267615Y-11220000D01*
X26267615Y-11220000D02*
X26277138Y-11200952D01*
X26277138Y-11200952D02*
X26277138Y-11191428D01*
X26277138Y-11191428D02*
X26267615Y-11172381D01*
X26267615Y-11172381D02*
X26248567Y-11162857D01*
X26248567Y-11162857D02*
X26219996Y-11162857D01*
X26219996Y-11162857D02*
X26200948Y-11153333D01*
X26200948Y-11153333D02*
X26191424Y-11134286D01*
X26191424Y-11134286D02*
X26191424Y-11124762D01*
X26191424Y-11124762D02*
X26200948Y-11105714D01*
X26200948Y-11105714D02*
X26219996Y-11096190D01*
X26219996Y-11096190D02*
X26248567Y-11096190D01*
X26248567Y-11096190D02*
X26267615Y-11105714D01*
X26343805Y-11305714D02*
X26353329Y-11296190D01*
X26353329Y-11296190D02*
X26372377Y-11267619D01*
X26372377Y-11267619D02*
X26381900Y-11248571D01*
X26381900Y-11248571D02*
X26391424Y-11220000D01*
X26391424Y-11220000D02*
X26400948Y-11172381D01*
X26400948Y-11172381D02*
X26400948Y-11134286D01*
X26400948Y-11134286D02*
X26391424Y-11086667D01*
X26391424Y-11086667D02*
X26381900Y-11058095D01*
X26381900Y-11058095D02*
X26372377Y-11039048D01*
X26372377Y-11039048D02*
X26353329Y-11010476D01*
X26353329Y-11010476D02*
X26343805Y-11000952D01*
M02*
