%TF.GenerationSoftware,KiCad,Pcbnew,7.0.2*%
%TF.CreationDate,2023-05-17T08:13:23+02:00*%
%TF.ProjectId,5V DC Smart Socket,35562044-4320-4536-9d61-727420536f63,rev?*%
%TF.SameCoordinates,Original*%
%TF.FileFunction,Soldermask,Bot*%
%TF.FilePolarity,Negative*%
%FSLAX46Y46*%
G04 Gerber Fmt 4.6, Leading zero omitted, Abs format (unit mm)*
G04 Created by KiCad (PCBNEW 7.0.2) date 2023-05-17 08:13:23*
%MOMM*%
%LPD*%
G01*
G04 APERTURE LIST*
G04 Aperture macros list*
%AMRoundRect*
0 Rectangle with rounded corners*
0 $1 Rounding radius*
0 $2 $3 $4 $5 $6 $7 $8 $9 X,Y pos of 4 corners*
0 Add a 4 corners polygon primitive as box body*
4,1,4,$2,$3,$4,$5,$6,$7,$8,$9,$2,$3,0*
0 Add four circle primitives for the rounded corners*
1,1,$1+$1,$2,$3*
1,1,$1+$1,$4,$5*
1,1,$1+$1,$6,$7*
1,1,$1+$1,$8,$9*
0 Add four rect primitives between the rounded corners*
20,1,$1+$1,$2,$3,$4,$5,0*
20,1,$1+$1,$4,$5,$6,$7,0*
20,1,$1+$1,$6,$7,$8,$9,0*
20,1,$1+$1,$8,$9,$2,$3,0*%
G04 Aperture macros list end*
%ADD10RoundRect,0.250000X-0.450000X0.350000X-0.450000X-0.350000X0.450000X-0.350000X0.450000X0.350000X0*%
%ADD11RoundRect,0.150000X-0.150000X-0.625000X0.150000X-0.625000X0.150000X0.625000X-0.150000X0.625000X0*%
%ADD12RoundRect,0.250000X-0.350000X-0.650000X0.350000X-0.650000X0.350000X0.650000X-0.350000X0.650000X0*%
%ADD13R,1.524000X1.524000*%
%ADD14C,1.524000*%
%ADD15C,3.500000*%
%ADD16RoundRect,0.250000X0.337500X0.475000X-0.337500X0.475000X-0.337500X-0.475000X0.337500X-0.475000X0*%
%ADD17RoundRect,0.250001X0.462499X0.624999X-0.462499X0.624999X-0.462499X-0.624999X0.462499X-0.624999X0*%
%ADD18RoundRect,0.250000X-0.337500X-0.475000X0.337500X-0.475000X0.337500X0.475000X-0.337500X0.475000X0*%
%ADD19R,0.420000X1.100000*%
%ADD20R,2.500000X1.600000*%
%ADD21RoundRect,0.250000X-1.075000X0.375000X-1.075000X-0.375000X1.075000X-0.375000X1.075000X0.375000X0*%
%ADD22R,1.800000X1.800000*%
%ADD23C,1.800000*%
%ADD24R,2.600000X2.600000*%
%ADD25C,2.600000*%
G04 APERTURE END LIST*
D10*
%TO.C,AR1*%
X181652500Y-73650000D03*
X181652500Y-75650000D03*
%TD*%
D11*
%TO.C,SHJ1*%
X173930000Y-64135000D03*
X174930000Y-64135000D03*
D12*
X172630000Y-60260000D03*
X176230000Y-60260000D03*
%TD*%
D13*
%TO.C,REF\u002A\u002A*%
X161490000Y-85300000D03*
D14*
X158990000Y-85300000D03*
X156990000Y-85300000D03*
X154490000Y-85300000D03*
D15*
X164560000Y-88010000D03*
X151420000Y-88010000D03*
%TD*%
D11*
%TO.C,SHJ1*%
X158460000Y-64135000D03*
X159460000Y-64135000D03*
D12*
X157160000Y-60260000D03*
X160760000Y-60260000D03*
%TD*%
D10*
%TO.C,AR2*%
X181592500Y-77630000D03*
X181592500Y-79630000D03*
%TD*%
D16*
%TO.C,AC2*%
X185030000Y-82070000D03*
X182955000Y-82070000D03*
%TD*%
D17*
%TO.C,F1*%
X160075000Y-66910000D03*
X157100000Y-66910000D03*
%TD*%
D11*
%TO.C,SHJ1*%
X179940000Y-64140000D03*
X180940000Y-64140000D03*
D12*
X178640000Y-60265000D03*
X182240000Y-60265000D03*
%TD*%
D18*
%TO.C,AC1*%
X179705000Y-71510000D03*
X181780000Y-71510000D03*
%TD*%
D13*
%TO.C,REF\u002A\u002A*%
X181280000Y-85280000D03*
D14*
X178780000Y-85280000D03*
X176780000Y-85280000D03*
X174280000Y-85280000D03*
D15*
X184350000Y-87990000D03*
X171210000Y-87990000D03*
%TD*%
D17*
%TO.C,F1*%
X182337500Y-66730000D03*
X179362500Y-66730000D03*
%TD*%
D11*
%TO.C,SHJ1*%
X152400000Y-64125000D03*
X153400000Y-64125000D03*
D12*
X151100000Y-60250000D03*
X154700000Y-60250000D03*
%TD*%
D19*
%TO.C,AU1*%
X183932500Y-76870000D03*
X184882500Y-76870000D03*
X185832500Y-76880000D03*
X185832500Y-80020000D03*
X184882500Y-80010000D03*
X183932500Y-80020000D03*
D20*
X184882500Y-78440000D03*
%TD*%
D21*
%TO.C,AL1*%
X184830000Y-71400000D03*
X184830000Y-74200000D03*
%TD*%
D17*
%TO.C,F1*%
X154037500Y-66880000D03*
X151062500Y-66880000D03*
%TD*%
D22*
%TO.C,REF\u002A\u002A*%
X167910000Y-89460000D03*
D23*
X167910000Y-91619000D03*
X167910000Y-93778000D03*
X167910000Y-95937000D03*
%TD*%
D17*
%TO.C,F1*%
X175887500Y-66720000D03*
X172912500Y-66720000D03*
%TD*%
D24*
%TO.C,TEMPMX1*%
X164870000Y-62130000D03*
D25*
X168370000Y-62130000D03*
%TD*%
M02*
