M48
; DRILL file {KiCad 7.0.2} date Sun May 21 15:20:32 2023
; FORMAT={-:-/ absolute / inch / decimal}
; #@! TF.CreationDate,2023-05-21T15:20:32+02:00
; #@! TF.GenerationSoftware,Kicad,Pcbnew,7.0.2
; #@! TF.FileFunction,Plated,1,2,PTH
FMAT,2
INCH
; #@! TA.AperFunction,Plated,PTH,ViaDrill
T1C0.0157
; #@! TA.AperFunction,Plated,PTH,ComponentDrill
T2C0.0354
; #@! TA.AperFunction,Plated,PTH,ComponentDrill
T3C0.0362
; #@! TA.AperFunction,Plated,PTH,ComponentDrill
T4C0.0512
; #@! TA.AperFunction,Plated,PTH,ComponentDrill
T5C0.0906
%
G90
G05
T1
X8.6051Y-2.7539
X8.6134Y-3.0465
X8.6776Y-2.4606
X8.7051Y-3.0118
X8.7453Y-2.7535
X8.7457Y-2.7114
X8.7898Y-2.8386
X8.8244Y-2.4819
X8.8441Y-3.0071
X8.9988Y-2.7927
X9.0138Y-3.0134
X9.0146Y-2.724
X9.0413Y-2.8142
X9.0516Y-3.089
X9.0776Y-2.6406
X9.0953Y-3.2339
X9.1075Y-3.0736
X9.2039Y-2.9618
X9.2079Y-3.2736
X9.213Y-3.3571
X9.2311Y-3.1276
X9.2362Y-3.3004
X9.2433Y-2.9539
X9.2728Y-3.1219
X9.2823Y-2.9606
X9.3232Y-2.9697
X9.3323Y-3.074
X9.4205Y-3.0484
X9.424Y-3.2965
X9.4283Y-3.2378
X9.4453Y-2.7047
X9.4638Y-3.1685
X9.4791Y-2.8638
X9.4898Y-2.7689
X9.5299Y-3.072
X9.5299Y-3.1628
X9.5311Y-2.774
X9.5343Y-2.4906
X9.5429Y-2.6764
X9.5681Y-2.9063
X9.5683Y-2.7502
X9.6441Y-2.7098
X9.6563Y-2.5827
X9.7858Y-2.2425
X9.8031Y-2.6295
X9.8142Y-3.1224
X9.8165Y-2.9339
X9.8563Y-2.6295
X9.8665Y-3.0098
X9.8689Y-2.8665
X9.874Y-2.3776
X10.0295Y-2.3673
T2
X9.211Y-3.1961
X9.311Y-3.1961
T3
X8.7106Y-3.2933
X8.8091Y-3.2933
X8.8878Y-3.2933
X8.9862Y-3.2933
X9.6224Y-3.2899
X9.7209Y-3.2899
X9.7996Y-3.2899
X9.898Y-3.2899
T4
X9.1091Y-2.3614
X9.2469Y-2.3614
X9.4654Y-2.361
X9.6031Y-2.361
T5
X8.5898Y-3.4
X9.1071Y-3.4
X9.5016Y-3.3966
X10.0189Y-3.3966
T0
M30
