%TF.GenerationSoftware,KiCad,Pcbnew,7.0.2*%
%TF.CreationDate,2023-05-17T08:13:23+02:00*%
%TF.ProjectId,5V DC Smart Socket,35562044-4320-4536-9d61-727420536f63,rev?*%
%TF.SameCoordinates,Original*%
%TF.FileFunction,Legend,Top*%
%TF.FilePolarity,Positive*%
%FSLAX46Y46*%
G04 Gerber Fmt 4.6, Leading zero omitted, Abs format (unit mm)*
G04 Created by KiCad (PCBNEW 7.0.2) date 2023-05-17 08:13:23*
%MOMM*%
%LPD*%
G01*
G04 APERTURE LIST*
%ADD10C,0.120000*%
%ADD11C,0.127000*%
%ADD12C,0.200000*%
%ADD13C,0.381000*%
G04 APERTURE END LIST*
%TO.C,G\u002A\u002A\u002A*%
G36*
X185941548Y-95942526D02*
G01*
X185986227Y-95949437D01*
X186044294Y-95974995D01*
X186068576Y-96015955D01*
X186056031Y-96063111D01*
X186032177Y-96088478D01*
X185978586Y-96112360D01*
X185901848Y-96125016D01*
X185819874Y-96125528D01*
X185750576Y-96112977D01*
X185730208Y-96103971D01*
X185702630Y-96068928D01*
X185693547Y-96018848D01*
X185703386Y-95972208D01*
X185726647Y-95949181D01*
X185780596Y-95939204D01*
X185858211Y-95936991D01*
X185941548Y-95942526D01*
G37*
G36*
X182705586Y-94233420D02*
G01*
X182774443Y-94268573D01*
X182809410Y-94327879D01*
X182814500Y-94371646D01*
X182799568Y-94445707D01*
X182753035Y-94496609D01*
X182672293Y-94526395D01*
X182605981Y-94535007D01*
X182475833Y-94544421D01*
X182475833Y-94221833D01*
X182602008Y-94221833D01*
X182705586Y-94233420D01*
G37*
G36*
X182675715Y-93788834D02*
G01*
X182739636Y-93823717D01*
X182769543Y-93882554D01*
X182772166Y-93912836D01*
X182758628Y-93983269D01*
X182715822Y-94028046D01*
X182640456Y-94049626D01*
X182585291Y-94052500D01*
X182475833Y-94052500D01*
X182475833Y-93777333D01*
X182576956Y-93777333D01*
X182675715Y-93788834D01*
G37*
G36*
X187450000Y-96338500D02*
G01*
X172211240Y-96338500D01*
X172210695Y-95167684D01*
X172404256Y-95167684D01*
X172404304Y-95394235D01*
X172404589Y-95599402D01*
X172405102Y-95780042D01*
X172405837Y-95933009D01*
X172406785Y-96055160D01*
X172407937Y-96143350D01*
X172409286Y-96194437D01*
X172410285Y-96206314D01*
X172419778Y-96210868D01*
X172445975Y-96214856D01*
X172491000Y-96218299D01*
X172556977Y-96221218D01*
X172646029Y-96223636D01*
X172760281Y-96225574D01*
X172901857Y-96227055D01*
X173072880Y-96228099D01*
X173275474Y-96228729D01*
X173511763Y-96228967D01*
X173783871Y-96228835D01*
X174093921Y-96228353D01*
X174444038Y-96227545D01*
X174468917Y-96227480D01*
X176517416Y-96222083D01*
X176517870Y-96069737D01*
X185503671Y-96069737D01*
X185532605Y-96138450D01*
X185591271Y-96197765D01*
X185650844Y-96230053D01*
X185711898Y-96243762D01*
X185799133Y-96250742D01*
X185896926Y-96250916D01*
X185989649Y-96244209D01*
X186056597Y-96232021D01*
X186155363Y-96188051D01*
X186219971Y-96122597D01*
X186248135Y-96039446D01*
X186237568Y-95942391D01*
X186235439Y-95935544D01*
X186191358Y-95864821D01*
X186115152Y-95815218D01*
X186013196Y-95790259D01*
X185968333Y-95787966D01*
X185886998Y-95784582D01*
X185806871Y-95776556D01*
X185792622Y-95774404D01*
X185739673Y-95761418D01*
X185718996Y-95741221D01*
X185718538Y-95717195D01*
X185727171Y-95692454D01*
X185750741Y-95678818D01*
X185799472Y-95672760D01*
X185851916Y-95671175D01*
X185877048Y-95668100D01*
X186373999Y-95668100D01*
X186374002Y-95778446D01*
X186375200Y-95867712D01*
X186377501Y-95928534D01*
X186380382Y-95952723D01*
X186409287Y-95972130D01*
X186475683Y-95974988D01*
X186481431Y-95974601D01*
X186571583Y-95968083D01*
X186582166Y-95669608D01*
X186588248Y-95534481D01*
X186596819Y-95436267D01*
X186609903Y-95369545D01*
X186629519Y-95328897D01*
X186657688Y-95308905D01*
X186696433Y-95304148D01*
X186717947Y-95305544D01*
X186783250Y-95311917D01*
X186804416Y-95968083D01*
X186994916Y-95968083D01*
X187000810Y-95676249D01*
X187001443Y-95517104D01*
X186995478Y-95394769D01*
X186981978Y-95304105D01*
X186960008Y-95239969D01*
X186928631Y-95197219D01*
X186911145Y-95183557D01*
X186833083Y-95154402D01*
X186741464Y-95151589D01*
X186655330Y-95174455D01*
X186622527Y-95193611D01*
X186561000Y-95239101D01*
X186561000Y-95194916D01*
X186555824Y-95167387D01*
X186532788Y-95156180D01*
X186480627Y-95156577D01*
X186471041Y-95157241D01*
X186381083Y-95163750D01*
X186375284Y-95544038D01*
X186373999Y-95668100D01*
X185877048Y-95668100D01*
X185980690Y-95655419D01*
X186077795Y-95613257D01*
X186142194Y-95545167D01*
X186147891Y-95534859D01*
X186177555Y-95437978D01*
X186165162Y-95341160D01*
X186146920Y-95298762D01*
X186129315Y-95236964D01*
X186145971Y-95193570D01*
X186194102Y-95174677D01*
X186203758Y-95174333D01*
X186231404Y-95164917D01*
X186242439Y-95129626D01*
X186243500Y-95100250D01*
X186238606Y-95048956D01*
X186219903Y-95028364D01*
X186202544Y-95026167D01*
X186125631Y-95040120D01*
X186063223Y-95076618D01*
X186032953Y-95118469D01*
X186015439Y-95150840D01*
X185987251Y-95161171D01*
X185933358Y-95154914D01*
X185932791Y-95154814D01*
X185812993Y-95149903D01*
X185708554Y-95177343D01*
X185625574Y-95233458D01*
X185570151Y-95314570D01*
X185550915Y-95385005D01*
X185548593Y-95455467D01*
X185568293Y-95510550D01*
X185585580Y-95536322D01*
X185632101Y-95599245D01*
X185577967Y-95663580D01*
X185534872Y-95728386D01*
X185527609Y-95784651D01*
X185554896Y-95844193D01*
X185557885Y-95848530D01*
X185579385Y-95886047D01*
X185572315Y-95913045D01*
X185547302Y-95938731D01*
X185507544Y-96000280D01*
X185503671Y-96069737D01*
X176517870Y-96069737D01*
X176518135Y-95980986D01*
X182200666Y-95980986D01*
X182301208Y-95974535D01*
X182401750Y-95968083D01*
X182408147Y-95856958D01*
X182414545Y-95745833D01*
X182200666Y-95745833D01*
X182200666Y-95980986D01*
X176518135Y-95980986D01*
X176519381Y-95562818D01*
X182618960Y-95562818D01*
X182628019Y-95681465D01*
X182655554Y-95790496D01*
X182699874Y-95880171D01*
X182759292Y-95940750D01*
X182768966Y-95946489D01*
X182850144Y-95972912D01*
X182940139Y-95975688D01*
X183021014Y-95955437D01*
X183052681Y-95936670D01*
X183089832Y-95909209D01*
X183106720Y-95908213D01*
X183116342Y-95933958D01*
X183117413Y-95938044D01*
X183132659Y-95966491D01*
X183166500Y-95976296D01*
X183209752Y-95974749D01*
X183290750Y-95968083D01*
X183290750Y-95576857D01*
X183509264Y-95576857D01*
X183522270Y-95717530D01*
X183562100Y-95827584D01*
X183629972Y-95910114D01*
X183645373Y-95922367D01*
X183735912Y-95966403D01*
X183842097Y-95982364D01*
X183950049Y-95970938D01*
X184045890Y-95932814D01*
X184088755Y-95900386D01*
X184137658Y-95842747D01*
X184167166Y-95786152D01*
X184170389Y-95763781D01*
X184301307Y-95763781D01*
X184304436Y-95796189D01*
X184317202Y-95830185D01*
X184370051Y-95906095D01*
X184450845Y-95958082D01*
X184551340Y-95984181D01*
X184663288Y-95982428D01*
X184778443Y-95950858D01*
X184794513Y-95943874D01*
X184863665Y-95893004D01*
X184909976Y-95820711D01*
X184930602Y-95738499D01*
X184923700Y-95668100D01*
X185103999Y-95668100D01*
X185104002Y-95778446D01*
X185105200Y-95867712D01*
X185107501Y-95928534D01*
X185110382Y-95952723D01*
X185139287Y-95972130D01*
X185205683Y-95974988D01*
X185211431Y-95974601D01*
X185301583Y-95968083D01*
X185301583Y-95163750D01*
X185111083Y-95163750D01*
X185105284Y-95544038D01*
X185103999Y-95668100D01*
X184923700Y-95668100D01*
X184922697Y-95657873D01*
X184883416Y-95590339D01*
X184882237Y-95589147D01*
X184834080Y-95554816D01*
X184764063Y-95520199D01*
X184718196Y-95503044D01*
X184613259Y-95464403D01*
X184546292Y-95427604D01*
X184513174Y-95389943D01*
X184507833Y-95365090D01*
X184524511Y-95318999D01*
X184566224Y-95293093D01*
X184620487Y-95287947D01*
X184674818Y-95304135D01*
X184716731Y-95342235D01*
X184723755Y-95355138D01*
X184754062Y-95394208D01*
X184786536Y-95396887D01*
X184842041Y-95381285D01*
X184865492Y-95374680D01*
X184894708Y-95351089D01*
X184889347Y-95309741D01*
X184850909Y-95255029D01*
X184811553Y-95216699D01*
X184756778Y-95176629D01*
X184698669Y-95155704D01*
X184622734Y-95150242D01*
X184560750Y-95152979D01*
X184466302Y-95177485D01*
X184390382Y-95231712D01*
X184339955Y-95307314D01*
X184321987Y-95395946D01*
X184325713Y-95434615D01*
X184353847Y-95506636D01*
X184411445Y-95564251D01*
X184503719Y-95611889D01*
X184556655Y-95630833D01*
X184649572Y-95667839D01*
X184712483Y-95707389D01*
X184739916Y-95745859D01*
X184740666Y-95752739D01*
X184722779Y-95794012D01*
X184680114Y-95831248D01*
X184629167Y-95850998D01*
X184619341Y-95851667D01*
X184571086Y-95836758D01*
X184516397Y-95799242D01*
X184504576Y-95788167D01*
X184433903Y-95737504D01*
X184365111Y-95726860D01*
X184319247Y-95744202D01*
X184301307Y-95763781D01*
X184170389Y-95763781D01*
X184173759Y-95740390D01*
X184155184Y-95715708D01*
X184074283Y-95702572D01*
X184006856Y-95728923D01*
X183967800Y-95772872D01*
X183929693Y-95819565D01*
X183891189Y-95846647D01*
X183885642Y-95848227D01*
X183820995Y-95841018D01*
X183764392Y-95799895D01*
X183726815Y-95733179D01*
X183724793Y-95726386D01*
X183710453Y-95672643D01*
X183706818Y-95636416D01*
X183719924Y-95614255D01*
X183755804Y-95602709D01*
X183820493Y-95598327D01*
X183920024Y-95597658D01*
X183949864Y-95597667D01*
X184196229Y-95597667D01*
X184183376Y-95489142D01*
X184152747Y-95354296D01*
X184096920Y-95253267D01*
X184016092Y-95186254D01*
X183910457Y-95153458D01*
X183850683Y-95149930D01*
X183732019Y-95168526D01*
X183637347Y-95221295D01*
X183567868Y-95306735D01*
X183524784Y-95423345D01*
X183509293Y-95569624D01*
X183509264Y-95576857D01*
X183290750Y-95576857D01*
X183290750Y-95031952D01*
X185102528Y-95031952D01*
X185119171Y-95071656D01*
X185160850Y-95086297D01*
X185211431Y-95085601D01*
X185301583Y-95079083D01*
X185301583Y-94888583D01*
X185206333Y-94888583D01*
X185147556Y-94890486D01*
X185118742Y-94901912D01*
X185107528Y-94931439D01*
X185104300Y-94959390D01*
X185102528Y-95031952D01*
X183290750Y-95031952D01*
X183290750Y-94888583D01*
X183100250Y-94888583D01*
X183094098Y-95050924D01*
X183087947Y-95213264D01*
X183030598Y-95183346D01*
X182935494Y-95155153D01*
X182841495Y-95165688D01*
X182756123Y-95211832D01*
X182686902Y-95290469D01*
X182663025Y-95335631D01*
X182630066Y-95444293D01*
X182618960Y-95562818D01*
X176519381Y-95562818D01*
X176522750Y-94432391D01*
X177649557Y-94432391D01*
X177666985Y-94483764D01*
X177700322Y-94543628D01*
X177735863Y-94590569D01*
X177829588Y-94666394D01*
X177945672Y-94707896D01*
X178080874Y-94714468D01*
X178231954Y-94685504D01*
X178236150Y-94684245D01*
X178308128Y-94645020D01*
X178376121Y-94579259D01*
X178426803Y-94501716D01*
X178443601Y-94454584D01*
X178448873Y-94398100D01*
X178626999Y-94398100D01*
X178627002Y-94508446D01*
X178628200Y-94597712D01*
X178630501Y-94658534D01*
X178633382Y-94682723D01*
X178662287Y-94702130D01*
X178728683Y-94704988D01*
X178734431Y-94704601D01*
X178824583Y-94698083D01*
X178835166Y-94399608D01*
X178841191Y-94265646D01*
X178849664Y-94168329D01*
X178862577Y-94101968D01*
X178881927Y-94060879D01*
X178909709Y-94039374D01*
X178947916Y-94031765D01*
X178964355Y-94031333D01*
X178993214Y-94033408D01*
X179014434Y-94043455D01*
X179029340Y-94067214D01*
X179039255Y-94110421D01*
X179045502Y-94178814D01*
X179049406Y-94278129D01*
X179052257Y-94412333D01*
X179057416Y-94698083D01*
X179247916Y-94698083D01*
X179253833Y-94402725D01*
X179258144Y-94267243D01*
X179266043Y-94168545D01*
X179279335Y-94101123D01*
X179299828Y-94059465D01*
X179329329Y-94038062D01*
X179369644Y-94031403D01*
X179375605Y-94031333D01*
X179409550Y-94035519D01*
X179434383Y-94051892D01*
X179451675Y-94086179D01*
X179463000Y-94144104D01*
X179469932Y-94231394D01*
X179474042Y-94353774D01*
X179474853Y-94392607D01*
X179480750Y-94698083D01*
X179671250Y-94698083D01*
X179677639Y-94528825D01*
X179870626Y-94528825D01*
X179875695Y-94551638D01*
X179915754Y-94630117D01*
X179982080Y-94684160D01*
X180064927Y-94711588D01*
X180154550Y-94710218D01*
X180241204Y-94677871D01*
X180286731Y-94643618D01*
X180334517Y-94598726D01*
X180341550Y-94648404D01*
X180352814Y-94680865D01*
X180382635Y-94697344D01*
X180438541Y-94704592D01*
X180528500Y-94711101D01*
X180527305Y-94408259D01*
X180527118Y-94398100D01*
X180743666Y-94398100D01*
X180743669Y-94508446D01*
X180744866Y-94597712D01*
X180747168Y-94658534D01*
X180750049Y-94682723D01*
X180778953Y-94702130D01*
X180845350Y-94704988D01*
X180851098Y-94704601D01*
X180941250Y-94698083D01*
X180951833Y-94430329D01*
X180959036Y-94299611D01*
X180970455Y-94205160D01*
X180988695Y-94140937D01*
X181016361Y-94100907D01*
X181056058Y-94079034D01*
X181107508Y-94069551D01*
X181151213Y-94061036D01*
X181171810Y-94038069D01*
X181180267Y-93987342D01*
X181180839Y-93980571D01*
X181180553Y-93967833D01*
X181248166Y-93967833D01*
X181251133Y-94022459D01*
X181264809Y-94046732D01*
X181296352Y-94052485D01*
X181299401Y-94052500D01*
X181320325Y-94053640D01*
X181334793Y-94061582D01*
X181344240Y-94083107D01*
X181350106Y-94124998D01*
X181353827Y-94194037D01*
X181356841Y-94297005D01*
X181357609Y-94327139D01*
X181361138Y-94441615D01*
X181365770Y-94521726D01*
X181372800Y-94575440D01*
X181383528Y-94610724D01*
X181399249Y-94635545D01*
X181409655Y-94646790D01*
X181481444Y-94691565D01*
X181576737Y-94712939D01*
X181671500Y-94709408D01*
X181722495Y-94696129D01*
X181745138Y-94669416D01*
X181752120Y-94630326D01*
X181753604Y-94588200D01*
X181739920Y-94567629D01*
X181700207Y-94559140D01*
X181667454Y-94556486D01*
X181576250Y-94549917D01*
X181570286Y-94301208D01*
X181564323Y-94052500D01*
X181639078Y-94052500D01*
X181686939Y-94049976D01*
X181708208Y-94034267D01*
X181713664Y-93993164D01*
X181713833Y-93967833D01*
X181711590Y-93913624D01*
X181697742Y-93889533D01*
X181661610Y-93883356D01*
X181639750Y-93883167D01*
X181594017Y-93881078D01*
X181572508Y-93867080D01*
X181566083Y-93829578D01*
X181565666Y-93789166D01*
X181561960Y-93721386D01*
X181544982Y-93687482D01*
X181505941Y-93679236D01*
X181454593Y-93685316D01*
X181407059Y-93696581D01*
X181382381Y-93718839D01*
X181369321Y-93765316D01*
X181365324Y-93790355D01*
X181353408Y-93848713D01*
X181335707Y-93875923D01*
X181304357Y-93883119D01*
X181299786Y-93883167D01*
X181266493Y-93888003D01*
X181251698Y-93910411D01*
X181248177Y-93962240D01*
X181248166Y-93967833D01*
X181180553Y-93967833D01*
X181179559Y-93923601D01*
X181167691Y-93887052D01*
X181163596Y-93883226D01*
X181112483Y-93874243D01*
X181050869Y-93895016D01*
X180992385Y-93940521D01*
X180984753Y-93949136D01*
X180933470Y-94010082D01*
X180926776Y-93951916D01*
X180917937Y-93914354D01*
X180894412Y-93897742D01*
X180843152Y-93893772D01*
X180835416Y-93893750D01*
X180750750Y-93893750D01*
X180744951Y-94274038D01*
X180743666Y-94398100D01*
X180527118Y-94398100D01*
X180524973Y-94281838D01*
X180519425Y-94171385D01*
X180511273Y-94085608D01*
X180501129Y-94033211D01*
X180500846Y-94032378D01*
X180453102Y-93955209D01*
X180373466Y-93904572D01*
X180263855Y-93881522D01*
X180224203Y-93880143D01*
X180102155Y-93895088D01*
X180003914Y-93937975D01*
X179934477Y-94005883D01*
X179905793Y-94066380D01*
X179901980Y-94095844D01*
X179919988Y-94112893D01*
X179969158Y-94125005D01*
X179981795Y-94127196D01*
X180045420Y-94133289D01*
X180076254Y-94123273D01*
X180080484Y-94115962D01*
X180110916Y-94068328D01*
X180159232Y-94028148D01*
X180207396Y-94010214D01*
X180209488Y-94010167D01*
X180265009Y-94028963D01*
X180304892Y-94076039D01*
X180316833Y-94125830D01*
X180305386Y-94168065D01*
X180266859Y-94191822D01*
X180194971Y-94200458D01*
X180176838Y-94200667D01*
X180065391Y-94217902D01*
X179973757Y-94265500D01*
X179907226Y-94337296D01*
X179871086Y-94427126D01*
X179870626Y-94528825D01*
X179677639Y-94528825D01*
X179678041Y-94518167D01*
X179679511Y-94403059D01*
X179676828Y-94274467D01*
X179670599Y-94160621D01*
X179661603Y-94069009D01*
X179650215Y-94008658D01*
X179633174Y-93968506D01*
X179607215Y-93937490D01*
X179603843Y-93934316D01*
X179528007Y-93889552D01*
X179438895Y-93874612D01*
X179350786Y-93889361D01*
X179277957Y-93933668D01*
X179274269Y-93937383D01*
X179226750Y-93986765D01*
X179171330Y-93933677D01*
X179097785Y-93890319D01*
X179009542Y-93878183D01*
X178921014Y-93897761D01*
X178875527Y-93923611D01*
X178814000Y-93969101D01*
X178814000Y-93924916D01*
X178808824Y-93897387D01*
X178785788Y-93886180D01*
X178733627Y-93886577D01*
X178724041Y-93887241D01*
X178634083Y-93893750D01*
X178628284Y-94274038D01*
X178626999Y-94398100D01*
X178448873Y-94398100D01*
X178452538Y-94358836D01*
X178431757Y-94276578D01*
X178378247Y-94203966D01*
X178288999Y-94137157D01*
X178161004Y-94072307D01*
X178135776Y-94061454D01*
X178036936Y-94018798D01*
X177970943Y-93986510D01*
X177931229Y-93959502D01*
X177911230Y-93932688D01*
X177904379Y-93900983D01*
X177903833Y-93881775D01*
X177922878Y-93820044D01*
X177973389Y-93775465D01*
X178045431Y-93756357D01*
X178053855Y-93756167D01*
X178119275Y-93773147D01*
X178182820Y-93815504D01*
X178226590Y-93870358D01*
X178232372Y-93884603D01*
X178243854Y-93908396D01*
X178264619Y-93916715D01*
X178304091Y-93909317D01*
X178371692Y-93885956D01*
X178386055Y-93880605D01*
X178417925Y-93864718D01*
X178421347Y-93841951D01*
X178403941Y-93804057D01*
X178330788Y-93703833D01*
X178233379Y-93638151D01*
X178111296Y-93606773D01*
X178052478Y-93603767D01*
X177931850Y-93616290D01*
X177834791Y-93657011D01*
X177755666Y-93724111D01*
X177724458Y-93765047D01*
X177708401Y-93812066D01*
X177702978Y-93880838D01*
X177702750Y-93907665D01*
X177704806Y-93981143D01*
X177715145Y-94028608D01*
X177740027Y-94066332D01*
X177778128Y-94103665D01*
X177836308Y-94145929D01*
X177917661Y-94191437D01*
X178005011Y-94230627D01*
X178008665Y-94232034D01*
X178117602Y-94278636D01*
X178189626Y-94322452D01*
X178229624Y-94367402D01*
X178242481Y-94417405D01*
X178242500Y-94419636D01*
X178225170Y-94481784D01*
X178179568Y-94524617D01*
X178115272Y-94547772D01*
X178041862Y-94550891D01*
X177968916Y-94533613D01*
X177906015Y-94495579D01*
X177862736Y-94436427D01*
X177861687Y-94433951D01*
X177840530Y-94390922D01*
X177815045Y-94374197D01*
X177769218Y-94376113D01*
X177747710Y-94379400D01*
X177692076Y-94389908D01*
X177657455Y-94399467D01*
X177653377Y-94401733D01*
X177649557Y-94432391D01*
X176522750Y-94432391D01*
X176522826Y-94406937D01*
X176525227Y-93601461D01*
X182264166Y-93601461D01*
X182264166Y-94715100D01*
X182526012Y-94702728D01*
X182643528Y-94694887D01*
X182746118Y-94683713D01*
X182823785Y-94670483D01*
X182859387Y-94660099D01*
X182945762Y-94607766D01*
X183000042Y-94533389D01*
X183020257Y-94475833D01*
X183029776Y-94366860D01*
X183000071Y-94269367D01*
X182937219Y-94192553D01*
X182932825Y-94188802D01*
X183240156Y-94188802D01*
X183242843Y-94317448D01*
X183249076Y-94431330D01*
X183258483Y-94524836D01*
X183270689Y-94587036D01*
X183288798Y-94628959D01*
X183313114Y-94658872D01*
X183377435Y-94696551D01*
X183461123Y-94710871D01*
X183548042Y-94701526D01*
X183622055Y-94668212D01*
X183626562Y-94664797D01*
X183682333Y-94620927D01*
X183682333Y-94666014D01*
X183687308Y-94694098D01*
X183709779Y-94705596D01*
X183761067Y-94705363D01*
X183772291Y-94704592D01*
X183862250Y-94698083D01*
X183862250Y-94398100D01*
X184087999Y-94398100D01*
X184088002Y-94508446D01*
X184089200Y-94597712D01*
X184091501Y-94658534D01*
X184094382Y-94682723D01*
X184123287Y-94702130D01*
X184189683Y-94704988D01*
X184195431Y-94704601D01*
X184285583Y-94698083D01*
X184285583Y-94413412D01*
X184532539Y-94413412D01*
X184533206Y-94525568D01*
X184534696Y-94612083D01*
X184536952Y-94666810D01*
X184539002Y-94683035D01*
X184568650Y-94702303D01*
X184636697Y-94704826D01*
X184639931Y-94704601D01*
X184730083Y-94698083D01*
X184730083Y-94292818D01*
X184947294Y-94292818D01*
X184956353Y-94411465D01*
X184983887Y-94520496D01*
X185028208Y-94610171D01*
X185087625Y-94670750D01*
X185097299Y-94676489D01*
X185178478Y-94702912D01*
X185268473Y-94705688D01*
X185349347Y-94685437D01*
X185381014Y-94666670D01*
X185418166Y-94639209D01*
X185435054Y-94638213D01*
X185444676Y-94663958D01*
X185445747Y-94668044D01*
X185460992Y-94696491D01*
X185494833Y-94706296D01*
X185538086Y-94704749D01*
X185619083Y-94698083D01*
X185619083Y-93618583D01*
X185428583Y-93618583D01*
X185422431Y-93780924D01*
X185416280Y-93943264D01*
X185358931Y-93913346D01*
X185263828Y-93885153D01*
X185169828Y-93895688D01*
X185084456Y-93941832D01*
X185015236Y-94020469D01*
X184991359Y-94065631D01*
X184958399Y-94174293D01*
X184947294Y-94292818D01*
X184730083Y-94292818D01*
X184730083Y-93618583D01*
X184539583Y-93618583D01*
X184533904Y-94136767D01*
X184532752Y-94281763D01*
X184532539Y-94413412D01*
X184285583Y-94413412D01*
X184285583Y-93893750D01*
X184095083Y-93893750D01*
X184089284Y-94274038D01*
X184087999Y-94398100D01*
X183862250Y-94398100D01*
X183862250Y-93893750D01*
X183671750Y-93893750D01*
X183661166Y-94192195D01*
X183655139Y-94326166D01*
X183646663Y-94423493D01*
X183633743Y-94489860D01*
X183614386Y-94530955D01*
X183586596Y-94552462D01*
X183548380Y-94560069D01*
X183531978Y-94560500D01*
X183503119Y-94558425D01*
X183481898Y-94548378D01*
X183466992Y-94524619D01*
X183457078Y-94481412D01*
X183450830Y-94413019D01*
X183446927Y-94313704D01*
X183444075Y-94179500D01*
X183438916Y-93893750D01*
X183248416Y-93893750D01*
X183241624Y-94073667D01*
X183240156Y-94188802D01*
X182932825Y-94188802D01*
X182865732Y-94131523D01*
X182923226Y-94074030D01*
X182980261Y-93989735D01*
X182998066Y-93894484D01*
X182975382Y-93796045D01*
X182970141Y-93784911D01*
X182957260Y-93761952D01*
X184086528Y-93761952D01*
X184103171Y-93801656D01*
X184144850Y-93816297D01*
X184195431Y-93815601D01*
X184285583Y-93809083D01*
X184285583Y-93618583D01*
X184190333Y-93618583D01*
X184131556Y-93620486D01*
X184102742Y-93631912D01*
X184091528Y-93661439D01*
X184088300Y-93689390D01*
X184086528Y-93761952D01*
X182957260Y-93761952D01*
X182937728Y-93727139D01*
X182901796Y-93685210D01*
X182854875Y-93656145D01*
X182789501Y-93636960D01*
X182698206Y-93624675D01*
X182573522Y-93616308D01*
X182544258Y-93614858D01*
X182264166Y-93601461D01*
X176525227Y-93601461D01*
X176528188Y-92608053D01*
X177028577Y-92608053D01*
X177031359Y-92631380D01*
X177043598Y-92687649D01*
X177063238Y-92769066D01*
X177088224Y-92867835D01*
X177116501Y-92976161D01*
X177146013Y-93086247D01*
X177174704Y-93190299D01*
X177200520Y-93280522D01*
X177221404Y-93349120D01*
X177232482Y-93381393D01*
X177264056Y-93409783D01*
X177320269Y-93417500D01*
X177369741Y-93413354D01*
X177395847Y-93392783D01*
X177413071Y-93343583D01*
X177414478Y-93338125D01*
X177428672Y-93279843D01*
X177448246Y-93195997D01*
X177469528Y-93102374D01*
X177474787Y-93078833D01*
X177514819Y-92898917D01*
X177577034Y-93152917D01*
X177639250Y-93406917D01*
X177717678Y-93413429D01*
X177762972Y-93415376D01*
X177789732Y-93405319D01*
X177807806Y-93373825D01*
X177827039Y-93311460D01*
X177828141Y-93307596D01*
X177863550Y-93181848D01*
X177898869Y-93053644D01*
X177932251Y-92929988D01*
X177961851Y-92817885D01*
X177985824Y-92724338D01*
X178002323Y-92656351D01*
X178009505Y-92620929D01*
X178009666Y-92618665D01*
X177999045Y-92608053D01*
X178065743Y-92608053D01*
X178068526Y-92631380D01*
X178080765Y-92687649D01*
X178100405Y-92769066D01*
X178125391Y-92867835D01*
X178153668Y-92976161D01*
X178183179Y-93086247D01*
X178211871Y-93190299D01*
X178237686Y-93280522D01*
X178258571Y-93349120D01*
X178269649Y-93381393D01*
X178301223Y-93409783D01*
X178357436Y-93417500D01*
X178406908Y-93413354D01*
X178433014Y-93392783D01*
X178450237Y-93343583D01*
X178451645Y-93338125D01*
X178465838Y-93279843D01*
X178485412Y-93195997D01*
X178506695Y-93102374D01*
X178511954Y-93078833D01*
X178551986Y-92898917D01*
X178676416Y-93406917D01*
X178754845Y-93413429D01*
X178800138Y-93415376D01*
X178826899Y-93405319D01*
X178844972Y-93373825D01*
X178864206Y-93311460D01*
X178865308Y-93307596D01*
X178900717Y-93181848D01*
X178936036Y-93053644D01*
X178969418Y-92929988D01*
X178999018Y-92817885D01*
X179022990Y-92724338D01*
X179039490Y-92656351D01*
X179046671Y-92620929D01*
X179046833Y-92618665D01*
X179036212Y-92608053D01*
X179102910Y-92608053D01*
X179105692Y-92631380D01*
X179117931Y-92687649D01*
X179137572Y-92769066D01*
X179162558Y-92867835D01*
X179190834Y-92976161D01*
X179220346Y-93086247D01*
X179249037Y-93190299D01*
X179274853Y-93280522D01*
X179295738Y-93349120D01*
X179306815Y-93381393D01*
X179338390Y-93409783D01*
X179394603Y-93417500D01*
X179444074Y-93413354D01*
X179470180Y-93392783D01*
X179487404Y-93343583D01*
X179488812Y-93338125D01*
X179503005Y-93279843D01*
X179522579Y-93195997D01*
X179543862Y-93102374D01*
X179549121Y-93078833D01*
X179589153Y-92898917D01*
X179713583Y-93406917D01*
X179792011Y-93413429D01*
X179837305Y-93415376D01*
X179864065Y-93405319D01*
X179882139Y-93373825D01*
X179901372Y-93311460D01*
X179902474Y-93307596D01*
X179937713Y-93182454D01*
X180189833Y-93182454D01*
X180189833Y-93285866D01*
X180192695Y-93349151D01*
X180199974Y-93393676D01*
X180204920Y-93404365D01*
X180233500Y-93412177D01*
X180288081Y-93414342D01*
X180316045Y-93413184D01*
X180412083Y-93406917D01*
X180412083Y-93195250D01*
X180189833Y-93182454D01*
X179937713Y-93182454D01*
X179937884Y-93181848D01*
X179973202Y-93053644D01*
X180006584Y-92929988D01*
X180036184Y-92817885D01*
X180060157Y-92724338D01*
X180076657Y-92656351D01*
X180083838Y-92620929D01*
X180084000Y-92618665D01*
X180064738Y-92599420D01*
X180012794Y-92592006D01*
X180010911Y-92592000D01*
X179983097Y-92591383D01*
X179962576Y-92593417D01*
X179946480Y-92603927D01*
X179931940Y-92628739D01*
X179916088Y-92673679D01*
X179896054Y-92744572D01*
X179868970Y-92847244D01*
X179850405Y-92917944D01*
X179800755Y-93106305D01*
X179752835Y-92896777D01*
X179731184Y-92802565D01*
X179711897Y-92719457D01*
X179697671Y-92659039D01*
X179692660Y-92638390D01*
X179678022Y-92606174D01*
X179647214Y-92594703D01*
X179601745Y-92596056D01*
X179523083Y-92602583D01*
X179473697Y-92814250D01*
X179451765Y-92906426D01*
X179432265Y-92985082D01*
X179417827Y-93039779D01*
X179412356Y-93057667D01*
X179402765Y-93052777D01*
X179386730Y-93013733D01*
X179366878Y-92947730D01*
X179354405Y-92898917D01*
X179332175Y-92807168D01*
X179312101Y-92724877D01*
X179297391Y-92665183D01*
X179293635Y-92650208D01*
X179278372Y-92611958D01*
X179249313Y-92595435D01*
X179195845Y-92592000D01*
X179140547Y-92595721D01*
X179106367Y-92604967D01*
X179102910Y-92608053D01*
X179036212Y-92608053D01*
X179027571Y-92599420D01*
X178975628Y-92592006D01*
X178973744Y-92592000D01*
X178945930Y-92591383D01*
X178925409Y-92593417D01*
X178909313Y-92603927D01*
X178894774Y-92628739D01*
X178878921Y-92673679D01*
X178858887Y-92744572D01*
X178831803Y-92847244D01*
X178813238Y-92917944D01*
X178763589Y-93106305D01*
X178715668Y-92896777D01*
X178694017Y-92802565D01*
X178674730Y-92719457D01*
X178660504Y-92659039D01*
X178655494Y-92638390D01*
X178640856Y-92606174D01*
X178610048Y-92594703D01*
X178564578Y-92596056D01*
X178485916Y-92602583D01*
X178436531Y-92814250D01*
X178414598Y-92906426D01*
X178395098Y-92985082D01*
X178380660Y-93039779D01*
X178375189Y-93057667D01*
X178365598Y-93052777D01*
X178349564Y-93013733D01*
X178329712Y-92947730D01*
X178317238Y-92898917D01*
X178295009Y-92807168D01*
X178274934Y-92724877D01*
X178260224Y-92665183D01*
X178256468Y-92650208D01*
X178241206Y-92611958D01*
X178212146Y-92595435D01*
X178158679Y-92592000D01*
X178103381Y-92595721D01*
X178069200Y-92604967D01*
X178065743Y-92608053D01*
X177999045Y-92608053D01*
X177990405Y-92599420D01*
X177938461Y-92592006D01*
X177936578Y-92592000D01*
X177908763Y-92591383D01*
X177888243Y-92593417D01*
X177872147Y-92603927D01*
X177857607Y-92628739D01*
X177841755Y-92673679D01*
X177821721Y-92744572D01*
X177794637Y-92847244D01*
X177776072Y-92917944D01*
X177726422Y-93106305D01*
X177678502Y-92896777D01*
X177656850Y-92802565D01*
X177637563Y-92719457D01*
X177623338Y-92659039D01*
X177618327Y-92638390D01*
X177603689Y-92606174D01*
X177572881Y-92594703D01*
X177527411Y-92596056D01*
X177448750Y-92602583D01*
X177399364Y-92814250D01*
X177377432Y-92906426D01*
X177357931Y-92985082D01*
X177343493Y-93039779D01*
X177338022Y-93057667D01*
X177328432Y-93052777D01*
X177312397Y-93013733D01*
X177292545Y-92947730D01*
X177280071Y-92898917D01*
X177257842Y-92807168D01*
X177237767Y-92724877D01*
X177223057Y-92665183D01*
X177219301Y-92650208D01*
X177204039Y-92611958D01*
X177174979Y-92595435D01*
X177121512Y-92592000D01*
X177066214Y-92595721D01*
X177032034Y-92604967D01*
X177028577Y-92608053D01*
X176528188Y-92608053D01*
X176528236Y-92591790D01*
X174469659Y-92597187D01*
X172411083Y-92602583D01*
X172405617Y-94391167D01*
X172404905Y-94663005D01*
X172404454Y-94922892D01*
X172404256Y-95167684D01*
X172210695Y-95167684D01*
X172210328Y-94380583D01*
X172209417Y-92422667D01*
X187450000Y-92422667D01*
X187450000Y-96338500D01*
G37*
G36*
X180305828Y-94316921D02*
G01*
X180316432Y-94355105D01*
X180316833Y-94371051D01*
X180304438Y-94450949D01*
X180271946Y-94516930D01*
X180226391Y-94562711D01*
X180174811Y-94582009D01*
X180124241Y-94568543D01*
X180109400Y-94556267D01*
X180091036Y-94515402D01*
X180084757Y-94455407D01*
X180091625Y-94398025D01*
X180100629Y-94376616D01*
X180135596Y-94348484D01*
X180193520Y-94323048D01*
X180255314Y-94307943D01*
X180275877Y-94306500D01*
X180305828Y-94316921D01*
G37*
G36*
X185896593Y-95266045D02*
G01*
X185940044Y-95302176D01*
X185965261Y-95364133D01*
X185968333Y-95399487D01*
X185957843Y-95485469D01*
X185925367Y-95536626D01*
X185869391Y-95555184D01*
X185862500Y-95555333D01*
X185803064Y-95540308D01*
X185778578Y-95514391D01*
X185760148Y-95452057D01*
X185758899Y-95379969D01*
X185773855Y-95317218D01*
X185789928Y-95292262D01*
X185843642Y-95260990D01*
X185896593Y-95266045D01*
G37*
G36*
X175633989Y-94290625D02*
G01*
X175639563Y-95005000D01*
X175363270Y-95005000D01*
X175374416Y-93576250D01*
X175628416Y-93576250D01*
X175633989Y-94290625D01*
G37*
G36*
X185345089Y-94041203D02*
G01*
X185382448Y-94074197D01*
X185405405Y-94135388D01*
X185416291Y-94229851D01*
X185418000Y-94307929D01*
X185416399Y-94401657D01*
X185410449Y-94462807D01*
X185398428Y-94501056D01*
X185379291Y-94525469D01*
X185319377Y-94556409D01*
X185255349Y-94554574D01*
X185202764Y-94520990D01*
X185196950Y-94513457D01*
X185177235Y-94465582D01*
X185166613Y-94387854D01*
X185164000Y-94295917D01*
X185169170Y-94180413D01*
X185186223Y-94101333D01*
X185217469Y-94053862D01*
X185265218Y-94033185D01*
X185291000Y-94031333D01*
X185345089Y-94041203D01*
G37*
G36*
X183016756Y-95311203D02*
G01*
X183054115Y-95344197D01*
X183077072Y-95405388D01*
X183087957Y-95499851D01*
X183089666Y-95577929D01*
X183088065Y-95671657D01*
X183082115Y-95732807D01*
X183070095Y-95771056D01*
X183050958Y-95795469D01*
X182991043Y-95826409D01*
X182927016Y-95824574D01*
X182874431Y-95790990D01*
X182868616Y-95783457D01*
X182848902Y-95735582D01*
X182838279Y-95657854D01*
X182835666Y-95565917D01*
X182840837Y-95450413D01*
X182857890Y-95371333D01*
X182889136Y-95323862D01*
X182936885Y-95303185D01*
X182962666Y-95301333D01*
X183016756Y-95311203D01*
G37*
G36*
X173858019Y-93570060D02*
G01*
X173997133Y-93576250D01*
X174257065Y-94274750D01*
X174317486Y-94437544D01*
X174372939Y-94587780D01*
X174421746Y-94720849D01*
X174462231Y-94832143D01*
X174492715Y-94917054D01*
X174511523Y-94970974D01*
X174517082Y-94989125D01*
X174497836Y-94997272D01*
X174447470Y-95002999D01*
X174381981Y-95005000D01*
X174246795Y-95005000D01*
X174125583Y-94655750D01*
X173579510Y-94655750D01*
X173550978Y-94740417D01*
X173524085Y-94817859D01*
X173494243Y-94900594D01*
X173488889Y-94915042D01*
X173455332Y-95005000D01*
X173317234Y-95005000D01*
X173239258Y-95002642D01*
X173198070Y-94994835D01*
X173188349Y-94980483D01*
X173188941Y-94978542D01*
X173198437Y-94953130D01*
X173221022Y-94892792D01*
X173254930Y-94802243D01*
X173298395Y-94686197D01*
X173349651Y-94549369D01*
X173402974Y-94407042D01*
X173656394Y-94407042D01*
X173661844Y-94419915D01*
X173694119Y-94428122D01*
X173758551Y-94432399D01*
X173847759Y-94433500D01*
X174049712Y-94433500D01*
X173953677Y-94153126D01*
X173918606Y-94051610D01*
X173888291Y-93965493D01*
X173865381Y-93902182D01*
X173852527Y-93869084D01*
X173850934Y-93866045D01*
X173842071Y-93882292D01*
X173822562Y-93931500D01*
X173795114Y-94006458D01*
X173762434Y-94099953D01*
X173755604Y-94119960D01*
X173721504Y-94219899D01*
X173691769Y-94306400D01*
X173669332Y-94370979D01*
X173657126Y-94405149D01*
X173656394Y-94407042D01*
X173402974Y-94407042D01*
X173406933Y-94396475D01*
X173458825Y-94257977D01*
X173718905Y-93563871D01*
X173858019Y-93570060D01*
G37*
G36*
X183911310Y-95298604D02*
G01*
X183959557Y-95345461D01*
X183978666Y-95408056D01*
X183978666Y-95408367D01*
X183976912Y-95442852D01*
X183964997Y-95461466D01*
X183932944Y-95469102D01*
X183870774Y-95470655D01*
X183851666Y-95470667D01*
X183781281Y-95469546D01*
X183743280Y-95463424D01*
X183727723Y-95448157D01*
X183724669Y-95419605D01*
X183724666Y-95417750D01*
X183740977Y-95360559D01*
X183780994Y-95310325D01*
X183831342Y-95282096D01*
X183846956Y-95280167D01*
X183911310Y-95298604D01*
G37*
D10*
%TO.C,ESP32S1*%
X162848750Y-77510000D02*
X162848750Y-76860000D01*
X163498750Y-70290000D02*
X162848750Y-70290000D01*
X163498750Y-77510000D02*
X162848750Y-77510000D01*
X169418750Y-70290000D02*
X170068750Y-70290000D01*
X169418750Y-77510000D02*
X170068750Y-77510000D01*
X170068750Y-70290000D02*
X170068750Y-70940000D01*
X170068750Y-77510000D02*
X170068750Y-76860000D01*
%TO.C,F1*%
X177227936Y-87860000D02*
X178432064Y-87860000D01*
X177227936Y-89680000D02*
X178432064Y-89680000D01*
%TO.C,E2C2*%
X157337498Y-80275000D02*
X157860002Y-80275000D01*
X157337498Y-81745000D02*
X157860002Y-81745000D01*
%TO.C,EC37*%
X151549420Y-69940000D02*
X151830580Y-69940000D01*
X151549420Y-70960000D02*
X151830580Y-70960000D01*
%TO.C,EC1*%
X157628170Y-75510000D02*
X157909330Y-75510000D01*
X157628170Y-76530000D02*
X157909330Y-76530000D01*
%TO.C,MTRT1*%
X158220000Y-61275000D02*
X158220000Y-59600000D01*
X158220000Y-61275000D02*
X158220000Y-61925000D01*
X155100000Y-61275000D02*
X155100000Y-60625000D01*
X155100000Y-61275000D02*
X155100000Y-61925000D01*
%TO.C,E2R2*%
X165996008Y-67362500D02*
X165521492Y-67362500D01*
X165996008Y-66317500D02*
X165521492Y-66317500D01*
%TO.C,EC24*%
X171228750Y-75865580D02*
X171228750Y-75584420D01*
X172248750Y-75865580D02*
X172248750Y-75584420D01*
%TO.C,F1*%
X183330436Y-81440000D02*
X184534564Y-81440000D01*
X183330436Y-83260000D02*
X184534564Y-83260000D01*
%TO.C,E2C6*%
X160889330Y-79730000D02*
X160608170Y-79730000D01*
X160889330Y-78710000D02*
X160608170Y-78710000D01*
%TO.C,F1*%
X172130000Y-62072064D02*
X172130000Y-60867936D01*
X173950000Y-62072064D02*
X173950000Y-60867936D01*
%TO.C,ER1*%
X156931492Y-74077500D02*
X157406008Y-74077500D01*
X156931492Y-75122500D02*
X157406008Y-75122500D01*
D11*
%TO.C,IMU1*%
X168718750Y-80450000D02*
X168718750Y-80600000D01*
X168718750Y-82900000D02*
X168718750Y-83050000D01*
X168718750Y-83050000D02*
X169368750Y-83050000D01*
X169368750Y-80450000D02*
X168718750Y-80450000D01*
X171168750Y-80450000D02*
X171818750Y-80450000D01*
X171818750Y-80450000D02*
X171818750Y-80600000D01*
X171818750Y-82900000D02*
X171818750Y-83050000D01*
X171818750Y-83050000D02*
X171168750Y-83050000D01*
D12*
X168418750Y-81000000D02*
G75*
G03*
X168418750Y-81000000I-100000J0D01*
G01*
D10*
%TO.C,E2C5*%
X157628170Y-77020000D02*
X157909330Y-77020000D01*
X157628170Y-78040000D02*
X157909330Y-78040000D01*
%TO.C,IDR1*%
X173836008Y-78002500D02*
X173361492Y-78002500D01*
X173836008Y-76957500D02*
X173361492Y-76957500D01*
%TO.C,IDR2*%
X176321492Y-76947500D02*
X176796008Y-76947500D01*
X176321492Y-77992500D02*
X176796008Y-77992500D01*
%TO.C,E2C3*%
X159838750Y-67909420D02*
X159838750Y-68190580D01*
X158818750Y-67909420D02*
X158818750Y-68190580D01*
%TO.C,E2C7*%
X158289330Y-72130000D02*
X158008170Y-72130000D01*
X158289330Y-71110000D02*
X158008170Y-71110000D01*
%TO.C,E2CY1*%
X163278750Y-83120000D02*
X163278750Y-79920000D01*
X163278750Y-79920000D02*
X159378750Y-79920000D01*
%TO.C,EL4*%
X154150000Y-74187878D02*
X154150000Y-74987122D01*
X153030000Y-74187878D02*
X153030000Y-74987122D01*
%TO.C,MTRT1*%
X183600000Y-61292500D02*
X183600000Y-59617500D01*
X183600000Y-61292500D02*
X183600000Y-61942500D01*
X180480000Y-61292500D02*
X180480000Y-60642500D01*
X180480000Y-61292500D02*
X180480000Y-61942500D01*
%TO.C,MR2*%
X176612936Y-72205000D02*
X177067064Y-72205000D01*
X176612936Y-73675000D02*
X177067064Y-73675000D01*
%TO.C,MTRT1*%
X154050000Y-61207500D02*
X154050000Y-59532500D01*
X154050000Y-61207500D02*
X154050000Y-61857500D01*
X150930000Y-61207500D02*
X150930000Y-60557500D01*
X150930000Y-61207500D02*
X150930000Y-61857500D01*
%TO.C,E2C9*%
X163558750Y-81810580D02*
X163558750Y-81529420D01*
X164578750Y-81810580D02*
X164578750Y-81529420D01*
%TO.C,MR1*%
X176612936Y-69935000D02*
X177067064Y-69935000D01*
X176612936Y-71405000D02*
X177067064Y-71405000D01*
%TO.C,EC25*%
X171348750Y-72910580D02*
X171348750Y-72629420D01*
X172368750Y-72910580D02*
X172368750Y-72629420D01*
%TO.C,MTRT1*%
X179570000Y-61402500D02*
X179570000Y-59727500D01*
X179570000Y-61402500D02*
X179570000Y-62052500D01*
X176450000Y-61402500D02*
X176450000Y-60752500D01*
X176450000Y-61402500D02*
X176450000Y-62052500D01*
%TO.C,E2C11*%
X158709330Y-66000000D02*
X158428170Y-66000000D01*
X158709330Y-64980000D02*
X158428170Y-64980000D01*
%TO.C,MTRR1*%
X184075000Y-65517064D02*
X184075000Y-65062936D01*
X185545000Y-65517064D02*
X185545000Y-65062936D01*
%TO.C,E2C8*%
X167418750Y-66360580D02*
X167418750Y-66079420D01*
X168438750Y-66360580D02*
X168438750Y-66079420D01*
D11*
%TO.C,ANT1*%
X152210000Y-76220000D02*
X152210000Y-84220000D01*
X150110000Y-84220000D02*
X150110000Y-76220000D01*
D13*
X151350500Y-73870000D02*
G75*
G03*
X151350500Y-73870000I-190500J0D01*
G01*
D10*
%TO.C,E2C1*%
X158413750Y-67558748D02*
X158413750Y-68081252D01*
X156943750Y-67558748D02*
X156943750Y-68081252D01*
%TO.C,MTRR1*%
X152925000Y-65457064D02*
X152925000Y-65002936D01*
X154395000Y-65457064D02*
X154395000Y-65002936D01*
%TO.C,E2CY2*%
X160198750Y-64710000D02*
X160198750Y-67910000D01*
X160198750Y-67910000D02*
X164098750Y-67910000D01*
%TO.C,E2C14*%
X165588170Y-64930000D02*
X165869330Y-64930000D01*
X165588170Y-65950000D02*
X165869330Y-65950000D01*
%TO.C,E2C4*%
X157327498Y-78405000D02*
X157850002Y-78405000D01*
X157327498Y-79875000D02*
X157850002Y-79875000D01*
D11*
%TO.C,U1*%
X178333750Y-83230000D02*
X174343750Y-83230000D01*
X178333750Y-78190000D02*
X174343750Y-78190000D01*
D12*
X180888750Y-83205000D02*
G75*
G03*
X180888750Y-83205000I-100000J0D01*
G01*
D10*
%TO.C,E2C10*%
X157839330Y-83140000D02*
X157558170Y-83140000D01*
X157839330Y-82120000D02*
X157558170Y-82120000D01*
%TO.C,E2L1*%
X156989128Y-72540000D02*
X157788372Y-72540000D01*
X156989128Y-73660000D02*
X157788372Y-73660000D01*
%TO.C,IMUC1*%
X170868170Y-77910000D02*
X171149330Y-77910000D01*
X170868170Y-78930000D02*
X171149330Y-78930000D01*
%TO.C,MTRR1*%
X150725000Y-65447064D02*
X150725000Y-64992936D01*
X152195000Y-65447064D02*
X152195000Y-64992936D01*
%TO.C,F1*%
X157527936Y-87890000D02*
X158732064Y-87890000D01*
X157527936Y-89710000D02*
X158732064Y-89710000D01*
%TO.C,REF\u002A\u002A*%
X154830000Y-63925000D02*
X181310000Y-63925000D01*
X181310000Y-63925000D02*
X181310000Y-84125000D01*
X181310000Y-84125000D02*
X154830000Y-84125000D01*
X154830000Y-84125000D02*
X154830000Y-63925000D01*
%TO.C,MTRR1*%
X181975000Y-65527064D02*
X181975000Y-65072936D01*
X183445000Y-65527064D02*
X183445000Y-65072936D01*
%TO.C,E2R1*%
X169961250Y-66552742D02*
X169961250Y-67027258D01*
X168916250Y-66552742D02*
X168916250Y-67027258D01*
%TO.C,EC38*%
X154080000Y-78074420D02*
X154080000Y-78355580D01*
X153060000Y-78074420D02*
X153060000Y-78355580D01*
%TD*%
M02*
