%TF.GenerationSoftware,KiCad,Pcbnew,7.0.2*%
%TF.CreationDate,2023-05-17T08:13:23+02:00*%
%TF.ProjectId,5V DC Smart Socket,35562044-4320-4536-9d61-727420536f63,rev?*%
%TF.SameCoordinates,Original*%
%TF.FileFunction,Copper,L1,Top*%
%TF.FilePolarity,Positive*%
%FSLAX46Y46*%
G04 Gerber Fmt 4.6, Leading zero omitted, Abs format (unit mm)*
G04 Created by KiCad (PCBNEW 7.0.2) date 2023-05-17 08:13:23*
%MOMM*%
%LPD*%
G01*
G04 APERTURE LIST*
G04 Aperture macros list*
%AMRoundRect*
0 Rectangle with rounded corners*
0 $1 Rounding radius*
0 $2 $3 $4 $5 $6 $7 $8 $9 X,Y pos of 4 corners*
0 Add a 4 corners polygon primitive as box body*
4,1,4,$2,$3,$4,$5,$6,$7,$8,$9,$2,$3,0*
0 Add four circle primitives for the rounded corners*
1,1,$1+$1,$2,$3*
1,1,$1+$1,$4,$5*
1,1,$1+$1,$6,$7*
1,1,$1+$1,$8,$9*
0 Add four rect primitives between the rounded corners*
20,1,$1+$1,$2,$3,$4,$5,0*
20,1,$1+$1,$4,$5,$6,$7,0*
20,1,$1+$1,$6,$7,$8,$9,0*
20,1,$1+$1,$8,$9,$2,$3,0*%
G04 Aperture macros list end*
%TA.AperFunction,SMDPad,CuDef*%
%ADD10RoundRect,0.050000X-0.387500X-0.050000X0.387500X-0.050000X0.387500X0.050000X-0.387500X0.050000X0*%
%TD*%
%TA.AperFunction,SMDPad,CuDef*%
%ADD11RoundRect,0.050000X-0.050000X-0.387500X0.050000X-0.387500X0.050000X0.387500X-0.050000X0.387500X0*%
%TD*%
%TA.AperFunction,SMDPad,CuDef*%
%ADD12R,5.600000X5.600000*%
%TD*%
%TA.AperFunction,SMDPad,CuDef*%
%ADD13RoundRect,0.250001X-0.462499X-0.624999X0.462499X-0.624999X0.462499X0.624999X-0.462499X0.624999X0*%
%TD*%
%TA.AperFunction,SMDPad,CuDef*%
%ADD14RoundRect,0.250000X-0.250000X-0.475000X0.250000X-0.475000X0.250000X0.475000X-0.250000X0.475000X0*%
%TD*%
%TA.AperFunction,SMDPad,CuDef*%
%ADD15RoundRect,0.225000X-0.225000X-0.250000X0.225000X-0.250000X0.225000X0.250000X-0.225000X0.250000X0*%
%TD*%
%TA.AperFunction,SMDPad,CuDef*%
%ADD16RoundRect,0.150000X-0.150000X0.587500X-0.150000X-0.587500X0.150000X-0.587500X0.150000X0.587500X0*%
%TD*%
%TA.AperFunction,SMDPad,CuDef*%
%ADD17RoundRect,0.200000X0.200000X0.275000X-0.200000X0.275000X-0.200000X-0.275000X0.200000X-0.275000X0*%
%TD*%
%TA.AperFunction,SMDPad,CuDef*%
%ADD18RoundRect,0.225000X0.250000X-0.225000X0.250000X0.225000X-0.250000X0.225000X-0.250000X-0.225000X0*%
%TD*%
%TA.AperFunction,SMDPad,CuDef*%
%ADD19RoundRect,0.225000X0.225000X0.250000X-0.225000X0.250000X-0.225000X-0.250000X0.225000X-0.250000X0*%
%TD*%
%TA.AperFunction,SMDPad,CuDef*%
%ADD20RoundRect,0.250001X0.624999X-0.462499X0.624999X0.462499X-0.624999X0.462499X-0.624999X-0.462499X0*%
%TD*%
%TA.AperFunction,SMDPad,CuDef*%
%ADD21RoundRect,0.200000X-0.200000X-0.275000X0.200000X-0.275000X0.200000X0.275000X-0.200000X0.275000X0*%
%TD*%
%TA.AperFunction,SMDPad,CuDef*%
%ADD22R,0.580000X0.350000*%
%TD*%
%TA.AperFunction,SMDPad,CuDef*%
%ADD23R,0.350000X0.580000*%
%TD*%
%TA.AperFunction,SMDPad,CuDef*%
%ADD24RoundRect,0.225000X-0.250000X0.225000X-0.250000X-0.225000X0.250000X-0.225000X0.250000X0.225000X0*%
%TD*%
%TA.AperFunction,SMDPad,CuDef*%
%ADD25R,1.300000X1.000000*%
%TD*%
%TA.AperFunction,SMDPad,CuDef*%
%ADD26RoundRect,0.218750X-0.381250X0.218750X-0.381250X-0.218750X0.381250X-0.218750X0.381250X0.218750X0*%
%TD*%
%TA.AperFunction,SMDPad,CuDef*%
%ADD27RoundRect,0.250000X-0.262500X-0.450000X0.262500X-0.450000X0.262500X0.450000X-0.262500X0.450000X0*%
%TD*%
%TA.AperFunction,SMDPad,CuDef*%
%ADD28RoundRect,0.250000X0.450000X-0.262500X0.450000X0.262500X-0.450000X0.262500X-0.450000X-0.262500X0*%
%TD*%
%TA.AperFunction,SMDPad,CuDef*%
%ADD29R,2.100000X1.400000*%
%TD*%
%TA.AperFunction,SMDPad,CuDef*%
%ADD30RoundRect,0.250000X-0.475000X0.250000X-0.475000X-0.250000X0.475000X-0.250000X0.475000X0.250000X0*%
%TD*%
%TA.AperFunction,SMDPad,CuDef*%
%ADD31RoundRect,0.041300X0.948700X0.253700X-0.948700X0.253700X-0.948700X-0.253700X0.948700X-0.253700X0*%
%TD*%
%TA.AperFunction,SMDPad,CuDef*%
%ADD32RoundRect,0.098350X0.604150X1.437900X-0.604150X1.437900X-0.604150X-1.437900X0.604150X-1.437900X0*%
%TD*%
%TA.AperFunction,SMDPad,CuDef*%
%ADD33RoundRect,0.218750X-0.218750X-0.381250X0.218750X-0.381250X0.218750X0.381250X-0.218750X0.381250X0*%
%TD*%
%TA.AperFunction,SMDPad,CuDef*%
%ADD34RoundRect,0.100000X0.100000X-2.750000X0.100000X2.750000X-0.100000X2.750000X-0.100000X-2.750000X0*%
%TD*%
%TA.AperFunction,SMDPad,CuDef*%
%ADD35RoundRect,0.100000X0.100000X-6.400000X0.100000X6.400000X-0.100000X6.400000X-0.100000X-6.400000X0*%
%TD*%
%TA.AperFunction,SMDPad,CuDef*%
%ADD36RoundRect,0.102500X-12.887500X-0.102500X12.887500X-0.102500X12.887500X0.102500X-12.887500X0.102500X0*%
%TD*%
%TA.AperFunction,SMDPad,CuDef*%
%ADD37RoundRect,0.097500X-12.887500X-0.097500X12.887500X-0.097500X12.887500X0.097500X-12.887500X0.097500X0*%
%TD*%
%TA.AperFunction,SMDPad,CuDef*%
%ADD38RoundRect,0.102500X0.102500X-9.867500X0.102500X9.867500X-0.102500X9.867500X-0.102500X-9.867500X0*%
%TD*%
%TA.AperFunction,SMDPad,CuDef*%
%ADD39RoundRect,0.200000X-0.275000X0.200000X-0.275000X-0.200000X0.275000X-0.200000X0.275000X0.200000X0*%
%TD*%
%TA.AperFunction,ComponentPad*%
%ADD40R,1.524000X1.524000*%
%TD*%
%TA.AperFunction,ComponentPad*%
%ADD41C,1.524000*%
%TD*%
%TA.AperFunction,ComponentPad*%
%ADD42C,3.500000*%
%TD*%
%TA.AperFunction,ComponentPad*%
%ADD43R,1.800000X1.800000*%
%TD*%
%TA.AperFunction,ComponentPad*%
%ADD44C,1.800000*%
%TD*%
%TA.AperFunction,ComponentPad*%
%ADD45R,2.600000X2.600000*%
%TD*%
%TA.AperFunction,ComponentPad*%
%ADD46C,2.600000*%
%TD*%
%TA.AperFunction,ViaPad*%
%ADD47C,0.600000*%
%TD*%
%TA.AperFunction,ViaPad*%
%ADD48C,0.800000*%
%TD*%
%TA.AperFunction,Conductor*%
%ADD49C,0.150000*%
%TD*%
%TA.AperFunction,Conductor*%
%ADD50C,0.320000*%
%TD*%
%TA.AperFunction,Conductor*%
%ADD51C,0.300000*%
%TD*%
%TA.AperFunction,Conductor*%
%ADD52C,0.200000*%
%TD*%
%TA.AperFunction,Conductor*%
%ADD53C,0.250000*%
%TD*%
%TA.AperFunction,Conductor*%
%ADD54C,0.510000*%
%TD*%
%TA.AperFunction,Conductor*%
%ADD55C,0.400000*%
%TD*%
G04 APERTURE END LIST*
D10*
%TO.P,ESP32S1,1,LNA_IN/RF*%
%TO.N,N/C*%
X163021250Y-71300000D03*
%TO.P,ESP32S1,2,VDD3P3*%
X163021250Y-71700000D03*
%TO.P,ESP32S1,3,VDD3P3*%
X163021250Y-72100000D03*
%TO.P,ESP32S1,4,CHIP_PU/RESET*%
X163021250Y-72500000D03*
%TO.P,ESP32S1,5,GPIO0/BOOT*%
X163021250Y-72900000D03*
%TO.P,ESP32S1,6,GPIO1/ADC1_CH0*%
X163021250Y-73300000D03*
%TO.P,ESP32S1,7,GPIO2/ADC1_CH1*%
X163021250Y-73700000D03*
%TO.P,ESP32S1,8,GPIO3/ADC1_CH2*%
X163021250Y-74100000D03*
%TO.P,ESP32S1,9,GPIO4/ADC1_CH3*%
X163021250Y-74500000D03*
%TO.P,ESP32S1,10,GPIO5/ADC1_CH4*%
X163021250Y-74900000D03*
%TO.P,ESP32S1,11,GPIO6/ADC1_CH5*%
X163021250Y-75300000D03*
%TO.P,ESP32S1,12,GPIO7/ADC1_CH6*%
X163021250Y-75700000D03*
%TO.P,ESP32S1,13,GPIO8/ADC1_CH7*%
X163021250Y-76100000D03*
%TO.P,ESP32S1,14,GPIO9/ADC1_CH8*%
X163021250Y-76500000D03*
D11*
%TO.P,ESP32S1,15,GPIO10/ADC1_CH9*%
X163858750Y-77337500D03*
%TO.P,ESP32S1,16,GPIO11/ADC2_CH0*%
X164258750Y-77337500D03*
%TO.P,ESP32S1,17,GPIO12/ADC2_CH1*%
X164658750Y-77337500D03*
%TO.P,ESP32S1,18,GPIO13/ADC2_CH2*%
X165058750Y-77337500D03*
%TO.P,ESP32S1,19,GPIO14/ADC2_CH3*%
X165458750Y-77337500D03*
%TO.P,ESP32S1,20,VDD3P3_RTC*%
X165858750Y-77337500D03*
%TO.P,ESP32S1,21,GPIO15/ADC2_CH4/XTAL_32K_P*%
X166258750Y-77337500D03*
%TO.P,ESP32S1,22,GPIO16/ADC2_CH5/XTAL_32K_N*%
X166658750Y-77337500D03*
%TO.P,ESP32S1,23,GPIO17/ADC2_CH6/DAC_2*%
X167058750Y-77337500D03*
%TO.P,ESP32S1,24,GPIO18/ADC2_CH7/DAC_1*%
X167458750Y-77337500D03*
%TO.P,ESP32S1,25,GPIO19/USB_D-/ADC2_CH8*%
X167858750Y-77337500D03*
%TO.P,ESP32S1,26,GPIO20/USB_D+/ADC2_CH9*%
X168258750Y-77337500D03*
%TO.P,ESP32S1,27,GPIO21*%
X168658750Y-77337500D03*
%TO.P,ESP32S1,28,SPI_CS1/GPIO26*%
X169058750Y-77337500D03*
D10*
%TO.P,ESP32S1,29,VDD_SPI*%
X169896250Y-76500000D03*
%TO.P,ESP32S1,30,SPIHD/GPIO27*%
X169896250Y-76100000D03*
%TO.P,ESP32S1,31,SPIWP/GPIO28*%
X169896250Y-75700000D03*
%TO.P,ESP32S1,32,SPICS0/GPIO29*%
X169896250Y-75300000D03*
%TO.P,ESP32S1,33,SPICLK/GPIO30*%
X169896250Y-74900000D03*
%TO.P,ESP32S1,34,SPIQ/GPIO31*%
X169896250Y-74500000D03*
%TO.P,ESP32S1,35,SPID/GPIO32*%
X169896250Y-74100000D03*
%TO.P,ESP32S1,36,SPICLK_N/GPIO48*%
X169896250Y-73700000D03*
%TO.P,ESP32S1,37,SPICLK_P/GPIO47*%
X169896250Y-73300000D03*
%TO.P,ESP32S1,38,GPIO33*%
X169896250Y-72900000D03*
%TO.P,ESP32S1,39,GPIO34*%
X169896250Y-72500000D03*
%TO.P,ESP32S1,40,GPIO35*%
X169896250Y-72100000D03*
%TO.P,ESP32S1,41,GPIO36*%
X169896250Y-71700000D03*
%TO.P,ESP32S1,42,GPIO37*%
X169896250Y-71300000D03*
D11*
%TO.P,ESP32S1,43,GPIO38*%
X169058750Y-70462500D03*
%TO.P,ESP32S1,44,MTCK/JTAG/GPIO39*%
X168658750Y-70462500D03*
%TO.P,ESP32S1,45,MTDO/JTAG/GPIO40*%
X168258750Y-70462500D03*
%TO.P,ESP32S1,46,VDD3P3_CPU*%
X167858750Y-70462500D03*
%TO.P,ESP32S1,47,MTDI/JTAG/GPIO41*%
X167458750Y-70462500D03*
%TO.P,ESP32S1,48,MTMS/JTAG/GPIO42*%
X167058750Y-70462500D03*
%TO.P,ESP32S1,49,U0TXD/PROG/GPIO43*%
X166658750Y-70462500D03*
%TO.P,ESP32S1,50,U0RXD/PROG/GPIO44*%
X166258750Y-70462500D03*
%TO.P,ESP32S1,51,GPIO45*%
X165858750Y-70462500D03*
%TO.P,ESP32S1,52,GPIO46*%
X165458750Y-70462500D03*
%TO.P,ESP32S1,53,XTAL_N*%
X165058750Y-70462500D03*
%TO.P,ESP32S1,54,XTAL_P*%
X164658750Y-70462500D03*
%TO.P,ESP32S1,55,VDDA*%
X164258750Y-70462500D03*
%TO.P,ESP32S1,56,VDDA*%
X163858750Y-70462500D03*
D12*
%TO.P,ESP32S1,57,GND*%
X166458750Y-73900000D03*
%TD*%
D13*
%TO.P,F1,1*%
%TO.N,N/C*%
X176342500Y-88770000D03*
%TO.P,F1,2*%
X179317500Y-88770000D03*
%TD*%
D14*
%TO.P,E2C2,1*%
%TO.N,N/C*%
X156648750Y-81010000D03*
%TO.P,E2C2,2*%
X158548750Y-81010000D03*
%TD*%
D15*
%TO.P,EC37,1*%
%TO.N,N/C*%
X150915000Y-70450000D03*
%TO.P,EC37,2*%
X152465000Y-70450000D03*
%TD*%
%TO.P,EC1,1*%
%TO.N,N/C*%
X156993750Y-76020000D03*
%TO.P,EC1,2*%
X158543750Y-76020000D03*
%TD*%
D16*
%TO.P,MTRT1,1*%
%TO.N,N/C*%
X157610000Y-60337500D03*
%TO.P,MTRT1,2*%
X155710000Y-60337500D03*
%TO.P,MTRT1,3*%
X156660000Y-62212500D03*
%TD*%
D17*
%TO.P,E2R2,1*%
%TO.N,N/C*%
X166583750Y-66840000D03*
%TO.P,E2R2,2*%
X164933750Y-66840000D03*
%TD*%
D18*
%TO.P,EC24,1*%
%TO.N,N/C*%
X171738750Y-76500000D03*
%TO.P,EC24,2*%
X171738750Y-74950000D03*
%TD*%
D13*
%TO.P,F1,1*%
%TO.N,N/C*%
X182445000Y-82350000D03*
%TO.P,F1,2*%
X185420000Y-82350000D03*
%TD*%
D19*
%TO.P,E2C6,1*%
%TO.N,N/C*%
X161523750Y-79220000D03*
%TO.P,E2C6,2*%
X159973750Y-79220000D03*
%TD*%
D20*
%TO.P,F1,1*%
%TO.N,N/C*%
X173040000Y-62957500D03*
%TO.P,F1,2*%
X173040000Y-59982500D03*
%TD*%
D21*
%TO.P,ER1,1*%
%TO.N,N/C*%
X156343750Y-74600000D03*
%TO.P,ER1,2*%
X157993750Y-74600000D03*
%TD*%
D22*
%TO.P,IMU1,1,SDO/SA0*%
%TO.N,N/C*%
X169093750Y-81000000D03*
%TO.P,IMU1,2,SDX*%
X169093750Y-81500000D03*
%TO.P,IMU1,3,SCX*%
X169093750Y-82000000D03*
%TO.P,IMU1,4,INT1*%
X169093750Y-82500000D03*
D23*
%TO.P,IMU1,5,VDDIO*%
X169768750Y-82675000D03*
%TO.P,IMU1,6,GND*%
X170268750Y-82675000D03*
%TO.P,IMU1,7,GND*%
X170768750Y-82675000D03*
D22*
%TO.P,IMU1,8,VDD*%
X171443750Y-82500000D03*
%TO.P,IMU1,9,INT2*%
X171443750Y-82000000D03*
%TO.P,IMU1,10,NC*%
X171443750Y-81500000D03*
%TO.P,IMU1,11,NC*%
X171443750Y-81000000D03*
D23*
%TO.P,IMU1,12,CS*%
X170768750Y-80825000D03*
%TO.P,IMU1,13,SCL*%
X170268750Y-80825000D03*
%TO.P,IMU1,14,SDA*%
X169768750Y-80825000D03*
%TD*%
D15*
%TO.P,E2C5,1*%
%TO.N,N/C*%
X156993750Y-77530000D03*
%TO.P,E2C5,2*%
X158543750Y-77530000D03*
%TD*%
D17*
%TO.P,IDR1,1*%
%TO.N,N/C*%
X174423750Y-77480000D03*
%TO.P,IDR1,2*%
X172773750Y-77480000D03*
%TD*%
D21*
%TO.P,IDR2,1*%
%TO.N,N/C*%
X175733750Y-77470000D03*
%TO.P,IDR2,2*%
X177383750Y-77470000D03*
%TD*%
D24*
%TO.P,E2C3,1*%
%TO.N,N/C*%
X159328750Y-67275000D03*
%TO.P,E2C3,2*%
X159328750Y-68825000D03*
%TD*%
D19*
%TO.P,E2C7,1*%
%TO.N,N/C*%
X158923750Y-71620000D03*
%TO.P,E2C7,2*%
X157373750Y-71620000D03*
%TD*%
D25*
%TO.P,E2CY1,1,1*%
%TO.N,N/C*%
X162428750Y-80620000D03*
%TO.P,E2CY1,2,2*%
X160228750Y-80620000D03*
%TO.P,E2CY1,3,3*%
X160228750Y-82420000D03*
%TO.P,E2CY1,4,4*%
X162428750Y-82420000D03*
%TD*%
D26*
%TO.P,EL4,1,1*%
%TO.N,N/C*%
X153590000Y-73525000D03*
%TO.P,EL4,2,2*%
X153590000Y-75650000D03*
%TD*%
D16*
%TO.P,MTRT1,1*%
%TO.N,N/C*%
X182990000Y-60355000D03*
%TO.P,MTRT1,2*%
X181090000Y-60355000D03*
%TO.P,MTRT1,3*%
X182040000Y-62230000D03*
%TD*%
D27*
%TO.P,MR2,1*%
%TO.N,N/C*%
X175927500Y-72940000D03*
%TO.P,MR2,2*%
X177752500Y-72940000D03*
%TD*%
D16*
%TO.P,MTRT1,1*%
%TO.N,N/C*%
X153440000Y-60270000D03*
%TO.P,MTRT1,2*%
X151540000Y-60270000D03*
%TO.P,MTRT1,3*%
X152490000Y-62145000D03*
%TD*%
D18*
%TO.P,E2C9,1*%
%TO.N,N/C*%
X164068750Y-82445000D03*
%TO.P,E2C9,2*%
X164068750Y-80895000D03*
%TD*%
D27*
%TO.P,MR1,1*%
%TO.N,N/C*%
X175927500Y-70670000D03*
%TO.P,MR1,2*%
X177752500Y-70670000D03*
%TD*%
D18*
%TO.P,EC25,1*%
%TO.N,N/C*%
X171858750Y-73545000D03*
%TO.P,EC25,2*%
X171858750Y-71995000D03*
%TD*%
D16*
%TO.P,MTRT1,1*%
%TO.N,N/C*%
X178960000Y-60465000D03*
%TO.P,MTRT1,2*%
X177060000Y-60465000D03*
%TO.P,MTRT1,3*%
X178010000Y-62340000D03*
%TD*%
D19*
%TO.P,E2C11,1*%
%TO.N,N/C*%
X159343750Y-65490000D03*
%TO.P,E2C11,2*%
X157793750Y-65490000D03*
%TD*%
D28*
%TO.P,MTRR1,1*%
%TO.N,N/C*%
X184810000Y-66202500D03*
%TO.P,MTRR1,2*%
X184810000Y-64377500D03*
%TD*%
D18*
%TO.P,E2C8,1*%
%TO.N,N/C*%
X167928750Y-66995000D03*
%TO.P,E2C8,2*%
X167928750Y-65445000D03*
%TD*%
D29*
%TO.P,ANT1,1,1*%
%TO.N,N/C*%
X151160000Y-75470000D03*
%TO.P,ANT1,2,2*%
X151160000Y-84970000D03*
%TD*%
D30*
%TO.P,E2C1,1*%
%TO.N,N/C*%
X157678750Y-66870000D03*
%TO.P,E2C1,2*%
X157678750Y-68770000D03*
%TD*%
D28*
%TO.P,MTRR1,1*%
%TO.N,N/C*%
X153660000Y-66142500D03*
%TO.P,MTRR1,2*%
X153660000Y-64317500D03*
%TD*%
D25*
%TO.P,E2CY2,1,1*%
%TO.N,N/C*%
X161048750Y-67210000D03*
%TO.P,E2CY2,2,2*%
X163248750Y-67210000D03*
%TO.P,E2CY2,3,3*%
X163248750Y-65410000D03*
%TO.P,E2CY2,4,4*%
X161048750Y-65410000D03*
%TD*%
D15*
%TO.P,E2C14,1*%
%TO.N,N/C*%
X164953750Y-65440000D03*
%TO.P,E2C14,2*%
X166503750Y-65440000D03*
%TD*%
D14*
%TO.P,E2C4,1*%
%TO.N,N/C*%
X156638750Y-79140000D03*
%TO.P,E2C4,2*%
X158538750Y-79140000D03*
%TD*%
D31*
%TO.P,U1,1*%
%TO.N,N/C*%
X178808750Y-82615000D03*
%TO.P,U1,2*%
X178808750Y-81345000D03*
%TO.P,U1,3*%
X178808750Y-80075000D03*
%TO.P,U1,4,GND*%
X178808750Y-78805000D03*
%TO.P,U1,5,SDA*%
X173868750Y-78805000D03*
%TO.P,U1,6,SCL*%
X173868750Y-80075000D03*
%TO.P,U1,7*%
X173868750Y-81345000D03*
%TO.P,U1,8,VCC*%
X173868750Y-82615000D03*
D32*
%TO.P,U1,9,EXP*%
X176268750Y-80760000D03*
%TD*%
D19*
%TO.P,E2C10,1*%
%TO.N,N/C*%
X158473750Y-82630000D03*
%TO.P,E2C10,2*%
X156923750Y-82630000D03*
%TD*%
D33*
%TO.P,E2L1,1,1*%
%TO.N,N/C*%
X156326250Y-73100000D03*
%TO.P,E2L1,2,2*%
X158451250Y-73100000D03*
%TD*%
D15*
%TO.P,IMUC1,1*%
%TO.N,N/C*%
X170233750Y-78420000D03*
%TO.P,IMUC1,2*%
X171783750Y-78420000D03*
%TD*%
D28*
%TO.P,MTRR1,1*%
%TO.N,N/C*%
X151460000Y-66132500D03*
%TO.P,MTRR1,2*%
X151460000Y-64307500D03*
%TD*%
D13*
%TO.P,F1,1*%
%TO.N,N/C*%
X156642500Y-88800000D03*
%TO.P,F1,2*%
X159617500Y-88800000D03*
%TD*%
D34*
%TO.P,REF\u002A\u002A,1*%
%TO.N,N/C*%
X155160000Y-66915000D03*
D35*
X155180000Y-77505000D03*
D36*
X168130000Y-64270000D03*
D37*
X168135000Y-83800000D03*
D38*
X180935000Y-74025000D03*
%TD*%
D28*
%TO.P,MTRR1,1*%
%TO.N,N/C*%
X182710000Y-66212500D03*
%TO.P,MTRR1,2*%
X182710000Y-64387500D03*
%TD*%
D39*
%TO.P,E2R1,1*%
%TO.N,N/C*%
X169438750Y-65965000D03*
%TO.P,E2R1,2*%
X169438750Y-67615000D03*
%TD*%
D24*
%TO.P,EC38,1*%
%TO.N,N/C*%
X153570000Y-77440000D03*
%TO.P,EC38,2*%
X153570000Y-78990000D03*
%TD*%
D40*
%TO.P,REF\u002A\u002A,1*%
%TO.N,N/C*%
X161490000Y-85300000D03*
D41*
%TO.P,REF\u002A\u002A,2*%
X158990000Y-85300000D03*
%TO.P,REF\u002A\u002A,3*%
X156990000Y-85300000D03*
%TO.P,REF\u002A\u002A,4*%
X154490000Y-85300000D03*
D42*
%TO.P,REF\u002A\u002A,5*%
X164560000Y-88010000D03*
X151420000Y-88010000D03*
%TD*%
D40*
%TO.P,REF\u002A\u002A,1*%
%TO.N,N/C*%
X181280000Y-85280000D03*
D41*
%TO.P,REF\u002A\u002A,2*%
X178780000Y-85280000D03*
%TO.P,REF\u002A\u002A,3*%
X176780000Y-85280000D03*
%TO.P,REF\u002A\u002A,4*%
X174280000Y-85280000D03*
D42*
%TO.P,REF\u002A\u002A,5*%
X184350000Y-87990000D03*
X171210000Y-87990000D03*
%TD*%
D43*
%TO.P,REF\u002A\u002A,1*%
%TO.N,N/C*%
X167910000Y-89460000D03*
D44*
%TO.P,REF\u002A\u002A,2*%
X167910000Y-91619000D03*
%TO.P,REF\u002A\u002A,3*%
X167910000Y-93778000D03*
%TO.P,REF\u002A\u002A,4*%
X167910000Y-95937000D03*
%TD*%
D45*
%TO.P,TEMPMX1,1,Pin_1*%
%TO.N,N/C*%
X164870000Y-62130000D03*
D46*
%TO.P,TEMPMX1,2,Pin_2*%
X168370000Y-62130000D03*
%TD*%
D47*
%TO.N,*%
X159485485Y-76375792D03*
X159678750Y-75600000D03*
X159838750Y-74025500D03*
X170268750Y-81760000D03*
X161574983Y-76056233D03*
D48*
X159588750Y-78140000D03*
D47*
X165133250Y-67860000D03*
D48*
X156278750Y-68730000D03*
D47*
X171874479Y-79398306D03*
X162523738Y-77913328D03*
X165614416Y-69429128D03*
X167878750Y-82040000D03*
D48*
X164588750Y-72030000D03*
D47*
X170348750Y-80010000D03*
X161520809Y-76922874D03*
X160728750Y-73220000D03*
D48*
X156148750Y-77880000D03*
D47*
X166278750Y-82960000D03*
X169408750Y-68520000D03*
X165068750Y-80800000D03*
X168118750Y-82890000D03*
X163878750Y-78860000D03*
X166619763Y-67881013D03*
X171053750Y-79475000D03*
X169168750Y-78360000D03*
X167528750Y-67990000D03*
X165268750Y-79420500D03*
D48*
X156188750Y-71530000D03*
D47*
X159168750Y-74770000D03*
X164694250Y-78716020D03*
X162307347Y-77129250D03*
X169438750Y-65240000D03*
X160249250Y-76842767D03*
X172298750Y-82630000D03*
X165555833Y-82587083D03*
D48*
X162228783Y-70555466D03*
D47*
X157575302Y-79958339D03*
X163247301Y-78264500D03*
X165899106Y-68540745D03*
X166928750Y-82190000D03*
X167778750Y-68790000D03*
%TD*%
D49*
%TO.N,*%
X170927733Y-79348983D02*
X170196594Y-79348983D01*
D50*
X159824537Y-70190000D02*
X157172964Y-70190000D01*
D49*
X164558750Y-67215000D02*
X164668750Y-67105000D01*
D51*
X156993750Y-76025000D02*
X156993750Y-76020000D01*
D52*
X162338750Y-72100000D02*
X163021250Y-72100000D01*
D51*
X162443750Y-82435000D02*
X162428750Y-82420000D01*
D49*
X168258750Y-77337500D02*
X168258750Y-77935130D01*
X174183750Y-78805000D02*
X174423750Y-78565000D01*
X164658750Y-77929593D02*
X163738750Y-78849593D01*
D51*
X164158750Y-80070000D02*
X165598750Y-80070000D01*
D49*
X171773750Y-78600000D02*
X172773750Y-77600000D01*
X162747066Y-77690000D02*
X162523738Y-77913328D01*
D51*
X162028750Y-82420000D02*
X160228750Y-80620000D01*
D52*
X157373750Y-70805000D02*
X157456779Y-70721971D01*
D49*
X158288750Y-74020000D02*
X158908750Y-74020000D01*
D53*
X158543750Y-77530000D02*
X158868750Y-77530000D01*
D49*
X162708750Y-76500000D02*
X163021250Y-76500000D01*
D54*
X156048750Y-75350000D02*
X156048750Y-77150000D01*
X165573750Y-67860000D02*
X166593750Y-66840000D01*
D50*
X162078750Y-71300000D02*
X161965857Y-71300000D01*
D49*
X165614416Y-69429128D02*
X165407826Y-69429128D01*
X168658750Y-69965381D02*
X168874131Y-69750000D01*
D51*
X163308750Y-79220000D02*
X164158750Y-80070000D01*
D49*
X168958750Y-83690000D02*
X169048750Y-83780000D01*
X172963750Y-80075000D02*
X173748750Y-80075000D01*
X165407826Y-69429128D02*
X164558750Y-68580052D01*
X168158750Y-80656622D02*
X166948750Y-81866622D01*
X161428750Y-67590000D02*
X161428750Y-67210000D01*
X164918750Y-82411700D02*
X164918750Y-82900000D01*
D51*
X161298750Y-71890000D02*
X161258750Y-71850000D01*
X156823750Y-82630000D02*
X156928750Y-82630000D01*
D52*
X166368750Y-79060000D02*
X166368750Y-79936396D01*
D54*
X156413750Y-74610000D02*
X156413750Y-74985000D01*
D49*
X166258750Y-70462500D02*
X166258750Y-69870407D01*
D51*
X158543750Y-77530000D02*
X158683750Y-77390000D01*
D49*
X166658750Y-69970000D02*
X166658750Y-69965381D01*
X166658750Y-70462500D02*
X166658750Y-69965381D01*
X167443750Y-78605052D02*
X167443750Y-79725000D01*
X166619763Y-67881013D02*
X166658750Y-67920000D01*
D52*
X164258750Y-69900000D02*
X164258750Y-70462500D01*
D49*
X167858750Y-69775433D02*
X168538750Y-69095433D01*
X171053750Y-79475000D02*
X171552056Y-79973306D01*
X168258750Y-69870407D02*
X168729157Y-69400000D01*
X173748750Y-78805000D02*
X174183750Y-78805000D01*
D51*
X160194081Y-77684670D02*
X161273420Y-77684670D01*
D49*
X166278750Y-82041648D02*
X166278750Y-82960000D01*
D54*
X161523750Y-78855000D02*
X161523750Y-79220000D01*
D51*
X162428750Y-82420000D02*
X162028750Y-82420000D01*
D49*
X163858750Y-77337500D02*
X163858750Y-77680000D01*
D51*
X159973750Y-80385000D02*
X160368750Y-80780000D01*
D49*
X164258750Y-77834619D02*
X163828869Y-78264500D01*
X161328802Y-74500000D02*
X160258776Y-75570026D01*
X172773750Y-77480000D02*
X172808750Y-77480000D01*
D54*
X158923750Y-71620000D02*
X159103750Y-71440000D01*
D49*
X168658750Y-77337500D02*
X168658750Y-77840155D01*
D51*
X158538750Y-79140000D02*
X158538750Y-77535000D01*
D49*
X166658750Y-77337500D02*
X166658750Y-78315026D01*
X160778854Y-74060000D02*
X160458750Y-74060000D01*
D54*
X158923750Y-72085000D02*
X158328750Y-72680000D01*
D49*
X161931216Y-75700000D02*
X161574983Y-76056233D01*
X173473750Y-82630000D02*
X172228750Y-82630000D01*
X164918750Y-82900000D02*
X164578750Y-83240000D01*
X165058750Y-69575026D02*
X164208750Y-68725026D01*
D50*
X160189708Y-69651971D02*
X155418750Y-69651971D01*
D49*
X167458750Y-78125078D02*
X167793750Y-78460078D01*
X164258750Y-77337500D02*
X164258750Y-77834619D01*
D52*
X157373750Y-71620000D02*
X157373750Y-70805000D01*
D49*
X166258750Y-74100000D02*
X166458750Y-73900000D01*
X167858750Y-70462500D02*
X167858750Y-69775433D01*
D51*
X159328750Y-67275000D02*
X159043750Y-67275000D01*
D49*
X167458750Y-77337500D02*
X167458750Y-78125078D01*
X168258750Y-77935130D02*
X168508750Y-78185130D01*
X160428750Y-72500000D02*
X163021250Y-72500000D01*
X160533828Y-74800000D02*
X159768750Y-74800000D01*
X169438750Y-68330000D02*
X169408750Y-68360000D01*
D51*
X165918750Y-79750000D02*
X165918750Y-78760000D01*
D52*
X160440742Y-68361992D02*
X159353750Y-67275000D01*
D49*
X163021250Y-74500000D02*
X161328802Y-74500000D01*
X166658750Y-67920000D02*
X166658750Y-69965381D01*
D51*
X167928750Y-66995000D02*
X167928750Y-67400000D01*
D54*
X160548750Y-68940000D02*
X156488750Y-68940000D01*
D51*
X167928750Y-67400000D02*
X168558750Y-68030000D01*
D49*
X170758750Y-80810000D02*
X170758750Y-81270000D01*
X162307347Y-77129250D02*
X162307347Y-76901403D01*
X170247233Y-79923983D02*
X170692733Y-79923983D01*
D52*
X161325724Y-68361992D02*
X160440742Y-68361992D01*
D49*
X169768750Y-82840000D02*
X169488750Y-83120000D01*
X164208750Y-68725026D02*
X164208750Y-67960000D01*
X170268750Y-82765000D02*
X170268750Y-83695000D01*
X168508750Y-80050000D02*
X168508750Y-81310000D01*
X165638750Y-82186674D02*
X165638750Y-82620000D01*
X167443750Y-80381674D02*
X165638750Y-82186674D01*
X164658750Y-70462500D02*
X164658750Y-69670000D01*
X173578750Y-76710000D02*
X175098750Y-76710000D01*
D54*
X160172563Y-71440000D02*
X160582563Y-71850000D01*
D52*
X158543750Y-77530000D02*
X158633750Y-77440000D01*
D49*
X164658750Y-69670000D02*
X163288750Y-68300000D01*
D51*
X161411923Y-77820000D02*
X162311923Y-78720000D01*
D52*
X163021250Y-71700000D02*
X162318750Y-71700000D01*
D51*
X157678750Y-65605000D02*
X157793750Y-65490000D01*
X166508750Y-65445000D02*
X166503750Y-65440000D01*
D49*
X168729157Y-69400000D02*
X169378750Y-69400000D01*
X167458750Y-70462500D02*
X167458750Y-69170000D01*
D54*
X156048750Y-77530000D02*
X156993750Y-77530000D01*
D51*
X164068750Y-82350000D02*
X164068750Y-82445000D01*
D49*
X166743750Y-78895000D02*
X166743750Y-80091726D01*
X166948750Y-81866622D02*
X166948750Y-82180000D01*
X164658750Y-77337500D02*
X164658750Y-77929593D01*
D51*
X161523750Y-79220000D02*
X163308750Y-79220000D01*
X163248750Y-67210000D02*
X162848750Y-67210000D01*
D49*
X166658750Y-78315026D02*
X167093750Y-78750026D01*
D51*
X162568750Y-82580000D02*
X162168750Y-82580000D01*
D54*
X156188750Y-74465000D02*
X156188750Y-71530000D01*
D49*
X171053750Y-79475000D02*
X170927733Y-79348983D01*
X165058750Y-70462500D02*
X165058750Y-69575026D01*
D51*
X158938750Y-80620000D02*
X158548750Y-81010000D01*
X160228750Y-80620000D02*
X158938750Y-80620000D01*
D49*
X167058750Y-77337500D02*
X167058750Y-78220052D01*
D50*
X161659584Y-71199141D02*
X161236229Y-70775786D01*
D52*
X163858750Y-70462500D02*
X163858750Y-69880000D01*
D49*
X158543750Y-75935000D02*
X157993750Y-75385000D01*
X165858750Y-73300000D02*
X166458750Y-73900000D01*
X169768750Y-79776827D02*
X169768750Y-80825000D01*
D51*
X162428750Y-80710000D02*
X164068750Y-82350000D01*
X158638750Y-66870000D02*
X157678750Y-66870000D01*
D49*
X169058750Y-77337500D02*
X170711250Y-77337500D01*
X165058750Y-78024567D02*
X164694250Y-78389067D01*
X176738750Y-78550000D02*
X177383750Y-77905000D01*
X171348750Y-82570000D02*
X171253750Y-82475000D01*
X165268750Y-79420500D02*
X165268750Y-78309542D01*
D54*
X156048750Y-77780000D02*
X156148750Y-77880000D01*
D49*
X172808750Y-77480000D02*
X173578750Y-76710000D01*
X163021250Y-73700000D02*
X161633828Y-73700000D01*
X161520809Y-76922874D02*
X161701257Y-76922874D01*
D52*
X162128750Y-71890000D02*
X162338750Y-72100000D01*
D49*
X172773750Y-77600000D02*
X172773750Y-77480000D01*
X165899495Y-68540745D02*
X166238750Y-68880000D01*
X170711250Y-77337500D02*
X170768750Y-77280000D01*
D54*
X159506276Y-78181960D02*
X159614316Y-78290000D01*
D51*
X168558750Y-68030000D02*
X168558750Y-68940000D01*
X162311923Y-78720000D02*
X162778750Y-78720000D01*
D50*
X161893797Y-70659141D02*
X161470442Y-70235786D01*
D49*
X164668750Y-67105000D02*
X164943750Y-67105000D01*
D51*
X156923750Y-82825000D02*
X156923750Y-83750000D01*
D54*
X160582563Y-71850000D02*
X161258750Y-71850000D01*
D49*
X169768750Y-82675000D02*
X169768750Y-82840000D01*
D51*
X165598750Y-80070000D02*
X165918750Y-79750000D01*
D49*
X169438750Y-65965000D02*
X169438750Y-65210000D01*
X178893750Y-78810000D02*
X180448750Y-78810000D01*
X167443750Y-79725000D02*
X167443750Y-80280000D01*
X174423750Y-78565000D02*
X174423750Y-77480000D01*
X169438750Y-65210000D02*
X169428750Y-65200000D01*
D51*
X158498750Y-77530000D02*
X156993750Y-76025000D01*
D49*
X161701257Y-76922874D02*
X162524131Y-76100000D01*
X163848750Y-77690000D02*
X162747066Y-77690000D01*
X168508750Y-80050000D02*
X168508750Y-80500000D01*
X163021250Y-73300000D02*
X161538854Y-73300000D01*
D51*
X167928750Y-65445000D02*
X166508750Y-65445000D01*
D49*
X163021250Y-74900000D02*
X161423776Y-74900000D01*
D52*
X164163750Y-80800000D02*
X164068750Y-80895000D01*
D49*
X167058750Y-70462500D02*
X167058750Y-68460000D01*
X164694250Y-78389067D02*
X164694250Y-78734500D01*
X161538854Y-73300000D02*
X160778854Y-74060000D01*
X167793750Y-78460078D02*
X167793750Y-80526648D01*
X170196594Y-79348983D02*
X169768750Y-79776827D01*
X175733750Y-77345000D02*
X175733750Y-77470000D01*
X158908750Y-74020000D02*
X160428750Y-72500000D01*
D54*
X163298750Y-69678000D02*
X161983669Y-69678000D01*
D49*
X167458750Y-69170000D02*
X167858750Y-68770000D01*
X169438750Y-67615000D02*
X169438750Y-68330000D01*
X165058750Y-77337500D02*
X165058750Y-78024567D01*
D51*
X161408750Y-77820000D02*
X161411923Y-77820000D01*
D49*
X169168595Y-78350000D02*
X169178750Y-78350000D01*
D52*
X165505146Y-80800000D02*
X164163750Y-80800000D01*
D49*
X166743750Y-80091726D02*
X164390476Y-82445000D01*
X165458750Y-70462500D02*
X165458750Y-69470000D01*
D52*
X163858750Y-69880000D02*
X164048750Y-69690000D01*
D50*
X157456779Y-70721971D02*
X155408750Y-70721971D01*
D49*
X161633828Y-73700000D02*
X160533828Y-74800000D01*
D52*
X163118750Y-79670000D02*
X162278750Y-79670000D01*
D49*
X171208750Y-80440000D02*
X172598750Y-80440000D01*
D51*
X159973750Y-79300000D02*
X159973750Y-80385000D01*
X160998750Y-65247500D02*
X160998750Y-64272500D01*
X158543750Y-77530000D02*
X158498750Y-77530000D01*
D49*
X173748750Y-80075000D02*
X174183750Y-80075000D01*
D51*
X162848750Y-67210000D02*
X161048750Y-65410000D01*
D54*
X156848750Y-77755000D02*
X156848750Y-80525000D01*
D49*
X171673021Y-79398306D02*
X171773750Y-79499035D01*
D53*
X165878750Y-78140000D02*
X165878750Y-78720000D01*
D49*
X171552056Y-79973306D02*
X172195444Y-79973306D01*
D51*
X162128750Y-71890000D02*
X161298750Y-71890000D01*
D49*
X174183750Y-80075000D02*
X175708750Y-78550000D01*
D52*
X162318750Y-71700000D02*
X162128750Y-71890000D01*
D49*
X168874131Y-69750000D02*
X169348750Y-69750000D01*
X166278750Y-77357500D02*
X166278750Y-78430000D01*
D54*
X167773750Y-66840000D02*
X167928750Y-66995000D01*
D51*
X164048750Y-69670000D02*
X164008750Y-69630000D01*
D54*
X159614316Y-78290000D02*
X160958750Y-78290000D01*
D49*
X171773750Y-79499035D02*
X171773750Y-78600000D01*
D54*
X156048750Y-77150000D02*
X156048750Y-77530000D01*
D53*
X164048750Y-69670000D02*
X164048750Y-69690000D01*
D49*
X168658750Y-70462500D02*
X168658750Y-69965381D01*
D54*
X158328750Y-72680000D02*
X158328750Y-73257500D01*
D49*
X173363750Y-78805000D02*
X173748750Y-78805000D01*
X167858750Y-77337500D02*
X167858750Y-78030104D01*
X163021250Y-75300000D02*
X161518750Y-75300000D01*
X163021250Y-75700000D02*
X161931216Y-75700000D01*
D51*
X159899411Y-77390000D02*
X160194081Y-77684670D01*
D49*
X175098750Y-76710000D02*
X175733750Y-77345000D01*
D51*
X158548750Y-81010000D02*
X158548750Y-79150000D01*
D49*
X164558750Y-68580052D02*
X164558750Y-67215000D01*
D52*
X164048750Y-69690000D02*
X164258750Y-69900000D01*
X162028750Y-68747107D02*
X161934536Y-68652893D01*
D49*
X168258750Y-70462500D02*
X168258750Y-69870407D01*
X157993750Y-75385000D02*
X157993750Y-74600000D01*
X167058750Y-68460000D02*
X167508750Y-68010000D01*
X168538750Y-69095433D02*
X168538750Y-68890000D01*
X165858750Y-70462500D02*
X165858750Y-73300000D01*
X172195444Y-79973306D02*
X173363750Y-78805000D01*
D51*
X162428750Y-80620000D02*
X162428750Y-80710000D01*
D54*
X161983669Y-69678000D02*
X161829484Y-69523815D01*
D49*
X170758750Y-82765000D02*
X170758750Y-83695000D01*
D50*
X161893797Y-70659141D02*
X163157891Y-70659141D01*
D49*
X165268750Y-78309542D02*
X165458750Y-78119542D01*
X160183776Y-76140000D02*
X160058750Y-76140000D01*
D54*
X158923750Y-71620000D02*
X158923750Y-72085000D01*
D49*
X167093750Y-78750026D02*
X167093750Y-80236700D01*
D54*
X159103750Y-71440000D02*
X160172563Y-71440000D01*
D49*
X167058750Y-78220052D02*
X167443750Y-78605052D01*
X161518750Y-75300000D02*
X160498750Y-76320000D01*
X167093750Y-80236700D02*
X164918750Y-82411700D01*
D51*
X156928750Y-82630000D02*
X158548750Y-81010000D01*
X164008750Y-69630000D02*
X163348750Y-69630000D01*
D54*
X156488750Y-68940000D02*
X156278750Y-68730000D01*
X161523750Y-79300000D02*
X161523750Y-79220000D01*
D49*
X158543750Y-76020000D02*
X158543750Y-75935000D01*
D54*
X156413750Y-74985000D02*
X156048750Y-75350000D01*
D49*
X175708750Y-78550000D02*
X176738750Y-78550000D01*
X157993750Y-74600000D02*
X157993750Y-74315000D01*
D51*
X167928750Y-65217500D02*
X167928750Y-64242500D01*
D49*
X168218750Y-83120000D02*
X168138750Y-83040000D01*
X170692733Y-79923983D02*
X171208750Y-80440000D01*
X172298750Y-82630000D02*
X172238750Y-82570000D01*
X168508750Y-81310000D02*
X167718750Y-82100000D01*
X172238750Y-82570000D02*
X171348750Y-82570000D01*
D51*
X159043750Y-67275000D02*
X158638750Y-66870000D01*
D49*
X166238750Y-69830000D02*
X166258750Y-69850000D01*
X167858750Y-78030104D02*
X168158750Y-78330104D01*
X164390476Y-82445000D02*
X164068750Y-82445000D01*
X161423776Y-74900000D02*
X160183776Y-76140000D01*
X173748750Y-82615000D02*
X174653750Y-82615000D01*
D51*
X161273420Y-77684670D02*
X161408750Y-77820000D01*
D49*
X170758750Y-81270000D02*
X170268750Y-81760000D01*
X162524131Y-76100000D02*
X163021250Y-76100000D01*
D50*
X159920343Y-70738176D02*
X159689708Y-70721971D01*
D51*
X158538750Y-77535000D02*
X158543750Y-77530000D01*
D49*
X163288750Y-68300000D02*
X162138750Y-68300000D01*
X163858750Y-77680000D02*
X163848750Y-77690000D01*
X165899106Y-68540745D02*
X165899495Y-68540745D01*
D55*
X158373750Y-82630000D02*
X160318750Y-82630000D01*
D52*
X164068750Y-80620000D02*
X163118750Y-79670000D01*
X163021250Y-71300000D02*
X162078750Y-71300000D01*
D49*
X161048750Y-83240000D02*
X160228750Y-82420000D01*
X168508750Y-78185130D02*
X168508750Y-80050000D01*
D54*
X156048750Y-77150000D02*
X156048750Y-77780000D01*
D51*
X157758750Y-65247500D02*
X157758750Y-64272500D01*
D49*
X168658750Y-77840155D02*
X169168595Y-78350000D01*
D51*
X157678750Y-66870000D02*
X157678750Y-65605000D01*
D54*
X156333750Y-74610000D02*
X156188750Y-74465000D01*
D51*
X158548750Y-79150000D02*
X158538750Y-79140000D01*
D54*
X156498750Y-77530000D02*
X156148750Y-77880000D01*
D49*
X164208750Y-65450000D02*
X164208750Y-68095026D01*
X167443750Y-79725000D02*
X167443750Y-80381674D01*
X166278750Y-78430000D02*
X166743750Y-78895000D01*
D52*
X163341643Y-69040000D02*
X162735857Y-69040000D01*
D49*
X161048750Y-72900000D02*
X163021250Y-72900000D01*
D52*
X166368750Y-79936396D02*
X165505146Y-80800000D01*
D55*
X159343750Y-65705000D02*
X160908750Y-67270000D01*
D52*
X164068750Y-80895000D02*
X164068750Y-80620000D01*
D49*
X172598750Y-80440000D02*
X172963750Y-80075000D01*
X160728750Y-73220000D02*
X161048750Y-72900000D01*
D50*
X159688750Y-70721971D02*
X157456779Y-70721971D01*
D54*
X156993750Y-77530000D02*
X156498750Y-77530000D01*
D49*
X170268750Y-80046233D02*
X170268750Y-80753767D01*
X157993750Y-74315000D02*
X158288750Y-74020000D01*
D54*
X166583750Y-66840000D02*
X167773750Y-66840000D01*
D55*
X160318750Y-82630000D02*
X160368750Y-82580000D01*
D49*
X169488750Y-83120000D02*
X168218750Y-83120000D01*
X162138750Y-68300000D02*
X161428750Y-67590000D01*
X163828869Y-78264500D02*
X163247301Y-78264500D01*
D53*
X165878750Y-78720000D02*
X165918750Y-78760000D01*
D49*
X164578750Y-83240000D02*
X161048750Y-83240000D01*
X165458750Y-78119542D02*
X165458750Y-77337500D01*
D52*
X165858750Y-77337500D02*
X165858750Y-78180000D01*
D54*
X165133250Y-67860000D02*
X165573750Y-67860000D01*
D49*
X177383750Y-77905000D02*
X177383750Y-77470000D01*
X162307347Y-76901403D02*
X162708750Y-76500000D01*
X166258750Y-77337500D02*
X166278750Y-77357500D01*
X168158750Y-78330104D02*
X168158750Y-80656622D01*
D54*
X160958750Y-78290000D02*
X161523750Y-78855000D01*
D51*
X158683750Y-77390000D02*
X159899411Y-77390000D01*
D49*
X163021250Y-74100000D02*
X166258750Y-74100000D01*
X167793750Y-80526648D02*
X166278750Y-82041648D01*
D55*
X164823750Y-65440000D02*
X163278750Y-65440000D01*
D49*
X166238750Y-68880000D02*
X166238750Y-69830000D01*
D52*
X162028772Y-68747085D02*
G75*
G03*
X162735857Y-69040000I707128J707085D01*
G01*
D50*
X160809140Y-71142471D02*
G75*
G03*
X159920343Y-70738176I-986740J-990129D01*
G01*
D52*
X161934527Y-68652902D02*
G75*
G03*
X161325724Y-68361992I-721627J-727698D01*
G01*
D50*
X161472953Y-70235796D02*
G75*
G03*
X160189708Y-69651971I-1424753J-1429404D01*
G01*
X161659603Y-71199114D02*
G75*
G03*
X161965857Y-71299999I311397J430014D01*
G01*
D54*
X161832010Y-69523810D02*
G75*
G03*
X160548750Y-68940001I-1424810J-1429590D01*
G01*
D50*
X161238732Y-70775804D02*
G75*
G03*
X159824537Y-70190000I-1414232J-1414196D01*
G01*
%TD*%
M02*
