%TF.GenerationSoftware,KiCad,Pcbnew,7.0.2*%
%TF.CreationDate,2023-05-21T15:20:29+02:00*%
%TF.ProjectId,5V DC Smart Socket,35562044-4320-4536-9d61-727420536f63,rev?*%
%TF.SameCoordinates,Original*%
%TF.FileFunction,Copper,L1,Top*%
%TF.FilePolarity,Positive*%
%FSLAX46Y46*%
G04 Gerber Fmt 4.6, Leading zero omitted, Abs format (unit mm)*
G04 Created by KiCad (PCBNEW 7.0.2) date 2023-05-21 15:20:29*
%MOMM*%
%LPD*%
G01*
G04 APERTURE LIST*
G04 Aperture macros list*
%AMRoundRect*
0 Rectangle with rounded corners*
0 $1 Rounding radius*
0 $2 $3 $4 $5 $6 $7 $8 $9 X,Y pos of 4 corners*
0 Add a 4 corners polygon primitive as box body*
4,1,4,$2,$3,$4,$5,$6,$7,$8,$9,$2,$3,0*
0 Add four circle primitives for the rounded corners*
1,1,$1+$1,$2,$3*
1,1,$1+$1,$4,$5*
1,1,$1+$1,$6,$7*
1,1,$1+$1,$8,$9*
0 Add four rect primitives between the rounded corners*
20,1,$1+$1,$2,$3,$4,$5,0*
20,1,$1+$1,$4,$5,$6,$7,0*
20,1,$1+$1,$6,$7,$8,$9,0*
20,1,$1+$1,$8,$9,$2,$3,0*%
G04 Aperture macros list end*
%TA.AperFunction,ComponentPad*%
%ADD10R,1.524000X1.524000*%
%TD*%
%TA.AperFunction,ComponentPad*%
%ADD11C,1.524000*%
%TD*%
%TA.AperFunction,ComponentPad*%
%ADD12C,3.500000*%
%TD*%
%TA.AperFunction,ComponentPad*%
%ADD13R,2.600000X2.600000*%
%TD*%
%TA.AperFunction,ComponentPad*%
%ADD14C,2.600000*%
%TD*%
%TA.AperFunction,SMDPad,CuDef*%
%ADD15R,0.650000X0.200000*%
%TD*%
%TA.AperFunction,SMDPad,CuDef*%
%ADD16R,0.200000X0.700000*%
%TD*%
%TA.AperFunction,SMDPad,CuDef*%
%ADD17R,1.100000X0.200000*%
%TD*%
%TA.AperFunction,SMDPad,CuDef*%
%ADD18RoundRect,0.200000X-0.275000X0.200000X-0.275000X-0.200000X0.275000X-0.200000X0.275000X0.200000X0*%
%TD*%
%TA.AperFunction,SMDPad,CuDef*%
%ADD19RoundRect,0.200000X0.275000X-0.200000X0.275000X0.200000X-0.275000X0.200000X-0.275000X-0.200000X0*%
%TD*%
%TA.AperFunction,SMDPad,CuDef*%
%ADD20RoundRect,0.200000X-0.200000X-0.275000X0.200000X-0.275000X0.200000X0.275000X-0.200000X0.275000X0*%
%TD*%
%TA.AperFunction,SMDPad,CuDef*%
%ADD21RoundRect,0.250000X1.075000X-0.375000X1.075000X0.375000X-1.075000X0.375000X-1.075000X-0.375000X0*%
%TD*%
%TA.AperFunction,SMDPad,CuDef*%
%ADD22RoundRect,0.250000X0.475000X-0.250000X0.475000X0.250000X-0.475000X0.250000X-0.475000X-0.250000X0*%
%TD*%
%TA.AperFunction,SMDPad,CuDef*%
%ADD23RoundRect,0.250000X0.250000X0.475000X-0.250000X0.475000X-0.250000X-0.475000X0.250000X-0.475000X0*%
%TD*%
%TA.AperFunction,SMDPad,CuDef*%
%ADD24RoundRect,0.250000X-0.250000X-0.475000X0.250000X-0.475000X0.250000X0.475000X-0.250000X0.475000X0*%
%TD*%
%TA.AperFunction,SMDPad,CuDef*%
%ADD25RoundRect,0.250000X-0.475000X0.250000X-0.475000X-0.250000X0.475000X-0.250000X0.475000X0.250000X0*%
%TD*%
%TA.AperFunction,SMDPad,CuDef*%
%ADD26R,3.810000X4.240000*%
%TD*%
%TA.AperFunction,SMDPad,CuDef*%
%ADD27RoundRect,0.225000X-0.250000X0.225000X-0.250000X-0.225000X0.250000X-0.225000X0.250000X0.225000X0*%
%TD*%
%TA.AperFunction,SMDPad,CuDef*%
%ADD28RoundRect,0.225000X-0.225000X-0.250000X0.225000X-0.250000X0.225000X0.250000X-0.225000X0.250000X0*%
%TD*%
%TA.AperFunction,ComponentPad*%
%ADD29R,1.800000X1.800000*%
%TD*%
%TA.AperFunction,ComponentPad*%
%ADD30C,1.800000*%
%TD*%
%TA.AperFunction,SMDPad,CuDef*%
%ADD31RoundRect,0.225000X0.250000X-0.225000X0.250000X0.225000X-0.250000X0.225000X-0.250000X-0.225000X0*%
%TD*%
%TA.AperFunction,SMDPad,CuDef*%
%ADD32R,0.850000X0.300000*%
%TD*%
%TA.AperFunction,SMDPad,CuDef*%
%ADD33R,0.300000X0.850000*%
%TD*%
%TA.AperFunction,SMDPad,CuDef*%
%ADD34R,0.800000X1.270000*%
%TD*%
%TA.AperFunction,SMDPad,CuDef*%
%ADD35RoundRect,0.218750X0.381250X-0.218750X0.381250X0.218750X-0.381250X0.218750X-0.381250X-0.218750X0*%
%TD*%
%TA.AperFunction,SMDPad,CuDef*%
%ADD36RoundRect,0.200000X0.200000X0.275000X-0.200000X0.275000X-0.200000X-0.275000X0.200000X-0.275000X0*%
%TD*%
%TA.AperFunction,SMDPad,CuDef*%
%ADD37R,4.240000X3.810000*%
%TD*%
%TA.AperFunction,SMDPad,CuDef*%
%ADD38RoundRect,0.041300X-0.253700X0.948700X-0.253700X-0.948700X0.253700X-0.948700X0.253700X0.948700X0*%
%TD*%
%TA.AperFunction,SMDPad,CuDef*%
%ADD39O,0.800000X1.500000*%
%TD*%
%TA.AperFunction,SMDPad,CuDef*%
%ADD40R,1.270000X0.800000*%
%TD*%
%TA.AperFunction,ViaPad*%
%ADD41C,0.600000*%
%TD*%
%TA.AperFunction,ViaPad*%
%ADD42C,0.800000*%
%TD*%
%TA.AperFunction,ViaPad*%
%ADD43C,0.700000*%
%TD*%
%TA.AperFunction,Conductor*%
%ADD44C,0.500000*%
%TD*%
%TA.AperFunction,Conductor*%
%ADD45C,0.150000*%
%TD*%
%TA.AperFunction,Conductor*%
%ADD46C,0.300000*%
%TD*%
%TA.AperFunction,Conductor*%
%ADD47C,1.500000*%
%TD*%
%TA.AperFunction,Conductor*%
%ADD48C,0.200000*%
%TD*%
%TA.AperFunction,Conductor*%
%ADD49C,1.000000*%
%TD*%
G04 APERTURE END LIST*
D10*
%TO.P,USB1,1,VBUS*%
%TO.N,USB1_V*%
X221250000Y-83650000D03*
D11*
%TO.P,USB1,2,D-*%
%TO.N,unconnected-(USB1-D--Pad2)*%
X223750000Y-83650000D03*
%TO.P,USB1,3,D+*%
%TO.N,unconnected-(USB1-D+-Pad3)*%
X225750000Y-83650000D03*
%TO.P,USB1,4,GND*%
%TO.N,USB1_GND*%
X228250000Y-83650000D03*
D12*
%TO.P,USB1,5,Shield*%
%TO.N,unconnected-(USB1-Shield-Pad5)*%
X218180000Y-86360000D03*
X231320000Y-86360000D03*
%TD*%
D13*
%TO.P,ST1,1,Pin_1*%
%TO.N,PLUG1_GND*%
X234870000Y-59980000D03*
D14*
%TO.P,ST1,2,Pin_2*%
%TO.N,Net-(ST1-Pin_2)*%
X231370000Y-59980000D03*
%TD*%
D10*
%TO.P,USB2,1,VBUS*%
%TO.N,USB2_V*%
X244410000Y-83562500D03*
D11*
%TO.P,USB2,2,D-*%
%TO.N,unconnected-(USB2-D--Pad2)*%
X246910000Y-83562500D03*
%TO.P,USB2,3,D+*%
%TO.N,unconnected-(USB2-D+-Pad3)*%
X248910000Y-83562500D03*
%TO.P,USB2,4,GND*%
%TO.N,USB2_GND*%
X251410000Y-83562500D03*
D12*
%TO.P,USB2,5,Shield*%
%TO.N,unconnected-(USB2-Shield-Pad5)*%
X241340000Y-86272500D03*
X254480000Y-86272500D03*
%TD*%
D13*
%TO.P,ST2,1,Pin_1*%
%TO.N,PLUG2_GND*%
X243920000Y-59970000D03*
D14*
%TO.P,ST2,2,Pin_2*%
%TO.N,Net-(ST2-Pin_2)*%
X240420000Y-59970000D03*
%TD*%
D15*
%TO.P,U2,16,SW*%
%TO.N,Net-(MPC7-Pad1)*%
X222900000Y-75120000D03*
%TO.P,U2,15,SW*%
X222900000Y-74520000D03*
D16*
%TO.P,U2,14,AGND*%
%TO.N,PLUG1_GND*%
X222100000Y-73240000D03*
%TO.P,U2,13,EN*%
%TO.N,USB1_V*%
X222500000Y-73240000D03*
%TO.P,U2,12,FB*%
%TO.N,Net-(U2-FB)*%
X222900000Y-73240000D03*
%TO.P,U2,11,VCC*%
%TO.N,MP_VCC*%
X223300000Y-73240000D03*
%TO.P,U2,10,BST*%
%TO.N,Net-(U2-BST)*%
X223700000Y-73240000D03*
D17*
%TO.P,U2,9,SW*%
%TO.N,Net-(MPC7-Pad1)*%
X224150000Y-74510000D03*
%TO.P,U2,8,SW*%
X224150000Y-75210000D03*
D16*
%TO.P,U2,7,VOUT*%
%TO.N,3V3*%
X223700000Y-76140000D03*
%TO.P,U2,6,MODE*%
%TO.N,unconnected-(U2-MODE-Pad6)*%
X223300000Y-76140000D03*
%TO.P,U2,5,NC*%
%TO.N,unconnected-(U2-NC-Pad5)*%
X222900000Y-76140000D03*
%TO.P,U2,4,PG*%
%TO.N,Net-(U2-PG)*%
X222500000Y-76140000D03*
%TO.P,U2,3,NC*%
%TO.N,unconnected-(U2-NC-Pad3)*%
X222100000Y-76140000D03*
D17*
%TO.P,U2,2,PGND*%
%TO.N,PLUG1_GND*%
X221650000Y-74860000D03*
%TO.P,U2,1,VIN*%
%TO.N,USB1_V*%
X221650000Y-74160000D03*
%TD*%
D18*
%TO.P,MPR9,2*%
%TO.N,Net-(U2-FB)*%
X219550000Y-71535000D03*
%TO.P,MPR9,1*%
%TO.N,PLUG1_GND*%
X219550000Y-69885000D03*
%TD*%
D19*
%TO.P,MPR8,2*%
%TO.N,3V3*%
X221290000Y-69900000D03*
%TO.P,MPR8,1*%
%TO.N,Net-(U2-FB)*%
X221290000Y-71550000D03*
%TD*%
D20*
%TO.P,MPR7,2*%
%TO.N,Net-(U2-PG)*%
X222245000Y-77720000D03*
%TO.P,MPR7,1*%
%TO.N,MP_VCC*%
X220595000Y-77720000D03*
%TD*%
D21*
%TO.P,MPL2,2,2*%
%TO.N,Net-(MPC7-Pad1)*%
X227000000Y-74680000D03*
%TO.P,MPL2,1,1*%
%TO.N,3V3*%
X227000000Y-77480000D03*
%TD*%
D22*
%TO.P,MPC10,2*%
%TO.N,3V3*%
X224190000Y-77480000D03*
%TO.P,MPC10,1*%
%TO.N,PLUG1_GND*%
X224190000Y-79380000D03*
%TD*%
D23*
%TO.P,MPC9,2*%
%TO.N,3V3*%
X226320000Y-79580000D03*
%TO.P,MPC9,1*%
%TO.N,PLUG1_GND*%
X228220000Y-79580000D03*
%TD*%
D24*
%TO.P,MPC8,2*%
%TO.N,3V3*%
X222160000Y-80140000D03*
%TO.P,MPC8,1*%
%TO.N,PLUG1_GND*%
X220260000Y-80140000D03*
%TD*%
D23*
%TO.P,MPC7,2*%
%TO.N,Net-(U2-BST)*%
X225460000Y-72420000D03*
%TO.P,MPC7,1*%
%TO.N,Net-(MPC7-Pad1)*%
X227360000Y-72420000D03*
%TD*%
D22*
%TO.P,MPC5,2*%
%TO.N,PLUG1_GND*%
X223590000Y-69290000D03*
%TO.P,MPC5,1*%
%TO.N,MP_VCC*%
X223590000Y-71190000D03*
%TD*%
D25*
%TO.P,MPC3,2*%
%TO.N,PLUG1_GND*%
X219380000Y-75590000D03*
%TO.P,MPC3,1*%
%TO.N,USB1_V*%
X219380000Y-73690000D03*
%TD*%
D26*
%TO.P,F2,1*%
%TO.N,PLUG2_V*%
X251890000Y-69970000D03*
%TO.P,F2,2*%
%TO.N,Net-(ST2-Pin_2)*%
X251890000Y-63590000D03*
%TD*%
D18*
%TO.P,ACS1R1,1*%
%TO.N,3V3*%
X225230000Y-63855000D03*
%TO.P,ACS1R1,2*%
%TO.N,Net-(U3-~{FAULT})*%
X225230000Y-65505000D03*
%TD*%
D27*
%TO.P,EC12,1*%
%TO.N,3V3*%
X229890000Y-72470000D03*
%TO.P,EC12,2*%
%TO.N,PLUG1_GND*%
X229890000Y-74020000D03*
%TD*%
D28*
%TO.P,ACS1C1,2*%
%TO.N,PLUG1_GND*%
X253115000Y-74090000D03*
%TO.P,ACS1C1,1*%
%TO.N,3V3*%
X251565000Y-74090000D03*
%TD*%
D25*
%TO.P,EC8,1*%
%TO.N,PLUG1_GND*%
X237000000Y-70640000D03*
%TO.P,EC8,2*%
%TO.N,3V3*%
X237000000Y-72540000D03*
%TD*%
D29*
%TO.P,REF\u002A\u002A,1*%
%TO.N,PLUG1_GND*%
X236500000Y-81180000D03*
D30*
%TO.P,REF\u002A\u002A,2*%
%TO.N,N/C*%
X233960000Y-81180000D03*
%TD*%
D31*
%TO.P,EC11,1*%
%TO.N,3V3*%
X232880000Y-77815000D03*
%TO.P,EC11,2*%
%TO.N,PLUG1_GND*%
X232880000Y-76265000D03*
%TD*%
D25*
%TO.P,EC7,1*%
%TO.N,3V3*%
X231000000Y-79050000D03*
%TO.P,EC7,2*%
%TO.N,PLUG1_GND*%
X231000000Y-80950000D03*
%TD*%
D27*
%TO.P,ACS1C2,1*%
%TO.N,3V3*%
X226790000Y-63915000D03*
%TO.P,ACS1C2,2*%
%TO.N,PLUG1_GND*%
X226790000Y-65465000D03*
%TD*%
D31*
%TO.P,EC5,1*%
%TO.N,PLUG1_GND*%
X239330000Y-76520000D03*
%TO.P,EC5,2*%
%TO.N,CHIP_EN*%
X239330000Y-74970000D03*
%TD*%
D32*
%TO.P,U4,12,VCC*%
%TO.N,3V3*%
X250950000Y-78650000D03*
%TO.P,U4,11,VIOUT*%
%TO.N,IO*%
X250950000Y-78150000D03*
D33*
%TO.P,U4,10,NC*%
%TO.N,unconnected-(U4-NC-Pad10)*%
X251650000Y-77450000D03*
%TO.P,U4,9,NC*%
X252150000Y-77450000D03*
%TO.P,U4,8,NC*%
X252650000Y-77450000D03*
%TO.P,U4,7,NC*%
X253150000Y-77450000D03*
D32*
%TO.P,U4,6,~{FAULT}*%
%TO.N,Net-(U4-~{FAULT})*%
X253850000Y-78150000D03*
%TO.P,U4,5,GND*%
%TO.N,PLUG1_GND*%
X253850000Y-78650000D03*
D34*
%TO.P,U4,3,IP\u2013*%
%TO.N,PLUG2_V*%
X252900000Y-80150000D03*
%TO.P,U4,1,IP+*%
%TO.N,USB2_V*%
X251900000Y-80150000D03*
%TD*%
D28*
%TO.P,AUC1,1*%
%TO.N,PLUG1_GND*%
X239535000Y-78330000D03*
%TO.P,AUC1,2*%
%TO.N,3V3*%
X241085000Y-78330000D03*
%TD*%
D22*
%TO.P,EC9,1*%
%TO.N,3V3*%
X230190000Y-77460000D03*
%TO.P,EC9,2*%
%TO.N,PLUG1_GND*%
X230190000Y-75560000D03*
%TD*%
D35*
%TO.P,L1,1,1*%
%TO.N,3V3*%
X234610000Y-78232500D03*
%TO.P,L1,2,2*%
%TO.N,Net-(EC14-Pad1)*%
X234610000Y-76107500D03*
%TD*%
D19*
%TO.P,ER5,1*%
%TO.N,3V3*%
X241120000Y-76520000D03*
%TO.P,ER5,2*%
%TO.N,CHIP_EN*%
X241120000Y-74870000D03*
%TD*%
D36*
%TO.P,ER7,1*%
%TO.N,3V3*%
X247605000Y-68540000D03*
%TO.P,ER7,2*%
%TO.N,ESP_GPIO0_BOOT-DTR*%
X245955000Y-68540000D03*
%TD*%
D27*
%TO.P,EC14,1*%
%TO.N,Net-(EC14-Pad1)*%
X236300000Y-76615000D03*
%TO.P,EC14,2*%
%TO.N,PLUG1_GND*%
X236300000Y-78165000D03*
%TD*%
D36*
%TO.P,ER6,1*%
%TO.N,TXD0*%
X253430000Y-60390000D03*
%TO.P,ER6,2*%
%TO.N,Net-(ESP32S1-U0TXD{slash}PROG{slash}GPIO43)*%
X251780000Y-60390000D03*
%TD*%
D28*
%TO.P,EC15,1*%
%TO.N,3V3*%
X240815000Y-68910000D03*
%TO.P,EC15,2*%
%TO.N,PLUG1_GND*%
X242365000Y-68910000D03*
%TD*%
D37*
%TO.P,F5,1*%
%TO.N,PLUG1_V*%
X219870000Y-59310000D03*
%TO.P,F5,2*%
%TO.N,Net-(ST1-Pin_2)*%
X226250000Y-59310000D03*
%TD*%
D38*
%TO.P,U1,1*%
%TO.N,N/C*%
X247860000Y-73490000D03*
%TO.P,U1,2*%
X246590000Y-73490000D03*
%TO.P,U1,3*%
X245320000Y-73490000D03*
%TO.P,U1,4,GND*%
%TO.N,PLUG1_GND*%
X244050000Y-73490000D03*
%TO.P,U1,5,SDA*%
%TO.N,GPIO8_I2C_SDA*%
X244050000Y-78430000D03*
%TO.P,U1,6,SCL*%
%TO.N,GPIO9_I2C_SCL*%
X245320000Y-78430000D03*
%TO.P,U1,7*%
%TO.N,N/C*%
X246590000Y-78430000D03*
%TO.P,U1,8,VCC*%
%TO.N,3V3*%
X247860000Y-78430000D03*
%TD*%
D25*
%TO.P,EC6,1*%
%TO.N,PLUG1_GND*%
X239230000Y-70670000D03*
%TO.P,EC6,2*%
%TO.N,3V3*%
X239230000Y-72570000D03*
%TD*%
D39*
%TO.P,ICSP1,1,Pin_1*%
%TO.N,unconnected-(ICSP1-Pin_1-Pad1)*%
X250315000Y-57620000D03*
%TO.P,ICSP1,2,Pin_2*%
%TO.N,PLUG1_GND*%
X251585000Y-57620000D03*
%TO.P,ICSP1,3,Pin_3*%
%TO.N,TXD0*%
X252855000Y-57620000D03*
%TO.P,ICSP1,4,Pin_4*%
%TO.N,RXD0*%
X254125000Y-57620000D03*
%TD*%
D20*
%TO.P,ACS1R2,2*%
%TO.N,Net-(U4-~{FAULT})*%
X253155000Y-75690000D03*
%TO.P,ACS1R2,1*%
%TO.N,3V3*%
X251505000Y-75690000D03*
%TD*%
D40*
%TO.P,U3,1,IP+*%
%TO.N,PLUG1_V*%
X220760000Y-64170000D03*
%TO.P,U3,3,IP\u2013*%
%TO.N,USB1_V*%
X220760000Y-65170000D03*
D33*
%TO.P,U3,5,GND*%
%TO.N,PLUG1_GND*%
X222260000Y-66120000D03*
%TO.P,U3,6,~{FAULT}*%
%TO.N,Net-(U3-~{FAULT})*%
X222760000Y-66120000D03*
D32*
%TO.P,U3,7,NC*%
%TO.N,unconnected-(U3-NC-Pad10)*%
X223460000Y-65420000D03*
%TO.P,U3,8,NC*%
X223460000Y-64920000D03*
%TO.P,U3,9,NC*%
X223460000Y-64420000D03*
%TO.P,U3,10,NC*%
X223460000Y-63920000D03*
D33*
%TO.P,U3,11,VIOUT*%
%TO.N,IO*%
X222760000Y-63220000D03*
%TO.P,U3,12,VCC*%
%TO.N,3V3*%
X222260000Y-63220000D03*
%TD*%
D41*
%TO.N,PLUG1_GND*%
X222140000Y-68870000D03*
%TO.N,USB_EN_IO05*%
X228970000Y-69190000D03*
%TO.N,3V3_EN_ADS2_IO21*%
X230570000Y-67070000D03*
D42*
%TO.N,PLUG1_GND*%
X234010000Y-85270000D03*
D41*
%TO.N,USB2_EN_IO05*%
X234600000Y-83830000D03*
%TO.N,IO*%
X233880000Y-83150000D03*
%TO.N,USB2_EN_IO05*%
X239370000Y-83730000D03*
%TO.N,IO*%
X239480000Y-82240000D03*
%TO.N,PLUG1_GND*%
X237040000Y-78080000D03*
X240380000Y-80480000D03*
X239280000Y-77430000D03*
%TO.N,3V3*%
X242060000Y-78030000D03*
X242060000Y-80334500D03*
%TO.N,PLUG1_GND*%
X249340000Y-74520000D03*
X249280000Y-79310000D03*
X231020000Y-82140000D03*
%TO.N,GPIO8_I2C_SDA*%
X235530000Y-79295500D03*
%TO.N,GPIO9_I2C_SCL*%
X234470000Y-79440000D03*
%TO.N,PLUG1_GND*%
X243030000Y-73820000D03*
X250670000Y-72810000D03*
%TO.N,IO*%
X224140000Y-63040000D03*
X250610000Y-76450000D03*
%TO.N,PLUG2_V*%
X242170000Y-63260000D03*
%TO.N,PLUG1_V*%
X220410000Y-62500000D03*
%TO.N,ESP_GPIO0_BOOT-DTR*%
X244960000Y-68830000D03*
%TO.N,PLUG1_GND*%
X228950000Y-76540000D03*
X233780000Y-75230000D03*
X242390000Y-67980000D03*
D42*
%TO.N,3V3*%
X245270000Y-65600000D03*
D41*
%TO.N,PLUG1_GND*%
X241040000Y-70330000D03*
D42*
%TO.N,3V3*%
X228570000Y-70934500D03*
D43*
X239910000Y-68700000D03*
D42*
X229650000Y-71480000D03*
X231330000Y-78070000D03*
X229910000Y-78460000D03*
X240770000Y-72740000D03*
%TO.N,Net-(EC14-Pad1)*%
X236810000Y-75430000D03*
D43*
%TO.N,PLUG1_GND*%
X218570000Y-69950000D03*
D42*
X218780000Y-77380000D03*
D41*
%TO.N,3V3*%
X222130000Y-69940000D03*
%TO.N,MP_VCC*%
X223260000Y-72100000D03*
%TO.N,3V3*%
X224640000Y-76380000D03*
%TO.N,MP_VCC*%
X221110000Y-76500000D03*
%TO.N,PLUG1_GND*%
X248560000Y-56960000D03*
%TO.N,CHIP_EN*%
X235770000Y-75200000D03*
X243034974Y-69854974D03*
%TO.N,Net-(ESP32S1-U0TXD{slash}PROG{slash}GPIO43)*%
X250800000Y-60390000D03*
%TO.N,ESP_GPIO0_BOOT-DTR*%
X234780000Y-75030000D03*
X242090000Y-70460000D03*
%TO.N,RXD0*%
X254750000Y-60130000D03*
D42*
%TO.N,PLUG2_GND*%
X249000000Y-66790000D03*
X250350000Y-66790000D03*
%TD*%
D44*
%TO.N,3V3*%
X227770000Y-65380000D02*
X228435000Y-64715000D01*
X227770000Y-70134500D02*
X227770000Y-65380000D01*
X228570000Y-70934500D02*
X227770000Y-70134500D01*
D45*
%TO.N,USB_EN_IO05*%
X229530000Y-67110000D02*
X229870000Y-67110000D01*
X228970000Y-67670000D02*
X229530000Y-67110000D01*
X228970000Y-69190000D02*
X228970000Y-67670000D01*
%TO.N,PLUG1_GND*%
X224530000Y-66450000D02*
X226030000Y-66450000D01*
X224020000Y-66960000D02*
X224530000Y-66450000D01*
X222600000Y-66960000D02*
X224020000Y-66960000D01*
X226030000Y-66450000D02*
X226790000Y-65690000D01*
X222100000Y-67460000D02*
X222600000Y-66960000D01*
X226790000Y-65690000D02*
X226790000Y-65465000D01*
D44*
%TO.N,3V3*%
X230195500Y-70934500D02*
X230680000Y-70934500D01*
X229670000Y-71460000D02*
X230195500Y-70934500D01*
X229670000Y-72250000D02*
X229670000Y-71460000D01*
X229890000Y-72470000D02*
X229670000Y-72250000D01*
D45*
X242150000Y-76520000D02*
X242170000Y-76540000D01*
X241120000Y-76520000D02*
X242150000Y-76520000D01*
D46*
X242170000Y-73666014D02*
X242170000Y-76540000D01*
X242170000Y-76540000D02*
X242170000Y-77920000D01*
D45*
%TO.N,IO*%
X239320000Y-82240000D02*
X238600000Y-82960000D01*
X238600000Y-82960000D02*
X233880000Y-82960000D01*
X239480000Y-82240000D02*
X239320000Y-82240000D01*
X233880000Y-82960000D02*
X233830000Y-82910000D01*
%TO.N,USB2_EN_IO05*%
X234680000Y-83750000D02*
X234600000Y-83830000D01*
X239350000Y-83750000D02*
X234680000Y-83750000D01*
X239370000Y-83730000D02*
X239350000Y-83750000D01*
%TO.N,GPIO9_I2C_SCL*%
X245320000Y-79200000D02*
X245320000Y-78430000D01*
X242408673Y-79870000D02*
X244650000Y-79870000D01*
X241821827Y-79759500D02*
X242298173Y-79759500D01*
X241711327Y-79870000D02*
X241821827Y-79759500D01*
X234900000Y-79870000D02*
X241711327Y-79870000D01*
X234470000Y-79440000D02*
X234900000Y-79870000D01*
X244650000Y-79870000D02*
X245320000Y-79200000D01*
X242298173Y-79759500D02*
X242408673Y-79870000D01*
%TO.N,GPIO8_I2C_SDA*%
X235530000Y-79295500D02*
X235625500Y-79200000D01*
X235625500Y-79200000D02*
X243940000Y-79200000D01*
X243940000Y-79200000D02*
X244050000Y-79090000D01*
X244050000Y-79090000D02*
X244050000Y-78430000D01*
%TO.N,PLUG1_GND*%
X236955000Y-78165000D02*
X237040000Y-78080000D01*
X236300000Y-78165000D02*
X236955000Y-78165000D01*
D44*
%TO.N,Net-(EC14-Pad1)*%
X236300000Y-75940000D02*
X236810000Y-75430000D01*
X236300000Y-76615000D02*
X236300000Y-75940000D01*
X236192500Y-76507500D02*
X236192500Y-76047500D01*
X236300000Y-76615000D02*
X236192500Y-76507500D01*
D45*
%TO.N,PLUG1_GND*%
X240800000Y-80960000D02*
X240320000Y-80480000D01*
X245310000Y-80330000D02*
X244680000Y-80960000D01*
X248850000Y-80330000D02*
X245310000Y-80330000D01*
X249280000Y-79900000D02*
X248850000Y-80330000D01*
X244680000Y-80960000D02*
X240800000Y-80960000D01*
X249280000Y-78610000D02*
X249280000Y-79900000D01*
%TO.N,3V3*%
X247860000Y-79620000D02*
X247860000Y-78430000D01*
X247540000Y-79940000D02*
X247860000Y-79620000D01*
X245175000Y-79940000D02*
X247540000Y-79940000D01*
X244815000Y-80300000D02*
X245175000Y-79940000D01*
X242094500Y-80300000D02*
X244815000Y-80300000D01*
X242060000Y-80334500D02*
X242094500Y-80300000D01*
D46*
X242010000Y-78080000D02*
X241085000Y-78080000D01*
X242415000Y-72135000D02*
X242415000Y-73421014D01*
X244950000Y-69600000D02*
X242415000Y-72135000D01*
X242415000Y-73421014D02*
X242170000Y-73666014D01*
X242170000Y-77920000D02*
X242010000Y-78080000D01*
X247800000Y-69600000D02*
X244950000Y-69600000D01*
D45*
X241135000Y-78030000D02*
X241085000Y-78080000D01*
X242060000Y-78030000D02*
X241135000Y-78030000D01*
%TO.N,PLUG1_GND*%
X249280000Y-78610000D02*
X249280000Y-74540000D01*
X249280000Y-79310000D02*
X249280000Y-78610000D01*
X243720000Y-73820000D02*
X244050000Y-73490000D01*
X243030000Y-73820000D02*
X243720000Y-73820000D01*
D47*
%TO.N,USB2_V*%
X245750000Y-81400000D02*
X244410000Y-82740000D01*
X244410000Y-82740000D02*
X244410000Y-83562500D01*
X250440000Y-81400000D02*
X245750000Y-81400000D01*
X251290000Y-80550000D02*
X250440000Y-81400000D01*
D45*
%TO.N,PLUG1_GND*%
X249280000Y-74540000D02*
X249380000Y-74440000D01*
X254070000Y-74090000D02*
X253115000Y-74090000D01*
X254730000Y-74750000D02*
X254070000Y-74090000D01*
X254450000Y-78650000D02*
X254730000Y-78370000D01*
X254730000Y-78370000D02*
X254730000Y-74750000D01*
X253850000Y-78650000D02*
X254450000Y-78650000D01*
X222100000Y-67460000D02*
X222010000Y-67550000D01*
X222260000Y-67300000D02*
X222100000Y-67460000D01*
D48*
X222030000Y-69000000D02*
X219870000Y-69000000D01*
D45*
X222010000Y-68980000D02*
X222030000Y-69000000D01*
D48*
X223300000Y-69000000D02*
X222030000Y-69000000D01*
D45*
X222260000Y-66120000D02*
X222260000Y-67300000D01*
X222010000Y-67550000D02*
X222010000Y-68980000D01*
X231000000Y-82120000D02*
X231020000Y-82140000D01*
X231000000Y-80950000D02*
X231000000Y-82120000D01*
D46*
X239240000Y-77785000D02*
X239535000Y-78080000D01*
X239240000Y-76610000D02*
X239240000Y-77785000D01*
X239330000Y-76520000D02*
X239240000Y-76610000D01*
X237035000Y-78135000D02*
X238650000Y-76520000D01*
X236640000Y-78135000D02*
X237035000Y-78135000D01*
X238650000Y-76520000D02*
X239330000Y-76520000D01*
D48*
%TO.N,CHIP_EN*%
X240220000Y-73905000D02*
X240200000Y-73885000D01*
X240200000Y-74720000D02*
X240220000Y-74700000D01*
X240220000Y-74700000D02*
X240220000Y-73905000D01*
D45*
%TO.N,PLUG1_GND*%
X253115000Y-74090000D02*
X253115000Y-73645000D01*
X253115000Y-73645000D02*
X252280000Y-72810000D01*
X252280000Y-72810000D02*
X250640000Y-72810000D01*
D46*
%TO.N,3V3*%
X250920000Y-74090000D02*
X251565000Y-74090000D01*
X247800000Y-70970000D02*
X250920000Y-74090000D01*
X247800000Y-69600000D02*
X247800000Y-70970000D01*
X247800000Y-68420000D02*
X247800000Y-69600000D01*
X245270000Y-65890000D02*
X247800000Y-68420000D01*
X245270000Y-65600000D02*
X245270000Y-65890000D01*
D48*
%TO.N,IO*%
X250960000Y-76800000D02*
X250610000Y-76450000D01*
X250960000Y-78140000D02*
X250960000Y-76800000D01*
%TO.N,3V3*%
X250340000Y-75670000D02*
X251595000Y-75670000D01*
X249880000Y-78255000D02*
X249880000Y-76130000D01*
X250265000Y-78640000D02*
X249880000Y-78255000D01*
X249880000Y-76130000D02*
X250340000Y-75670000D01*
X250960000Y-78640000D02*
X250265000Y-78640000D01*
%TO.N,PLUG2_V*%
X244520000Y-63230000D02*
X242280000Y-63230000D01*
X247170000Y-65880000D02*
X244520000Y-63230000D01*
X247170000Y-66690000D02*
X247170000Y-65880000D01*
X250450000Y-69970000D02*
X247170000Y-66690000D01*
X251890000Y-69970000D02*
X250450000Y-69970000D01*
D44*
%TO.N,3V3*%
X244100000Y-64430000D02*
X228720000Y-64430000D01*
X245270000Y-65600000D02*
X244100000Y-64430000D01*
X228720000Y-64430000D02*
X228435000Y-64715000D01*
D48*
%TO.N,ESP_GPIO0_BOOT-DTR*%
X245250000Y-68540000D02*
X244960000Y-68830000D01*
X245955000Y-68540000D02*
X245250000Y-68540000D01*
%TO.N,3V3*%
X247620000Y-68525000D02*
X247605000Y-68540000D01*
D45*
%TO.N,CHIP_EN*%
X237070000Y-73860000D02*
X235770000Y-75160000D01*
X241374974Y-73860000D02*
X237070000Y-73860000D01*
X241990000Y-71670000D02*
X241990000Y-73244974D01*
X235770000Y-75160000D02*
X235770000Y-75200000D01*
X243034974Y-70625026D02*
X241990000Y-71670000D01*
X241990000Y-73244974D02*
X241374974Y-73860000D01*
X243034974Y-69854974D02*
X243034974Y-70625026D01*
%TO.N,ESP_GPIO0_BOOT-DTR*%
X234840000Y-75030000D02*
X234780000Y-75030000D01*
X236360000Y-73510000D02*
X234840000Y-75030000D01*
X241230000Y-73510000D02*
X236360000Y-73510000D01*
X241640000Y-73100000D02*
X241230000Y-73510000D01*
X241640000Y-70910000D02*
X241640000Y-73100000D01*
X242090000Y-70460000D02*
X241640000Y-70910000D01*
D48*
%TO.N,3V3*%
X227680000Y-63910000D02*
X228435000Y-64665000D01*
X228435000Y-64665000D02*
X228435000Y-64715000D01*
X226795000Y-63910000D02*
X227680000Y-63910000D01*
X226790000Y-63915000D02*
X226795000Y-63910000D01*
X226730000Y-63855000D02*
X226790000Y-63915000D01*
X225230000Y-63855000D02*
X226730000Y-63855000D01*
%TO.N,CHIP_EN*%
X240410000Y-74720000D02*
X241240000Y-74720000D01*
X239490000Y-74720000D02*
X240410000Y-74720000D01*
%TO.N,3V3*%
X240990000Y-76735000D02*
X241040000Y-76685000D01*
D46*
X251565000Y-75630000D02*
X251505000Y-75690000D01*
X251565000Y-74090000D02*
X251565000Y-75630000D01*
D48*
%TO.N,PLUG1_GND*%
X233780000Y-75230000D02*
X233780000Y-75365000D01*
X233780000Y-75365000D02*
X232880000Y-76265000D01*
D46*
X242370000Y-67870000D02*
X242365000Y-67875000D01*
X242365000Y-68910000D02*
X242365000Y-67875000D01*
X240935000Y-70340000D02*
X242365000Y-68910000D01*
X240040000Y-70340000D02*
X240935000Y-70340000D01*
X239230000Y-70670000D02*
X239710000Y-70670000D01*
X239710000Y-70670000D02*
X240040000Y-70340000D01*
D44*
%TO.N,3V3*%
X239140000Y-69550000D02*
X239850000Y-68840000D01*
X234610000Y-70934500D02*
X235994500Y-69550000D01*
X235994500Y-69550000D02*
X239140000Y-69550000D01*
X239850000Y-68840000D02*
X239910000Y-68700000D01*
X230680000Y-70934500D02*
X234610000Y-70934500D01*
X234610000Y-71270000D02*
X234610000Y-70934500D01*
X236130000Y-72790000D02*
X234610000Y-71270000D01*
X240720000Y-72790000D02*
X236130000Y-72790000D01*
X240770000Y-72740000D02*
X240720000Y-72790000D01*
X231564500Y-70934500D02*
X230680000Y-70934500D01*
X231580000Y-70950000D02*
X231564500Y-70934500D01*
X231580000Y-76440000D02*
X231580000Y-70950000D01*
D48*
%TO.N,PLUG1_GND*%
X228867500Y-74240000D02*
X229892500Y-74240000D01*
X228290000Y-72860000D02*
X228290000Y-73360000D01*
X228290000Y-71680000D02*
X228290000Y-72860000D01*
X228860000Y-75540000D02*
X230170000Y-75540000D01*
X230170000Y-75540000D02*
X230190000Y-75560000D01*
X228860000Y-75540000D02*
X228860000Y-78940000D01*
X228860000Y-73930000D02*
X228860000Y-75540000D01*
D46*
X239200000Y-70640000D02*
X239230000Y-70670000D01*
X237000000Y-70640000D02*
X239200000Y-70640000D01*
D44*
%TO.N,3V3*%
X240815000Y-68990000D02*
X240775000Y-69030000D01*
X239910000Y-68700000D02*
X240605000Y-68700000D01*
X240815000Y-68910000D02*
X240815000Y-68990000D01*
X231580000Y-76440000D02*
X231580000Y-72680000D01*
X231580000Y-77820000D02*
X231580000Y-76440000D01*
D48*
%TO.N,PLUG1_GND*%
X228860000Y-78940000D02*
X228220000Y-79580000D01*
X225430000Y-71270000D02*
X227880000Y-71270000D01*
X227880000Y-71270000D02*
X228290000Y-71680000D01*
X224790000Y-70630000D02*
X225430000Y-71270000D01*
X224790000Y-69540000D02*
X224790000Y-70630000D01*
X228290000Y-73360000D02*
X228860000Y-73930000D01*
X224540000Y-69290000D02*
X224790000Y-69540000D01*
X223590000Y-69290000D02*
X224540000Y-69290000D01*
D44*
%TO.N,3V3*%
X231330000Y-78070000D02*
X231580000Y-77820000D01*
X233845000Y-77815000D02*
X232880000Y-77815000D01*
X234192500Y-78162500D02*
X233845000Y-77815000D01*
X234740000Y-78162500D02*
X234192500Y-78162500D01*
X232855000Y-77840000D02*
X232880000Y-77815000D01*
X231560000Y-77840000D02*
X232855000Y-77840000D01*
X231330000Y-78070000D02*
X231560000Y-77840000D01*
X230940000Y-78460000D02*
X231330000Y-78070000D01*
X229910000Y-78460000D02*
X230940000Y-78460000D01*
%TO.N,Net-(EC14-Pad1)*%
X234890000Y-76047500D02*
X236192500Y-76047500D01*
%TO.N,3V3*%
X229910000Y-78200000D02*
X230190000Y-77920000D01*
X229910000Y-78460000D02*
X229910000Y-78200000D01*
X229650000Y-78460000D02*
X229910000Y-78460000D01*
X230190000Y-78240000D02*
X230190000Y-77920000D01*
X231000000Y-79050000D02*
X230190000Y-78240000D01*
X230990000Y-79040000D02*
X231000000Y-79050000D01*
X229610000Y-79040000D02*
X229610000Y-78500000D01*
X229610000Y-80610000D02*
X229610000Y-79040000D01*
X229610000Y-79040000D02*
X230990000Y-79040000D01*
X230190000Y-77920000D02*
X230190000Y-77460000D01*
X229120000Y-81100000D02*
X229610000Y-80610000D01*
X226730000Y-81100000D02*
X229120000Y-81100000D01*
X226320000Y-80690000D02*
X226730000Y-81100000D01*
X229610000Y-78500000D02*
X229650000Y-78460000D01*
X226320000Y-79580000D02*
X226320000Y-80690000D01*
X222570000Y-80550000D02*
X226320000Y-80550000D01*
X226320000Y-80550000D02*
X226320000Y-79580000D01*
X222160000Y-80140000D02*
X222570000Y-80550000D01*
D47*
%TO.N,PLUG1_V*%
X220360000Y-59800000D02*
X219830000Y-59270000D01*
X220360000Y-63540000D02*
X220360000Y-59800000D01*
%TO.N,Net-(ST1-Pin_2)*%
X230660000Y-59270000D02*
X231370000Y-59980000D01*
X225034303Y-59270000D02*
X230660000Y-59270000D01*
%TO.N,Net-(ST2-Pin_2)*%
X250530000Y-63580000D02*
X251680000Y-63580000D01*
X247640000Y-60690000D02*
X250530000Y-63580000D01*
X241850000Y-57100000D02*
X246160000Y-57100000D01*
X246160000Y-57100000D02*
X247640000Y-58580000D01*
X247640000Y-58580000D02*
X247640000Y-60690000D01*
X240420000Y-58530000D02*
X241850000Y-57100000D01*
X240420000Y-59970000D02*
X240420000Y-58530000D01*
D48*
%TO.N,PLUG1_GND*%
X219550000Y-69320000D02*
X219550000Y-69885000D01*
X219870000Y-69000000D02*
X219550000Y-69320000D01*
X223590000Y-69290000D02*
X223300000Y-69000000D01*
X218420000Y-70100000D02*
X218570000Y-69950000D01*
X218420000Y-72190000D02*
X218420000Y-70100000D01*
X218750000Y-72520000D02*
X218420000Y-72190000D01*
X222100000Y-72885686D02*
X221734314Y-72520000D01*
X222100000Y-73240000D02*
X222100000Y-72885686D01*
X221734314Y-72520000D02*
X218750000Y-72520000D01*
X218840000Y-69950000D02*
X218905000Y-69885000D01*
X218570000Y-69950000D02*
X218840000Y-69950000D01*
X218905000Y-69885000D02*
X219550000Y-69885000D01*
%TO.N,Net-(U2-FB)*%
X221620000Y-71840000D02*
X221620000Y-71835000D01*
X221620000Y-71835000D02*
X221320000Y-71535000D01*
X222070000Y-72290000D02*
X221620000Y-71840000D01*
X222900000Y-72720000D02*
X222470000Y-72290000D01*
X222470000Y-72290000D02*
X222070000Y-72290000D01*
X222900000Y-73240000D02*
X222900000Y-72720000D01*
X221320000Y-71535000D02*
X219550000Y-71535000D01*
D47*
%TO.N,USB1_V*%
X217010000Y-80520000D02*
X217010000Y-73650000D01*
X219932500Y-83442500D02*
X217010000Y-80520000D01*
X221190000Y-83442500D02*
X219932500Y-83442500D01*
D48*
%TO.N,PLUG1_GND*%
X218720000Y-77380000D02*
X218690000Y-77410000D01*
X218780000Y-77380000D02*
X218720000Y-77380000D01*
X218780000Y-77320000D02*
X218780000Y-77380000D01*
X218870000Y-77230000D02*
X218780000Y-77320000D01*
X219720000Y-77230000D02*
X219720000Y-75930000D01*
X219720000Y-77230000D02*
X218870000Y-77230000D01*
X219720000Y-78270000D02*
X219720000Y-77230000D01*
D44*
%TO.N,USB1_V*%
X217050000Y-73690000D02*
X217010000Y-73650000D01*
X219380000Y-73690000D02*
X217050000Y-73690000D01*
D47*
X217010000Y-73650000D02*
X217010000Y-66940000D01*
D48*
%TO.N,PLUG1_GND*%
X222620000Y-78810000D02*
X220260000Y-78810000D01*
X223190000Y-79380000D02*
X222620000Y-78810000D01*
X224190000Y-79380000D02*
X223190000Y-79380000D01*
X220260000Y-78810000D02*
X219720000Y-78270000D01*
X220260000Y-79050000D02*
X220260000Y-78810000D01*
X219720000Y-75930000D02*
X219380000Y-75590000D01*
D45*
%TO.N,Net-(MPC7-Pad1)*%
X223570000Y-75120000D02*
X222900000Y-75120000D01*
X223660000Y-75210000D02*
X223570000Y-75120000D01*
X224150000Y-75210000D02*
X223660000Y-75210000D01*
X224140000Y-74520000D02*
X224150000Y-74510000D01*
X222900000Y-74520000D02*
X224140000Y-74520000D01*
X226830000Y-74510000D02*
X227000000Y-74680000D01*
X224150000Y-74510000D02*
X226830000Y-74510000D01*
D48*
%TO.N,PLUG1_GND*%
X220260000Y-80140000D02*
X220260000Y-79050000D01*
D44*
%TO.N,3V3*%
X226320000Y-78160000D02*
X227000000Y-77480000D01*
X226320000Y-79580000D02*
X226320000Y-78160000D01*
D48*
X222115000Y-69925000D02*
X222130000Y-69940000D01*
X221290000Y-69925000D02*
X222115000Y-69925000D01*
%TO.N,MP_VCC*%
X223300000Y-71700000D02*
X223490000Y-71510000D01*
X223300000Y-73240000D02*
X223300000Y-71700000D01*
D45*
%TO.N,3V3*%
X224190000Y-76780000D02*
X224190000Y-77480000D01*
X224590000Y-76380000D02*
X224190000Y-76780000D01*
X224640000Y-76380000D02*
X224590000Y-76380000D01*
D48*
%TO.N,MP_VCC*%
X220595000Y-77015000D02*
X221110000Y-76500000D01*
X220595000Y-77720000D02*
X220595000Y-77015000D01*
%TO.N,Net-(U2-PG)*%
X222500000Y-77365000D02*
X222145000Y-77720000D01*
X222145000Y-77720000D02*
X221925000Y-77720000D01*
X222500000Y-76140000D02*
X222500000Y-77365000D01*
D45*
%TO.N,3V3*%
X223700000Y-76990000D02*
X223700000Y-76140000D01*
X224190000Y-77480000D02*
X223700000Y-76990000D01*
X224190000Y-77470000D02*
X224190000Y-77480000D01*
D48*
%TO.N,USB1_V*%
X222500000Y-73790000D02*
X222500000Y-73240000D01*
X222130000Y-74160000D02*
X222500000Y-73790000D01*
X221650000Y-74160000D02*
X222130000Y-74160000D01*
%TO.N,Net-(MPC7-Pad1)*%
X227360000Y-74320000D02*
X227000000Y-74680000D01*
X227360000Y-72420000D02*
X227360000Y-74320000D01*
%TO.N,Net-(U2-BST)*%
X225180000Y-72700000D02*
X225460000Y-72420000D01*
X223830000Y-72700000D02*
X225180000Y-72700000D01*
X223700000Y-72830000D02*
X223830000Y-72700000D01*
X223700000Y-73240000D02*
X223700000Y-72830000D01*
%TO.N,MP_VCC*%
X221150000Y-76540000D02*
X221170000Y-76540000D01*
X221110000Y-76500000D02*
X221150000Y-76540000D01*
D44*
%TO.N,PLUG1_GND*%
X220480000Y-75590000D02*
X220880000Y-75190000D01*
X219380000Y-75590000D02*
X220480000Y-75590000D01*
%TO.N,USB1_V*%
X219450000Y-73760000D02*
X220770000Y-73760000D01*
X219380000Y-73690000D02*
X219450000Y-73760000D01*
D48*
%TO.N,PLUG1_GND*%
X221210000Y-74860000D02*
X220880000Y-75190000D01*
X221650000Y-74860000D02*
X221210000Y-74860000D01*
%TO.N,USB1_V*%
X221170000Y-74160000D02*
X220770000Y-73760000D01*
X221650000Y-74160000D02*
X221170000Y-74160000D01*
D45*
%TO.N,Net-(MPC7-Pad1)*%
X222900000Y-74520000D02*
X222900000Y-75120000D01*
X224150000Y-74510000D02*
X224150000Y-75210000D01*
%TO.N,PLUG1_GND*%
X251585000Y-56875000D02*
X251190000Y-56480000D01*
X249040000Y-56480000D02*
X248560000Y-56960000D01*
X251190000Y-56480000D02*
X249040000Y-56480000D01*
X251585000Y-57620000D02*
X251585000Y-56875000D01*
D48*
%TO.N,3V3*%
X222580000Y-62390000D02*
X224650000Y-62390000D01*
X222260000Y-62710000D02*
X222580000Y-62390000D01*
X225230000Y-62970000D02*
X225230000Y-63855000D01*
X224650000Y-62390000D02*
X225230000Y-62970000D01*
X222260000Y-63220000D02*
X222260000Y-62710000D01*
D45*
%TO.N,TXD0*%
X252845000Y-56905000D02*
X253290000Y-56460000D01*
X253290000Y-56460000D02*
X254900000Y-56460000D01*
X253790500Y-60750500D02*
X253430000Y-60390000D01*
X254900000Y-56460000D02*
X256200000Y-57760000D01*
X255649500Y-60750500D02*
X253790500Y-60750500D01*
X252845000Y-57795000D02*
X252845000Y-56905000D01*
X256200000Y-57760000D02*
X256200000Y-60200000D01*
X256200000Y-60200000D02*
X255649500Y-60750500D01*
%TO.N,Net-(ESP32S1-U0TXD{slash}PROG{slash}GPIO43)*%
X250800000Y-60390000D02*
X251780000Y-60390000D01*
%TO.N,RXD0*%
X254750000Y-60130000D02*
X255230000Y-60130000D01*
X255265000Y-57540000D02*
X254370000Y-57540000D01*
X255230000Y-60130000D02*
X255850000Y-59510000D01*
X255850000Y-58125000D02*
X255265000Y-57540000D01*
X254370000Y-57540000D02*
X254115000Y-57795000D01*
X255850000Y-59510000D02*
X255850000Y-58125000D01*
D47*
%TO.N,USB1_V*%
X217980000Y-65970000D02*
X219520000Y-65970000D01*
X217010000Y-66940000D02*
X217980000Y-65970000D01*
%TO.N,PLUG2_V*%
X255910000Y-71430000D02*
X255910000Y-79600000D01*
X255910000Y-79600000D02*
X254710000Y-80800000D01*
X254440000Y-69960000D02*
X255910000Y-71430000D01*
X251680000Y-69960000D02*
X254440000Y-69960000D01*
X254710000Y-80800000D02*
X253620000Y-80800000D01*
D49*
%TO.N,PLUG2_GND*%
X249000000Y-66790000D02*
X250350000Y-66790000D01*
X249850000Y-66790000D02*
X243150000Y-60090000D01*
X250350000Y-66790000D02*
X249850000Y-66790000D01*
X243150000Y-60090000D02*
X243150000Y-59790000D01*
D47*
%TO.N,Net-(ST2-Pin_2)*%
X252460000Y-64360000D02*
X252460000Y-64720000D01*
X251680000Y-63580000D02*
X252460000Y-64360000D01*
D48*
%TO.N,IO*%
X222760000Y-63220000D02*
X223780000Y-63220000D01*
X223780000Y-63220000D02*
X224020000Y-62980000D01*
%TO.N,Net-(U3-~{FAULT})*%
X222760000Y-66120000D02*
X224200000Y-66120000D01*
X224815000Y-65505000D02*
X225230000Y-65505000D01*
X224200000Y-66120000D02*
X224815000Y-65505000D01*
%TO.N,Net-(U4-~{FAULT})*%
X253860000Y-78140000D02*
X253860000Y-76700000D01*
X253860000Y-76700000D02*
X253245000Y-76085000D01*
%TO.N,unconnected-(U3-NC-Pad10)*%
X223170000Y-65410000D02*
X224270000Y-65410000D01*
X223150000Y-64420000D02*
X224250000Y-64420000D01*
X223190000Y-64920000D02*
X224290000Y-64920000D01*
X223170000Y-63910000D02*
X224270000Y-63910000D01*
%TO.N,unconnected-(U4-NC-Pad10)*%
X253150000Y-77730000D02*
X253150000Y-76630000D01*
X251650000Y-77730000D02*
X251650000Y-76630000D01*
X252660000Y-77710000D02*
X252660000Y-76610000D01*
X252160000Y-77750000D02*
X252160000Y-76650000D01*
%TD*%
%TA.AperFunction,Conductor*%
%TO.N,PLUG1_V*%
G36*
X221257643Y-62458954D02*
G01*
X221324512Y-62479210D01*
X221369814Y-62532403D01*
X221380582Y-62582359D01*
X221388022Y-64144910D01*
X221368656Y-64212042D01*
X221316071Y-64258048D01*
X221264023Y-64269500D01*
X220080439Y-64269500D01*
X220080420Y-64269500D01*
X220077128Y-64269501D01*
X220073848Y-64269853D01*
X220073840Y-64269854D01*
X220017513Y-64275909D01*
X219896969Y-64320869D01*
X219827278Y-64325853D01*
X219818309Y-64323548D01*
X219743829Y-64301410D01*
X219601477Y-64280462D01*
X217985585Y-64275112D01*
X217918611Y-64255206D01*
X217873032Y-64202251D01*
X217861997Y-64150538D01*
X217869421Y-62554477D01*
X217889416Y-62487534D01*
X217942433Y-62442025D01*
X217994474Y-62431063D01*
X221257643Y-62458954D01*
G37*
%TD.AperFunction*%
%TD*%
%TA.AperFunction,Conductor*%
%TO.N,PLUG2_V*%
G36*
X254575357Y-79539949D02*
G01*
X254621363Y-79592534D01*
X254632811Y-79643590D01*
X254650823Y-81895008D01*
X254631675Y-81962203D01*
X254579239Y-82008379D01*
X254526827Y-82020000D01*
X252929500Y-82020000D01*
X252862461Y-82000315D01*
X252816706Y-81947511D01*
X252805500Y-81896000D01*
X252805500Y-81325315D01*
X252805500Y-81322554D01*
X252797468Y-81232802D01*
X252789650Y-81189469D01*
X252765812Y-81102572D01*
X252763196Y-81097782D01*
X252748344Y-81029510D01*
X252755844Y-80995027D01*
X252794091Y-80892483D01*
X252800500Y-80832873D01*
X252800499Y-79652125D01*
X252820184Y-79585087D01*
X252872987Y-79539332D01*
X252923904Y-79528127D01*
X254508226Y-79520583D01*
X254575357Y-79539949D01*
G37*
%TD.AperFunction*%
%TD*%
%TA.AperFunction,Conductor*%
%TO.N,USB1_V*%
G36*
X219599807Y-64785960D02*
G01*
X219666776Y-64805865D01*
X219698657Y-64835647D01*
X219767451Y-64927544D01*
X219767454Y-64927546D01*
X219882669Y-65013796D01*
X220017517Y-65064091D01*
X220077127Y-65070500D01*
X221247920Y-65070499D01*
X221314959Y-65090184D01*
X221360714Y-65142987D01*
X221371919Y-65193909D01*
X221379413Y-66767580D01*
X221360048Y-66834712D01*
X221307462Y-66880718D01*
X221255760Y-66892170D01*
X217924346Y-66901475D01*
X217857252Y-66881977D01*
X217811350Y-66829301D01*
X217800000Y-66777475D01*
X217800000Y-64904410D01*
X217819685Y-64837371D01*
X217872489Y-64791616D01*
X217924406Y-64780412D01*
X219599807Y-64785960D01*
G37*
%TD.AperFunction*%
%TD*%
%TA.AperFunction,Conductor*%
%TO.N,USB2_V*%
G36*
X251942042Y-79531389D02*
G01*
X251988048Y-79583974D01*
X251999500Y-79636022D01*
X251999500Y-80829560D01*
X251999500Y-80829578D01*
X251999501Y-80832872D01*
X252005909Y-80892483D01*
X252056204Y-81027331D01*
X252142454Y-81142546D01*
X252250312Y-81223288D01*
X252292182Y-81279221D01*
X252300000Y-81322554D01*
X252300000Y-81895421D01*
X252280315Y-81962460D01*
X252227511Y-82008215D01*
X252175423Y-82019420D01*
X250275926Y-82010585D01*
X250208979Y-81990588D01*
X250163470Y-81937572D01*
X250152528Y-81884097D01*
X250165797Y-81223287D01*
X250197571Y-79640930D01*
X250218597Y-79574302D01*
X250272309Y-79529616D01*
X250320951Y-79519424D01*
X251874914Y-79512024D01*
X251942042Y-79531389D01*
G37*
%TD.AperFunction*%
%TD*%
%TA.AperFunction,Conductor*%
%TO.N,PLUG1_GND*%
G36*
X233365679Y-83772747D02*
G01*
X233365908Y-83772383D01*
X233368404Y-83773951D01*
X233373518Y-83776211D01*
X233376791Y-83779221D01*
X233377738Y-83779816D01*
X233530478Y-83875789D01*
X233700745Y-83935368D01*
X233714965Y-83936970D01*
X233779378Y-83964035D01*
X233818123Y-84019235D01*
X233874209Y-84179519D01*
X233970185Y-84332264D01*
X234097735Y-84459814D01*
X234097737Y-84459815D01*
X234097738Y-84459816D01*
X234250478Y-84555789D01*
X234420745Y-84615368D01*
X234600000Y-84635565D01*
X234779255Y-84615368D01*
X234949522Y-84555789D01*
X235102262Y-84459816D01*
X235106291Y-84455787D01*
X235200260Y-84361819D01*
X235261583Y-84328334D01*
X235287941Y-84325500D01*
X238782059Y-84325500D01*
X238849098Y-84345185D01*
X238865543Y-84358437D01*
X238899837Y-84379985D01*
X239020478Y-84455789D01*
X239190745Y-84515368D01*
X239325186Y-84530515D01*
X239369999Y-84535565D01*
X239369999Y-84535564D01*
X239370000Y-84535565D01*
X239413480Y-84530666D01*
X239482302Y-84542720D01*
X239533682Y-84590069D01*
X239551364Y-84654342D01*
X239550598Y-84862572D01*
X239530667Y-84929539D01*
X239529702Y-84931006D01*
X239389082Y-85141461D01*
X239389075Y-85141473D01*
X239386828Y-85144836D01*
X239385040Y-85148459D01*
X239385031Y-85148477D01*
X239258144Y-85405780D01*
X239258141Y-85405786D01*
X239256348Y-85409423D01*
X239255044Y-85413262D01*
X239255042Y-85413269D01*
X239162823Y-85684933D01*
X239162818Y-85684949D01*
X239161519Y-85688778D01*
X239160728Y-85692750D01*
X239160726Y-85692761D01*
X239144879Y-85772433D01*
X239103966Y-85978120D01*
X239084671Y-86272500D01*
X239103966Y-86566880D01*
X239104757Y-86570861D01*
X239104758Y-86570862D01*
X239160726Y-86852238D01*
X239160728Y-86852245D01*
X239161519Y-86856222D01*
X239162819Y-86860053D01*
X239162823Y-86860066D01*
X239191221Y-86943722D01*
X239256348Y-87135577D01*
X239258141Y-87139213D01*
X239258144Y-87139220D01*
X239385032Y-87396525D01*
X239385038Y-87396536D01*
X239386828Y-87400165D01*
X239389086Y-87403544D01*
X239389087Y-87403546D01*
X239519387Y-87598556D01*
X239540265Y-87665233D01*
X239540284Y-87667902D01*
X239530491Y-90331863D01*
X239510560Y-90398829D01*
X239457588Y-90444390D01*
X239405307Y-90455401D01*
X233315608Y-90397219D01*
X233262077Y-90380943D01*
X233330000Y-90380000D01*
X233330000Y-88030000D01*
X233220817Y-88030179D01*
X233215666Y-87612883D01*
X233234521Y-87545610D01*
X233236511Y-87542531D01*
X233273172Y-87487665D01*
X233403652Y-87223077D01*
X233498481Y-86943722D01*
X233556034Y-86654380D01*
X233575329Y-86360000D01*
X233556034Y-86065620D01*
X233498481Y-85776278D01*
X233403652Y-85496923D01*
X233273172Y-85232336D01*
X233205073Y-85130418D01*
X233184196Y-85063744D01*
X233184193Y-85063573D01*
X233169487Y-83872446D01*
X233188343Y-83805172D01*
X233240578Y-83758769D01*
X233309609Y-83747973D01*
X233365679Y-83772747D01*
G37*
%TD.AperFunction*%
%TD*%
%TA.AperFunction,Conductor*%
%TO.N,PLUG1_GND*%
G36*
X233330000Y-90380000D02*
G01*
X233262073Y-90380943D01*
X229010000Y-90440000D01*
X229028466Y-94234899D01*
X229009108Y-94302031D01*
X228956528Y-94348042D01*
X228904468Y-94359500D01*
X215993500Y-94359500D01*
X215926461Y-94339815D01*
X215880706Y-94287011D01*
X215869500Y-94235500D01*
X215869500Y-88182529D01*
X215889185Y-88115490D01*
X215941989Y-88069735D01*
X215993293Y-88058529D01*
X216655454Y-88057439D01*
X216722524Y-88077013D01*
X216737415Y-88088211D01*
X216803984Y-88146591D01*
X216803990Y-88146595D01*
X216807043Y-88149273D01*
X217052335Y-88313172D01*
X217055968Y-88314963D01*
X217055974Y-88314967D01*
X217313279Y-88441855D01*
X217316923Y-88443652D01*
X217516992Y-88511566D01*
X217592433Y-88537176D01*
X217592435Y-88537176D01*
X217596278Y-88538481D01*
X217885620Y-88596034D01*
X218180000Y-88615329D01*
X218474380Y-88596034D01*
X218763722Y-88538481D01*
X219043077Y-88443652D01*
X219307665Y-88313172D01*
X219552957Y-88149273D01*
X219628317Y-88083183D01*
X219691695Y-88053782D01*
X219709850Y-88052413D01*
X229770847Y-88035856D01*
X229837913Y-88055429D01*
X229852801Y-88066625D01*
X229947043Y-88149273D01*
X230192335Y-88313172D01*
X230195968Y-88314963D01*
X230195974Y-88314967D01*
X230453279Y-88441855D01*
X230456923Y-88443652D01*
X230656992Y-88511566D01*
X230732433Y-88537176D01*
X230732435Y-88537176D01*
X230736278Y-88538481D01*
X231025620Y-88596034D01*
X231320000Y-88615329D01*
X231614380Y-88596034D01*
X231903722Y-88538481D01*
X232183077Y-88443652D01*
X232447665Y-88313172D01*
X232692957Y-88149273D01*
X232793020Y-88061519D01*
X232856399Y-88032118D01*
X232874553Y-88030749D01*
X233330000Y-88030000D01*
X233330000Y-90380000D01*
G37*
%TD.AperFunction*%
%TD*%
%TA.AperFunction,Conductor*%
%TO.N,Net-(MPC7-Pad1)*%
G36*
X228292156Y-73862187D02*
G01*
X228313740Y-73879421D01*
X228473181Y-74038862D01*
X228506666Y-74100185D01*
X228509500Y-74126543D01*
X228509500Y-75180488D01*
X228489815Y-75247527D01*
X228437011Y-75293282D01*
X228409691Y-75302105D01*
X228381980Y-75307617D01*
X228357789Y-75310000D01*
X222782211Y-75310000D01*
X222758020Y-75307617D01*
X222730309Y-75302105D01*
X222717656Y-75299588D01*
X222672956Y-75281072D01*
X222649086Y-75265122D01*
X222614877Y-75230913D01*
X222598927Y-75207043D01*
X222580412Y-75162346D01*
X222572381Y-75121971D01*
X222570000Y-75097789D01*
X222570000Y-74632210D01*
X222572381Y-74608029D01*
X222580412Y-74567651D01*
X222598927Y-74522956D01*
X222614877Y-74499086D01*
X222649086Y-74464877D01*
X222672956Y-74448927D01*
X222717653Y-74430412D01*
X222758027Y-74422381D01*
X222782211Y-74420000D01*
X225040002Y-74420000D01*
X225240000Y-74420000D01*
X225240000Y-74084435D01*
X225244177Y-74052523D01*
X225257994Y-74000643D01*
X225289742Y-73945270D01*
X225315715Y-73919062D01*
X225370796Y-73886817D01*
X225422552Y-73872531D01*
X225454421Y-73868067D01*
X228224947Y-73843108D01*
X228292156Y-73862187D01*
G37*
%TD.AperFunction*%
%TD*%
%TA.AperFunction,Conductor*%
%TO.N,3V3*%
G36*
X224449118Y-75794184D02*
G01*
X224501041Y-75808026D01*
X224556445Y-75839826D01*
X224582652Y-75865833D01*
X224614875Y-75920993D01*
X224629113Y-75972807D01*
X224633541Y-76004716D01*
X224638476Y-76650719D01*
X224638477Y-76650722D01*
X224640000Y-76850000D01*
X224839284Y-76849189D01*
X224839285Y-76849190D01*
X227098787Y-76840005D01*
X227100013Y-76840004D01*
X227101213Y-76840010D01*
X227803483Y-76845673D01*
X228125374Y-76848269D01*
X228157272Y-76852709D01*
X228209066Y-76866961D01*
X228264201Y-76899189D01*
X228290198Y-76925396D01*
X228321983Y-76980791D01*
X228335818Y-77032702D01*
X228340000Y-77064635D01*
X228340000Y-77897004D01*
X228337606Y-77921252D01*
X228329539Y-77961708D01*
X228310936Y-78006499D01*
X228294918Y-78030397D01*
X228260566Y-78064620D01*
X228236608Y-78080548D01*
X228191745Y-78098982D01*
X228184438Y-78100411D01*
X228151261Y-78106896D01*
X228127008Y-78109198D01*
X225789468Y-78100411D01*
X225722503Y-78080475D01*
X225680000Y-78031049D01*
X225680000Y-77970000D01*
X224924405Y-77973403D01*
X223673149Y-77979039D01*
X223648880Y-77976752D01*
X223608369Y-77968860D01*
X223563482Y-77950445D01*
X223539506Y-77934523D01*
X223505119Y-77900291D01*
X223489087Y-77876385D01*
X223470470Y-77831580D01*
X223462396Y-77791106D01*
X223460000Y-77766848D01*
X223460000Y-77085991D01*
X223479685Y-77018952D01*
X223532489Y-76973197D01*
X223536572Y-76971420D01*
X223540002Y-76970000D01*
X223620000Y-76970000D01*
X223615219Y-76658326D01*
X223633872Y-76590996D01*
X223635964Y-76587748D01*
X223650500Y-76514674D01*
X223650500Y-75923600D01*
X223670185Y-75856561D01*
X223705006Y-75820904D01*
X223707102Y-75819485D01*
X223752170Y-75800612D01*
X223765617Y-75797910D01*
X223792904Y-75792429D01*
X223817327Y-75790000D01*
X224417177Y-75790000D01*
X224449118Y-75794184D01*
G37*
%TD.AperFunction*%
%TD*%
%TA.AperFunction,Conductor*%
%TO.N,3V3*%
G36*
X230210099Y-77265312D02*
G01*
X230791476Y-77277340D01*
X230822820Y-77282039D01*
X230873740Y-77296518D01*
X230927880Y-77328483D01*
X230965151Y-77366073D01*
X230984408Y-77391250D01*
X231642862Y-78528580D01*
X231659004Y-78556462D01*
X231666210Y-78571036D01*
X231676879Y-78596729D01*
X231685294Y-78628058D01*
X231688934Y-78655637D01*
X231690000Y-78671862D01*
X231690000Y-79056842D01*
X231687603Y-79081104D01*
X231679527Y-79121581D01*
X231660910Y-79166383D01*
X231644879Y-79190288D01*
X231610490Y-79224522D01*
X231586515Y-79240443D01*
X231541628Y-79258857D01*
X231514716Y-79264099D01*
X231501117Y-79266748D01*
X231476853Y-79269034D01*
X231218293Y-79267865D01*
X231148798Y-79267550D01*
X229694330Y-79260969D01*
X229662446Y-79256650D01*
X229610641Y-79242606D01*
X229555425Y-79210627D01*
X229535077Y-79190288D01*
X229529337Y-79184550D01*
X229497336Y-79129355D01*
X229483263Y-79077541D01*
X229478933Y-79045667D01*
X229471082Y-77467605D01*
X229473419Y-77443026D01*
X229481504Y-77402001D01*
X229500381Y-77356613D01*
X229516683Y-77332459D01*
X229551712Y-77297975D01*
X229576122Y-77282052D01*
X229621802Y-77263890D01*
X229662951Y-77256451D01*
X229687559Y-77254501D01*
X230210099Y-77265312D01*
G37*
%TD.AperFunction*%
%TD*%
%TA.AperFunction,Conductor*%
%TO.N,GND*%
G36*
X238387187Y-80215185D02*
G01*
X238432942Y-80267989D01*
X238444145Y-80320207D01*
X238431597Y-82511210D01*
X238411529Y-82578136D01*
X238358464Y-82623588D01*
X238307599Y-82634500D01*
X237625619Y-82634500D01*
X237558580Y-82614815D01*
X237512825Y-82562011D01*
X237501621Y-82509873D01*
X237502286Y-82378578D01*
X237522308Y-82311643D01*
X237557393Y-82276107D01*
X237580601Y-82260601D01*
X237635966Y-82177740D01*
X237650500Y-82104674D01*
X237650500Y-80319500D01*
X237670185Y-80252461D01*
X237722989Y-80206706D01*
X237774500Y-80195500D01*
X238320148Y-80195500D01*
X238387187Y-80215185D01*
G37*
%TD.AperFunction*%
%TA.AperFunction,Conductor*%
G36*
X238379193Y-77459710D02*
G01*
X238435127Y-77501581D01*
X238459544Y-77567046D01*
X238459858Y-77576602D01*
X238453131Y-78751210D01*
X238433063Y-78818136D01*
X238379998Y-78863588D01*
X238329133Y-78874500D01*
X237643195Y-78874500D01*
X237576156Y-78854815D01*
X237530401Y-78802011D01*
X237519197Y-78751273D01*
X237516959Y-78392488D01*
X237526396Y-78344262D01*
X237576329Y-78223711D01*
X237576328Y-78223711D01*
X237576330Y-78223709D01*
X237580485Y-78192143D01*
X237608749Y-78128250D01*
X237615731Y-78120660D01*
X238248183Y-77488208D01*
X238309502Y-77454726D01*
X238379193Y-77459710D01*
G37*
%TD.AperFunction*%
%TA.AperFunction,Conductor*%
G36*
X238421608Y-74205185D02*
G01*
X238467363Y-74257989D01*
X238478566Y-74310208D01*
X238476173Y-74728011D01*
X238468385Y-76087767D01*
X238448317Y-76154693D01*
X238424026Y-76176546D01*
X238425544Y-76178064D01*
X238389095Y-76214512D01*
X238389091Y-76214516D01*
X237718693Y-76884912D01*
X237657370Y-76918397D01*
X237587678Y-76913413D01*
X237531745Y-76871541D01*
X237507328Y-76806077D01*
X237507014Y-76798027D01*
X237491499Y-74310272D01*
X237510765Y-74243112D01*
X237563283Y-74197029D01*
X237615497Y-74185500D01*
X238354569Y-74185500D01*
X238421608Y-74205185D01*
G37*
%TD.AperFunction*%
%TD*%
M02*
